{
.appVersion = "3079";
classes = (
{
code = "alef-hb bet-hb gimel-hb dalet-hb he-hb vav-hb zayin-hb het-hb tet-hb yod-hb finalkaf-hb kaf-hb lamed-hb finalmem-hb mem-hb finalnun-hb nun-hb samekh-hb ayin-hb finalpe-hb pe-hb finaltsadi-hb tsadi-hb qof-hb resh-hb shin-hb tav-hb";
name = HebrewLetters;
},
{
automatic = 1;

glyphs = (
{
glyphname = A;
layers = (
{
anchors = (
{
name = bottom;
position = "{272, 0}";
},
{
name = ogonek;
position = "{575, 57}";
},
{
name = top;
position = "{408, 700}";
}
);
color = 6;
layerId = UUID0;
paths = (
{
closed = 1;
nodes = (
"5 0 LINE SMOOTH",
"14 0 OFFCURVE",
"24 5 OFFCURVE",
"30 15 CURVE SMOOTH",
"128 175 LINE",
"481 175 LINE",
"511 21 LINE SMOOTH",
"514 6 OFFCURVE",
"522 0 OFFCURVE",
"534 0 CURVE SMOOTH",
"555 0 LINE SMOOTH",
"568 0 OFFCURVE",
"577 11 OFFCURVE",
"573 31 CURVE",
"458 680 LINE SMOOTH",
"456 693 OFFCURVE",
"449 700 OFFCURVE",
"433 700 CURVE SMOOTH",
"391 700 LINE SMOOTH",
"375 700 OFFCURVE",
"366 693 OFFCURVE",
"358 680 CURVE SMOOTH",
"-33 31 LINE",
"-41 17 OFFCURVE",
"-34 0 OFFCURVE",
"-17 0 CURVE SMOOTH"
);
},
{
closed = 1;
nodes = (
"401 629 LINE",
"471 235 LINE",
"164 235 LINE"
);
}
);
width = 653;
},
{
anchors = (
{
name = bottom;
position = "{326, 0}";
},
{
name = ogonek;
position = "{680, 122}";
},
{
name = top;
position = "{464, 700}";
}
);
color = 6;
layerId = "A0D8A2CD-35BA-4362-A7DB-C0E331BFD9A3";
paths = (
{
closed = 1;
nodes = (
"155 0 LINE SMOOTH",
"181 0 OFFCURVE",
"192 14 OFFCURVE",
"199 25 CURVE SMOOTH",
"237 91 LINE",
"452 91 LINE",
"462 25 LINE SMOOTH",
"464 14 OFFCURVE",
"470 0 OFFCURVE",
"496 0 CURVE SMOOTH",
"676 0 LINE SMOOTH",
"691 0 OFFCURVE",
"705 11 OFFCURVE",
"703 29 CURVE",
"615 667 LINE",
"613 682 OFFCURVE",
"604 700 OFFCURVE",
"577 700 CURVE SMOOTH",
"355 700 LINE SMOOTH",
"328 700 OFFCURVE",
"311 681 OFFCURVE",
"303 667 CURVE",
"-55 29 LINE SMOOTH",
"-63 15 OFFCURVE",
"-55 0 OFFCURVE",
"-40 0 CURVE SMOOTH"
);
},
{
closed = 1;
nodes = (
"425 472 LINE",
"442 286 LINE",
"329 286 LINE"
);
}
);
width = 761;
}
);
leftKerningGroup = A;
rightKerningGroup = A;
unicode = 0041;
userData = {
com.typemytype.robofont.guides = (
{
angle = 0;
isGlobal = 0;
magnetic = 5;
x = 0;
y = 680;
},
{
angle = 90;
isGlobal = 0;
magnetic = 5;
x = 35;
y = 0;
},
{
angle = 90;
isGlobal = 0;
magnetic = 5;
x = 637;
y = 0;
},
{
angle = 90;
isGlobal = 0;
magnetic = 5;
x = 336;
y = 0;
}
);
};
},
{
glyphname = Aogonek;
layers = (
{
background = {
components = (
{
name = A;
}
);
};
color = 6;
layerId = UUID0;
paths = (
{
closed = 1;
nodes = (
"485 -220 LINE SMOOTH",
"498 -220 OFFCURVE",
"509 -211 OFFCURVE",
"512 -198 CURVE SMOOTH",
"515 -185 LINE SMOOTH",
"518 -172 OFFCURVE",
"511 -163 OFFCURVE",
"498 -163 CURVE SMOOTH",
"483 -163 LINE SMOOTH",
"438 -163 OFFCURVE",
"412 -133 OFFCURVE",
"423 -82 CURVE SMOOTH",
"434 -31 OFFCURVE",
"473 0 OFFCURVE",
"517 0 CURVE SMOOTH",
"546 0 LINE SMOOTH",
"557 0 OFFCURVE",
"568 9 OFFCURVE",
"571 20 CURVE SMOOTH",
"572 22 OFFCURVE",
"573 28 OFFCURVE",
"572 31 CURVE SMOOTH",
"455 680 LINE SMOOTH",
"453 693 OFFCURVE",
"446 700 OFFCURVE",
"430 700 CURVE SMOOTH",
"394 700 LINE SMOOTH",
"378 700 OFFCURVE",
"369 693 OFFCURVE",
"361 680 CURVE SMOOTH",
"-32 31 LINE SMOOTH",
"-34 28 OFFCURVE",
"-36 22 OFFCURVE",
"-37 20 CURVE SMOOTH",
"-39 9 OFFCURVE",
"-32 0 OFFCURVE",
"-21 0 CURVE SMOOTH",
"1 0 LINE SMOOTH",
"14 0 OFFCURVE",
"24 10 OFFCURVE",
"27 15 CURVE SMOOTH",
"123 175 LINE",
"481 175 LINE",
"501 63 LINE",
"501 60 OFFCURVE",
"502 58 OFFCURVE",
"502 55 CURVE",
"432 45 OFFCURVE",
"379 -6 OFFCURVE",
"363 -82 CURVE SMOOTH",
"344 -167 OFFCURVE",
"384 -220 OFFCURVE",
"466 -220 CURVE SMOOTH"
);
},
{
closed = 1;
nodes = (
"400 629 LINE",
"470 235 LINE",
"161 235 LINE"
);
}
);
width = 650;
},
{
color = 6;
layerId = "A0D8A2CD-35BA-4362-A7DB-C0E331BFD9A3";
paths = (
{
closed = 1;
nodes = (
"609 -220 LINE SMOOTH",
"624 -220 OFFCURVE",
"639 -208 OFFCURVE",
"642 -193 CURVE SMOOTH",
"657 -125 LINE SMOOTH",
"660 -110 OFFCURVE",
"650 -98 OFFCURVE",
"635 -98 CURVE SMOOTH",
"625 -98 LINE SMOOTH",
"586 -98 OFFCURVE",
"581 -70 OFFCURVE",
"586 -49 CURVE SMOOTH",
"590 -29 OFFCURVE",
"606 -2 OFFCURVE",
"640 0 CURVE",
"671 0 LINE SMOOTH",
"683 0 OFFCURVE",
"695 10 OFFCURVE",
"698 22 CURVE SMOOTH",
"698 24 OFFCURVE",
"699 26 OFFCURVE",
"698 29 CURVE SMOOTH",
"611 667 LINE",
"610 682 OFFCURVE",
"600 700 OFFCURVE",
"573 700 CURVE SMOOTH",
"356 700 LINE SMOOTH",
"329 700 OFFCURVE",
"311 682 OFFCURVE",
"304 667 CURVE",
"-55 29 LINE SMOOTH",
"-56 26 OFFCURVE",
"-57 24 OFFCURVE",
"-57 22 CURVE SMOOTH",
"-60 10 OFFCURVE",
"-52 0 OFFCURVE",
"-40 0 CURVE SMOOTH",
"145 0 LINE SMOOTH",
"171 0 OFFCURVE",
"183 14 OFFCURVE",
"190 25 CURVE SMOOTH",
"228 91 LINE",
"443 91 LINE",
"453 25 LINE SMOOTH",
"453 15 OFFCURVE",
"458 3 OFFCURVE",
"475 0 CURVE",
"469 -15 OFFCURVE",
"464 -31 OFFCURVE",
"460 -49 CURVE SMOOTH",
"440 -144 OFFCURVE",
"474 -220 OFFCURVE",
"595 -220 CURVE SMOOTH"
);
},
{
closed = 1;
nodes = (
"416 472 LINE",
"433 286 LINE",
"320 286 LINE"
);
}
);
width = 756;
}
);
leftKerningGroup = A;
leftMetricsKey = A;
rightKerningGroup = A;
rightMetricsKey = A;
unicode = 0104;
},
{
glyphname = AE;
layers = (
{
anchors = (
{
name = bottom;
position = "{417, 0}";
},
{
name = top;
position = "{606, 700}";
}
);
color = 6;
layerId = UUID0;
paths = (
{
closed = 1;
nodes = (
"11 0 LINE",
"20 0 OFFCURVE",
"30 5 OFFCURVE",
"36 15 CURVE SMOOTH",
"134 175 LINE",
"421 175 LINE",
"388 22 LINE",
"385 9 OFFCURVE",
"393 0 OFFCURVE",
"406 0 CURVE",
"804 0 LINE",
"818 0 OFFCURVE",
"828 9 OFFCURVE",
"831 22 CURVE",
"834 37 LINE",
"837 51 OFFCURVE",
"830 60 OFFCURVE",
"816 60 CURVE",
"459 60 LINE",
"516 325 LINE",
"843 325 LINE",
"857 325 OFFCURVE",
"867 334 OFFCURVE",
"870 347 CURVE",
"873 362 LINE",
"876 376 OFFCURVE",
"869 385 OFFCURVE",
"855 385 CURVE",
"528 385 LINE",
"583 640 LINE",
"932 640 LINE",
"946 640 OFFCURVE",
"956 649 OFFCURVE",
"959 662 CURVE",
"962 677 LINE",
"965 691 OFFCURVE",
"958 700 OFFCURVE",
"944 700 CURVE",
"394 700 LINE",
"385 700 OFFCURVE",
"374 697 OFFCURVE",
"364 681 CURVE",
"-24 36 LINE",
"-31 24 OFFCURVE",
"-35 0 OFFCURVE",
"-9 0 CURVE SMOOTH"
);
},
{
closed = 1;
nodes = (
"409 633 LINE",
"518 633 LINE",
"433 235 LINE",
"170 235 LINE"
);
}
);
width = 943;
},
{
anchors = (
{
name = bottom;
position = "{453, 0}";
},
{
name = top;
position = "{613, 700}";
}
);
color = 6;
layerId = "A0D8A2CD-35BA-4362-A7DB-C0E331BFD9A3";
paths = (
{
closed = 1;
nodes = (
"160 0 LINE SMOOTH",
"186 0 OFFCURVE",
"197 14 OFFCURVE",
"204 25 CURVE SMOOTH",
"242 91 LINE",
"391 91 LINE",
"377 27 LINE SMOOTH",
"374 12 OFFCURVE",
"384 0 OFFCURVE",
"399 0 CURVE SMOOTH",
"890 0 LINE SMOOTH",
"905 0 OFFCURVE",
"919 12 OFFCURVE",
"922 27 CURVE SMOOTH",
"952 168 LINE SMOOTH",
"955 183 OFFCURVE",
"946 195 OFFCURVE",
"931 195 CURVE SMOOTH",
"653 195 LINE",
"666 258 LINE",
"914 258 LINE SMOOTH",
"929 258 OFFCURVE",
"944 270 OFFCURVE",
"947 285 CURVE SMOOTH",
"975 415 LINE SMOOTH",
"978 430 OFFCURVE",
"968 442 OFFCURVE",
"953 442 CURVE SMOOTH",
"705 442 LINE",
"719 505 LINE",
"989 505 LINE SMOOTH",
"1004 505 OFFCURVE",
"1018 517 OFFCURVE",
"1022 532 CURVE",
"1052 673 LINE SMOOTH",
"1055 688 OFFCURVE",
"1045 700 OFFCURVE",
"1030 700 CURVE SMOOTH",
"360 700 LINE SMOOTH",
"333 700 OFFCURVE",
"315 682 OFFCURVE",
"308 667 CURVE",
"-50 29 LINE SMOOTH",
"-58 15 OFFCURVE",
"-50 0 OFFCURVE",
"-35 0 CURVE SMOOTH"
);
},
{
closed = 1;
nodes = (
"447 505 LINE",
"479 505 LINE",
"432 286 LINE",
"334 286 LINE"
);
}
);
width = 1016;
}
);
leftKerningGroup = AE;
rightKerningGroup = E;
unicode = 00C6;
userData = {
com.typemytype.robofont.guides = (
{
angle = 0;
isGlobal = 0;
magnetic = 5;
x = 0;
y = 505;
},
{
angle = 90;
isGlobal = 0;
magnetic = 5;
x = 431;
y = 0;
}
);
};
},
{
glyphname = B;
layers = (
{
anchors = (
{
name = bottom;
position = "{274, 0}";
},
{
name = top;
position = "{423, 700}";
}
);
color = 6;
layerId = UUID0;
paths = (
{
closed = 1;
nodes = (
"323 0 LINE SMOOTH",
"479 0 OFFCURVE",
"550 97 OFFCURVE",
"572 198 CURVE",
"589 282 OFFCURVE",
"553 337 OFFCURVE",
"506 369 CURVE",
"550 386 OFFCURVE",
"606 426 OFFCURVE",
"626 521 CURVE SMOOTH",
"646 616 OFFCURVE",
"588 700 OFFCURVE",
"463 700 CURVE SMOOTH",
"202 700 LINE SMOOTH",
"189 700 OFFCURVE",
"178 691 OFFCURVE",
"175 677 CURVE SMOOTH",
"36 22 LINE SMOOTH",
"33 9 OFFCURVE",
"41 0 OFFCURVE",
"54 0 CURVE SMOOTH"
);
},
{
closed = 1;
nodes = (
"166 336 LINE",
"383 336 LINE SMOOTH",
"497 336 OFFCURVE",
"526 279 OFFCURVE",
"509 198 CURVE SMOOTH",
"492 118 OFFCURVE",
"417 60 OFFCURVE",
"323 60 CURVE SMOOTH",
"107 60 LINE"
);
},
{
closed = 1;
nodes = (
"231 640 LINE",
"448 640 LINE SMOOTH",
"544 640 OFFCURVE",
"580 600 OFFCURVE",
"563 521 CURVE SMOOTH",
"546 442 OFFCURVE",
"475 396 OFFCURVE",
"381 396 CURVE SMOOTH",
"179 396 LINE"
);
}
);
width = 657;
},
{
anchors = (
{
name = bottom;
position = "{312, 0}";
},
{
name = top;
position = "{461, 700}";
}
);
color = 6;
layerId = "A0D8A2CD-35BA-4362-A7DB-C0E331BFD9A3";
paths = (
{
closed = 1;
nodes = (
"381 0 LINE SMOOTH",
"561 0 OFFCURVE",
"657 70 OFFCURVE",
"689 220 CURVE SMOOTH",
"703 286 OFFCURVE",
"672 344 OFFCURVE",
"625 365 CURVE",
"660 381 OFFCURVE",
"718 426 OFFCURVE",
"732 490 CURVE SMOOTH",
"761 630 OFFCURVE",
"660 700 OFFCURVE",
"479 700 CURVE SMOOTH",
"167 700 LINE SMOOTH",
"152 700 OFFCURVE",
"138 688 OFFCURVE",
"135 673 CURVE SMOOTH",
"-3 27 LINE SMOOTH",
"-6 12 OFFCURVE",
"4 0 OFFCURVE",
"19 0 CURVE SMOOTH"
);
},
{
closed = 1;
nodes = (
"299 270 LINE",
"392 270 LINE SMOOTH",
"422 270 OFFCURVE",
"433 245 OFFCURVE",
"427 221 CURVE SMOOTH",
"423 199 OFFCURVE",
"404 172 OFFCURVE",
"371 172 CURVE SMOOTH",
"278 172 LINE"
);
},
{
closed = 1;
nodes = (
"354 528 LINE",
"438 528 LINE SMOOTH",
"467 528 OFFCURVE",
"473 503 OFFCURVE",
"469 482 CURVE SMOOTH",
"464 461 OFFCURVE",
"447 437 OFFCURVE",
"418 437 CURVE SMOOTH",
"334 437 LINE"
);
}
);
width = 733;
}
);
leftKerningGroup = I;
unicode = 0042;
userData = {
com.typemytype.robofont.guides = (
{
angle = 0;
isGlobal = 0;
magnetic = 5;
x = 0;
y = 271;
},
{
angle = 0;
isGlobal = 0;
magnetic = 5;
x = 0;
y = 437;
},
{
angle = 0;
isGlobal = 0;
magnetic = 5;
x = 0;
y = 521;
},
{
angle = 0;
isGlobal = 0;
magnetic = 5;
x = 0;
y = 198;
},
{
angle = 0;
isGlobal = 0;
magnetic = 5;
x = 0;
y = 9;
},
{
angle = 90;
isGlobal = 0;
magnetic = 5;
x = 355;
y = 0;
},
{
angle = 90;
isGlobal = 0;
magnetic = 5;
x = 583;
y = 0;
},
{
angle = 90;
isGlobal = 0;
magnetic = 5;
x = 94;
y = 0;
}
);
};
},
{
glyphname = C;
layers = (
{
anchors = (
{
name = bottom;
position = "{270, 0}";
},
{
name = top;
position = "{418, 700}";
}
);
color = 6;
layerId = UUID0;
paths = (
{
closed = 1;
nodes = (
"474 -10 OFFCURVE",
"550 112 OFFCURVE",
"579 206 CURVE SMOOTH",
"583 218 OFFCURVE",
"575 226 OFFCURVE",
"563 226 CURVE SMOOTH",
"540 226 LINE SMOOTH",
"529 226 OFFCURVE",
"521 221 OFFCURVE",
"515 205 CURVE",
"464 86 OFFCURVE",
"381 50 OFFCURVE",
"274 50 CURVE SMOOTH",
"152 50 OFFCURVE",
"96 115 OFFCURVE",
"123 266 CURVE SMOOTH",
"133 323 OFFCURVE",
"145 379 OFFCURVE",
"159 434 CURVE SMOOTH",
"196 585 OFFCURVE",
"291 650 OFFCURVE",
"413 650 CURVE SMOOTH",
"520 650 OFFCURVE",
"590 608 OFFCURVE",
"578 495 CURVE SMOOTH",
"576 479 OFFCURVE",
"588 474 OFFCURVE",
"599 474 CURVE SMOOTH",
"622 474 LINE SMOOTH",
"634 474 OFFCURVE",
"639 482 OFFCURVE",
"641 494 CURVE SMOOTH",
"658 595 OFFCURVE",
"603 710 OFFCURVE",
"413 710 CURVE SMOOTH",
"231 710 OFFCURVE",
"136 595 OFFCURVE",
"97 439 CURVE SMOOTH",
"83 382 OFFCURVE",
"68 315 OFFCURVE",
"59 261 CURVE SMOOTH",
"32 105 OFFCURVE",
"92 -10 OFFCURVE",
"274 -10 CURVE SMOOTH"
);
}
);
width = 650;
},
{
anchors = (
{
name = bottom;
position = "{311, 0}";
},
{
name = top;
position = "{459, 700}";
}
);
color = 6;
layerId = "A0D8A2CD-35BA-4362-A7DB-C0E331BFD9A3";
paths = (
{
closed = 1;
nodes = (
"507 -10 OFFCURVE",
"657 64 OFFCURVE",
"699 246 CURVE",
"701 258 OFFCURVE",
"693 268 OFFCURVE",
"681 268 CURVE SMOOTH",
"477 268 LINE SMOOTH",
"455 268 OFFCURVE",
"446 262 OFFCURVE",
"434 239 CURVE SMOOTH",
"413 199 OFFCURVE",
"382 185 OFFCURVE",
"348 185 CURVE SMOOTH",
"304 185 OFFCURVE",
"280 205 OFFCURVE",
"291 266 CURVE SMOOTH",
"301 323 OFFCURVE",
"313 379 OFFCURVE",
"327 434 CURVE SMOOTH",
"342 495 OFFCURVE",
"374 515 OFFCURVE",
"418 515 CURVE SMOOTH",
"452 515 OFFCURVE",
"476 504 OFFCURVE",
"481 461 CURVE",
"485 439 OFFCURVE",
"490 432 OFFCURVE",
"512 432 CURVE SMOOTH",
"716 432 LINE SMOOTH",
"728 432 OFFCURVE",
"740 442 OFFCURVE",
"743 454 CURVE SMOOTH",
"779 636 OFFCURVE",
"600 710 OFFCURVE",
"440 710 CURVE SMOOTH",
"243 710 OFFCURVE",
"115 625 OFFCURVE",
"68 439 CURVE SMOOTH",
"54 382 OFFCURVE",
"39 315 OFFCURVE",
"30 261 CURVE SMOOTH",
"-3 70 OFFCURVE",
"145 -10 OFFCURVE",
"327 -10 CURVE SMOOTH"
);
}
);
width = 731;
}
);
leftKerningGroup = O;
rightKerningGroup = C;
unicode = 0043;
userData = {
com.typemytype.robofont.guides = (
{
angle = 0;
isGlobal = 0;
magnetic = 5;
x = 0;
y = 434;
},
{
angle = 0;
isGlobal = 0;
magnetic = 5;
x = 0;
y = 266;
},
{
angle = 0;
isGlobal = 0;
magnetic = 5;
x = 0;
y = 710;
},
{
angle = 0;
isGlobal = 0;
magnetic = 5;
x = 0;
y = "-10";
},
{
angle = 90;
isGlobal = 0;
magnetic = 5;
x = 599;
y = 0;
},
{
angle = 90;
isGlobal = 0;
magnetic = 5;
x = 209;
y = 0;
},
{
angle = 90;
isGlobal = 0;
magnetic = 5;
x = 149;
y = 0;
},
{
angle = 90;
isGlobal = 0;
magnetic = 5;
x = 332;
y = 0;
}
);
};
},
{
glyphname = Ccedilla;
layers = (
{
color = 6;
layerId = UUID0;
paths = (
{
closed = 1;
nodes = (
"281 -221 OFFCURVE",
"321 -180 OFFCURVE",
"331 -132 CURVE SMOOTH",
"341 -84 OFFCURVE",
"317 -50 OFFCURVE",
"273 -50 CURVE SMOOTH",
"258 -50 OFFCURVE",
"242 -53 OFFCURVE",
"233 -58 CURVE",
"266 -10 LINE",
"456 -10 OFFCURVE",
"554 111 OFFCURVE",
"579 206 CURVE SMOOTH",
"583 218 OFFCURVE",
"574 226 OFFCURVE",
"562 226 CURVE",
"542 226 LINE",
"531 226 OFFCURVE",
"522 221 OFFCURVE",
"516 205 CURVE SMOOTH",
"464 86 OFFCURVE",
"386 50 OFFCURVE",
"279 50 CURVE SMOOTH",
"157 50 OFFCURVE",
"96 115 OFFCURVE",
"123 266 CURVE SMOOTH",
"133 323 OFFCURVE",
"145 379 OFFCURVE",
"158 434 CURVE SMOOTH",
"196 585 OFFCURVE",
"284 650 OFFCURVE",
"406 650 CURVE SMOOTH",
"513 650 OFFCURVE",
"577 614 OFFCURVE",
"577 495 CURVE SMOOTH",
"577 479 OFFCURVE",
"584 474 OFFCURVE",
"595 474 CURVE",
"615 474 LINE",
"627 474 OFFCURVE",
"639 482 OFFCURVE",
"640 494 CURVE SMOOTH",
"655 589 OFFCURVE",
"609 710 OFFCURVE",
"419 710 CURVE SMOOTH",
"237 710 OFFCURVE",
"136 595 OFFCURVE",
"97 439 CURVE SMOOTH",
"82 382 OFFCURVE",
"68 315 OFFCURVE",
"59 261 CURVE SMOOTH",
"34 121 OFFCURVE",
"73 15 OFFCURVE",
"213 -6 CURVE",
"183 -53 LINE",
"177 -63 OFFCURVE",
"166 -75 OFFCURVE",
"172 -83 CURVE",
"184 -100 LINE",
"196 -116 OFFCURVE",
"213 -96 OFFCURVE",
"245 -96 CURVE SMOOTH",
"268 -96 OFFCURVE",
"285 -110 OFFCURVE",
"280 -134 CURVE SMOOTH",
"274 -159 OFFCURVE",
"251 -174 OFFCURVE",
"228 -174 CURVE SMOOTH",
"184 -174 OFFCURVE",
"184 -140 OFFCURVE",
"164 -156 CURVE",
"147 -169 LINE",
"128 -184 OFFCURVE",
"162 -219 OFFCURVE",
"218 -220 CURVE SMOOTH"
);
}
);
width = 650;
},
{
color = 6;
hints = (
{
horizontal = 1;
place = "{0, 0}";
type = Tag;
}
);
layerId = "A0D8A2CD-35BA-4362-A7DB-C0E331BFD9A3";
paths = (
{
closed = 1;
nodes = (
"316 -220 OFFCURVE",
"363 -183 OFFCURVE",
"375 -130 CURVE SMOOTH",
"386 -77 OFFCURVE",
"364 -40 OFFCURVE",
"313 -40 CURVE SMOOTH",
"309 -40 OFFCURVE",
"290 -42 OFFCURVE",
"282 -45 CURVE",
"307 -10 LINE",
"477 -10 OFFCURVE",
"657 64 OFFCURVE",
"698 246 CURVE SMOOTH",
"701 258 OFFCURVE",
"693 268 OFFCURVE",
"681 268 CURVE",
"477 268 LINE",
"455 268 OFFCURVE",
"446 262 OFFCURVE",
"434 239 CURVE SMOOTH",
"413 199 OFFCURVE",
"382 185 OFFCURVE",
"348 185 CURVE SMOOTH",
"304 185 OFFCURVE",
"280 205 OFFCURVE",
"291 266 CURVE SMOOTH",
"301 323 OFFCURVE",
"313 379 OFFCURVE",
"326 434 CURVE SMOOTH",
"341 495 OFFCURVE",
"374 515 OFFCURVE",
"418 515 CURVE SMOOTH",
"452 515 OFFCURVE",
"475 504 OFFCURVE",
"481 461 CURVE SMOOTH",
"485 439 OFFCURVE",
"490 432 OFFCURVE",
"512 432 CURVE",
"716 432 LINE",
"728 432 OFFCURVE",
"740 442 OFFCURVE",
"743 454 CURVE SMOOTH",
"778 636 OFFCURVE",
"630 710 OFFCURVE",
"460 710 CURVE SMOOTH",
"273 710 OFFCURVE",
"115 625 OFFCURVE",
"68 439 CURVE SMOOTH",
"53 382 OFFCURVE",
"39 315 OFFCURVE",
"30 261 CURVE SMOOTH",
"1 91 OFFCURVE",
"90 10 OFFCURVE",
"245 -6 CURVE",
"215 -52 LINE",
"202 -71 OFFCURVE",
"203 -76 OFFCURVE",
"210 -85 CURVE",
"227 -106 LINE",
"237 -119 OFFCURVE",
"263 -106 OFFCURVE",
"281 -106 CURVE SMOOTH",
"301 -106 OFFCURVE",
"306 -118 OFFCURVE",
"304 -130 CURVE SMOOTH",
"301 -142 OFFCURVE",
"289 -154 OFFCURVE",
"270 -154 CURVE SMOOTH",
"236 -154 OFFCURVE",
"235 -136 OFFCURVE",
"215 -151 CURVE",
"190 -169 LINE",
"163 -189 OFFCURVE",
"203 -220 OFFCURVE",
"256 -220 CURVE SMOOTH"
);
}
);
width = 731;
}
);
leftKerningGroup = O;
leftMetricsKey = C;
rightKerningGroup = C;
rightMetricsKey = C;
unicode = 00C7;
userData = {
com.typemytype.robofont.guides = (
{
angle = 0;
isGlobal = 0;
magnetic = 5;
x = 0;
y = "-174";
},
{
angle = 0;
isGlobal = 0;
magnetic = 5;
x = 0;
y = "-220";
},
{
angle = 0;
isGlobal = 0;
magnetic = 5;
x = 0;
y = "-96";
},
{
angle = 0;
isGlobal = 0;
magnetic = 5;
x = 0;
y = "-50";
},
{
angle = 0;
isGlobal = 0;
magnetic = 5;
x = 0;
y = "-135";
},
{
angle = 90;
isGlobal = 0;
magnetic = 5;
x = 331;
y = 0;
},
{
angle = 90;
isGlobal = 0;
magnetic = 5;
x = 342;
y = 0;
}
);
};
},
{
glyphname = D;
layers = (
{
anchors = (
{
name = bottom;
position = "{284, 0}";
},
{
name = center;
position = "{358, 350}";
},
{
name = top;
position = "{388, 700}";
}
);
color = 6;
layerId = UUID0;
paths = (
{
closed = 1;
nodes = (
"282 0 LINE SMOOTH",
"481 0 OFFCURVE",
"559 87 OFFCURVE",
"602 271 CURVE SMOOTH",
"616 331 OFFCURVE",
"624 370 OFFCURVE",
"636 430 CURVE SMOOTH",
"670 604 OFFCURVE",
"587 700 OFFCURVE",
"405 700 CURVE",
"202 700 LINE",
"189 700 OFFCURVE",
"178 691 OFFCURVE",
"175 677 CURVE SMOOTH",
"36 22 LINE SMOOTH",
"33 9 OFFCURVE",
"41 0 OFFCURVE",
"54 0 CURVE SMOOTH"
);
},
{
closed = 1;
nodes = (
"231 640 LINE",
"398 640 LINE SMOOTH",
"558 640 OFFCURVE",
"600 571 OFFCURVE",
"572 425 CURVE SMOOTH",
"560 365 OFFCURVE",
"554 336 OFFCURVE",
"540 276 CURVE SMOOTH",
"504 120 OFFCURVE",
"438 60 OFFCURVE",
"279 60 CURVE SMOOTH",
"107 60 LINE"
);
}
);
width = 677;
},
{
anchors = (
{
name = bottom;
position = "{315, 0}";
},
{
name = center;
position = "{389, 350}";
},
{
name = top;
position = "{414, 700}";
}
);
color = 6;
layerId = "A0D8A2CD-35BA-4362-A7DB-C0E331BFD9A3";
paths = (
{
closed = 1;
nodes = (
"332 0 LINE SMOOTH",
"543 0 OFFCURVE",
"651 87 OFFCURVE",
"699 276 CURVE SMOOTH",
"713 330 OFFCURVE",
"721 368 OFFCURVE",
"731 425 CURVE SMOOTH",
"762 604 OFFCURVE",
"602 700 OFFCURVE",
"435 700 CURVE",
"167 700 LINE SMOOTH",
"152 700 OFFCURVE",
"138 688 OFFCURVE",
"135 673 CURVE SMOOTH",
"-3 27 LINE SMOOTH",
"-6 12 OFFCURVE",
"4 0 OFFCURVE",
"19 0 CURVE SMOOTH"
);
},
{
closed = 1;
nodes = (
"349 505 LINE",
"409 505 LINE SMOOTH",
"454 505 OFFCURVE",
"486 481 OFFCURVE",
"477 425 CURVE SMOOTH",
"468 370 OFFCURVE",
"460 333 OFFCURVE",
"445 276 CURVE SMOOTH",
"430 220 OFFCURVE",
"392 195 OFFCURVE",
"348 195 CURVE SMOOTH",
"283 195 LINE"
);
}
);
width = 739;
}
);
leftKerningGroup = I;
rightKerningGroup = D;
unicode = 0044;
userData = {
com.typemytype.robofont.guides = (
{
angle = 0;
isGlobal = 0;
magnetic = 5;
x = 0;
y = 425;
},
{
angle = 0;
isGlobal = 0;
magnetic = 5;
x = 0;
y = 276;
},
{
angle = 0;
isGlobal = 0;
magnetic = 5;
x = 0;
y = 9;
},
{
angle = 90;
isGlobal = 0;
magnetic = 5;
x = 320;
y = 0;
},
{
angle = 90;
isGlobal = 0;
magnetic = 5;
x = 603;
y = 0;
},
{
angle = 90;
isGlobal = 0;
magnetic = 5;
x = 94;
y = 0;
}
);
};
},
{
glyphname = Eth;
layers = (
{
color = 6;
layerId = UUID0;
paths = (
{
closed = 1;
nodes = (
"289 0 LINE",
"488 0 OFFCURVE",
"566 87 OFFCURVE",
"609 271 CURVE SMOOTH",
"623 331 OFFCURVE",
"631 370 OFFCURVE",
"643 430 CURVE SMOOTH",
"677 604 OFFCURVE",
"594 700 OFFCURVE",
"412 700 CURVE",
"209 700 LINE",
"196 700 OFFCURVE",
"185 691 OFFCURVE",
"182 677 CURVE",
"120 382 LINE",
"57 382 LINE",
"44 382 OFFCURVE",
"32 373 OFFCURVE",
"30 360 CURVE",
"27 344 LINE",
"25 331 OFFCURVE",
"31 322 OFFCURVE",
"44 322 CURVE",
"107 322 LINE",
"43 22 LINE",
"40 9 OFFCURVE",
"48 0 OFFCURVE",
"61 0 CURVE"
);
},
{
closed = 1;
nodes = (
"170 322 LINE",
"320 322 LINE SMOOTH",
"333 322 OFFCURVE",
"345 331 OFFCURVE",
"347 344 CURVE",
"350 360 LINE",
"352 373 OFFCURVE",
"346 382 OFFCURVE",
"333 382 CURVE",
"183 382 LINE",
"238 640 LINE",
"405 640 LINE",
"565 640 OFFCURVE",
"607 571 OFFCURVE",
"579 425 CURVE SMOOTH",
"567 365 OFFCURVE",
"561 336 OFFCURVE",
"547 276 CURVE SMOOTH",
"511 120 OFFCURVE",
"445 60 OFFCURVE",
"286 60 CURVE",
"114 60 LINE"
);
}
);
width = 684;
},
{
color = 6;
layerId = "A0D8A2CD-35BA-4362-A7DB-C0E331BFD9A3";
paths = (
{
closed = 1;
nodes = (
"354 0 LINE SMOOTH",
"565 0 OFFCURVE",
"673 87 OFFCURVE",
"721 276 CURVE SMOOTH",
"735 330 OFFCURVE",
"743 368 OFFCURVE",
"753 425 CURVE SMOOTH",
"784 604 OFFCURVE",
"624 700 OFFCURVE",
"457 700 CURVE SMOOTH",
"189 700 LINE SMOOTH",
"174 700 OFFCURVE",
"160 688 OFFCURVE",
"157 673 CURVE SMOOTH",
"105 430 LINE",
"67 430 LINE SMOOTH",
"52 430 OFFCURVE",
"37 418 OFFCURVE",
"34 403 CURVE SMOOTH",
"13 302 LINE SMOOTH",
"10 287 OFFCURVE",
"19 275 OFFCURVE",
"34 275 CURVE",
"72 275 LINE",
"19 27 LINE SMOOTH",
"16 12 OFFCURVE",
"26 0 OFFCURVE",
"41 0 CURVE SMOOTH"
);
},
{
closed = 1;
nodes = (
"322 275 LINE",
"378 275 LINE SMOOTH",
"393 275 OFFCURVE",
"408 287 OFFCURVE",
"411 302 CURVE SMOOTH",
"432 403 LINE SMOOTH",
"435 418 OFFCURVE",
"426 430 OFFCURVE",
"411 430 CURVE SMOOTH",
"355 430 LINE",
"371 505 LINE",
"431 505 LINE SMOOTH",
"476 505 OFFCURVE",
"508 481 OFFCURVE",
"499 425 CURVE SMOOTH",
"490 370 OFFCURVE",
"482 333 OFFCURVE",
"467 276 CURVE SMOOTH",
"452 220 OFFCURVE",
"414 195 OFFCURVE",
"370 195 CURVE SMOOTH",
"305 195 LINE"
);
}
);
width = 761;
}
);
leftKerningGroup = I;
rightKerningGroup = D;
unicode = 00D0;
userData = {
com.typemytype.robofont.guides = (
{
angle = 0;
isGlobal = 0;
magnetic = 5;
x = 0;
y = 350;
}
);
};
},
{
glyphname = Dcroat;
layers = (
{
color = 6;
layerId = UUID0;
paths = (
{
closed = 1;
nodes = (
"289 0 LINE SMOOTH",
"488 0 OFFCURVE",
"566 87 OFFCURVE",
"609 271 CURVE SMOOTH",
"623 331 OFFCURVE",
"631 370 OFFCURVE",
"643 430 CURVE SMOOTH",
"677 604 OFFCURVE",
"594 700 OFFCURVE",
"412 700 CURVE SMOOTH",
"209 700 LINE SMOOTH",
"196 700 OFFCURVE",
"185 691 OFFCURVE",
"182 677 CURVE",
"120 382 LINE",
"57 382 LINE SMOOTH",
"44 382 OFFCURVE",
"32 373 OFFCURVE",
"30 360 CURVE SMOOTH",
"27 344 LINE SMOOTH",
"25 331 OFFCURVE",
"31 322 OFFCURVE",
"44 322 CURVE SMOOTH",
"107 322 LINE",
"43 22 LINE SMOOTH",
"40 9 OFFCURVE",
"48 0 OFFCURVE",
"61 0 CURVE SMOOTH"
);
},
{
closed = 1;
nodes = (
"170 322 LINE",
"320 322 LINE SMOOTH",
"333 322 OFFCURVE",
"345 331 OFFCURVE",
"347 344 CURVE SMOOTH",
"350 360 LINE SMOOTH",
"352 373 OFFCURVE",
"346 382 OFFCURVE",
"333 382 CURVE SMOOTH",
"183 382 LINE",
"238 640 LINE",
"405 640 LINE SMOOTH",
"565 640 OFFCURVE",
"607 571 OFFCURVE",
"579 425 CURVE SMOOTH",
"567 365 OFFCURVE",
"561 336 OFFCURVE",
"547 276 CURVE SMOOTH",
"511 120 OFFCURVE",
"445 60 OFFCURVE",
"286 60 CURVE SMOOTH",
"114 60 LINE"
);
}
);
width = 684;
},
{
color = 6;
layerId = "A0D8A2CD-35BA-4362-A7DB-C0E331BFD9A3";
paths = (
{
closed = 1;
nodes = (
"354 0 LINE",
"565 0 OFFCURVE",
"673 87 OFFCURVE",
"721 276 CURVE SMOOTH",
"735 330 OFFCURVE",
"743 368 OFFCURVE",
"753 425 CURVE SMOOTH",
"784 604 OFFCURVE",
"624 700 OFFCURVE",
"457 700 CURVE",
"189 700 LINE",
"174 700 OFFCURVE",
"160 688 OFFCURVE",
"157 673 CURVE",
"105 430 LINE",
"67 430 LINE",
"52 430 OFFCURVE",
"37 418 OFFCURVE",
"34 403 CURVE",
"13 302 LINE",
"10 287 OFFCURVE",
"19 275 OFFCURVE",
"34 275 CURVE",
"72 275 LINE",
"19 27 LINE",
"16 12 OFFCURVE",
"26 0 OFFCURVE",
"41 0 CURVE"
);
},
{
closed = 1;
nodes = (
"322 275 LINE",
"378 275 LINE",
"393 275 OFFCURVE",
"408 287 OFFCURVE",
"411 302 CURVE",
"432 403 LINE",
"435 418 OFFCURVE",
"426 430 OFFCURVE",
"411 430 CURVE",
"355 430 LINE",
"371 505 LINE",
"431 505 LINE",
"476 505 OFFCURVE",
"508 481 OFFCURVE",
"499 425 CURVE SMOOTH",
"490 370 OFFCURVE",
"482 333 OFFCURVE",
"467 276 CURVE SMOOTH",
"452 220 OFFCURVE",
"414 195 OFFCURVE",
"370 195 CURVE",
"305 195 LINE"
);
}
);
width = 761;
}
);
leftKerningGroup = I;
rightKerningGroup = D;
unicode = 0110;
userData = {
com.typemytype.robofont.guides = (
{
angle = 0;
isGlobal = 0;
magnetic = 5;
x = 0;
y = 352;
},
{
angle = 90;
isGlobal = 0;
magnetic = 5;
x = 340;
y = 0;
},
{
angle = 90;
isGlobal = 0;
magnetic = 5;
x = 105;
y = 0;
}
);
};
},
{
glyphname = E;
layers = (
{
anchors = (
{
name = bottom;
position = "{241, 0}";
},
{
name = ogonek;
position = "{483, 57}";
},
{
name = top;
position = "{390, 700}";
},
{
name = topleft;
position = "{114, 700}";
}
);
color = 6;
layerId = UUID0;
paths = (
{
closed = 1;
nodes = (
"452 0 LINE SMOOTH",
"466 0 OFFCURVE",
"476 9 OFFCURVE",
"479 22 CURVE SMOOTH",
"482 37 LINE SMOOTH",
"485 51 OFFCURVE",
"478 60 OFFCURVE",
"464 60 CURVE SMOOTH",
"107 60 LINE",
"164 325 LINE",
"491 325 LINE SMOOTH",
"505 325 OFFCURVE",
"515 334 OFFCURVE",
"518 347 CURVE SMOOTH",
"521 362 LINE SMOOTH",
"524 376 OFFCURVE",
"517 385 OFFCURVE",
"503 385 CURVE SMOOTH",
"176 385 LINE",
"231 640 LINE",
"580 640 LINE SMOOTH",
"594 640 OFFCURVE",
"604 649 OFFCURVE",
"607 662 CURVE SMOOTH",
"610 677 LINE SMOOTH",
"613 691 OFFCURVE",
"606 700 OFFCURVE",
"592 700 CURVE SMOOTH",
"202 700 LINE SMOOTH",
"189 700 OFFCURVE",
"178 691 OFFCURVE",
"175 677 CURVE SMOOTH",
"36 22 LINE SMOOTH",
"33 9 OFFCURVE",
"41 0 OFFCURVE",
"54 0 CURVE SMOOTH"
);
}
);
width = 591;
},
{
anchors = (
{
name = bottom;
position = "{278, 0}";
},
{
name = ogonek;
position = "{586, 122}";
},
{
name = top;
position = "{423, 700}";
},
{
name = topleft;
position = "{114, 700}";
}
);
color = 6;
layerId = "A0D8A2CD-35BA-4362-A7DB-C0E331BFD9A3";
paths = (
{
closed = 1;
nodes = (
"540 0 LINE SMOOTH",
"555 0 OFFCURVE",
"569 12 OFFCURVE",
"572 27 CURVE SMOOTH",
"602 168 LINE SMOOTH",
"605 183 OFFCURVE",
"596 195 OFFCURVE",
"581 195 CURVE SMOOTH",
"273 195 LINE",
"286 258 LINE",
"564 258 LINE SMOOTH",
"579 258 OFFCURVE",
"594 270 OFFCURVE",
"597 285 CURVE SMOOTH",
"625 415 LINE SMOOTH",
"628 430 OFFCURVE",
"618 442 OFFCURVE",
"603 442 CURVE SMOOTH",
"325 442 LINE",
"339 505 LINE",
"639 505 LINE SMOOTH",
"654 505 OFFCURVE",
"669 517 OFFCURVE",
"672 532 CURVE SMOOTH",
"702 673 LINE SMOOTH",
"705 688 OFFCURVE",
"695 700 OFFCURVE",
"680 700 CURVE SMOOTH",
"167 700 LINE SMOOTH",
"152 700 OFFCURVE",
"138 688 OFFCURVE",
"135 673 CURVE SMOOTH",
"-3 27 LINE SMOOTH",
"-6 12 OFFCURVE",
"4 0 OFFCURVE",
"19 0 CURVE SMOOTH"
);
}
);
width = 666;
}
);
leftKerningGroup = I;
rightKerningGroup = E;
unicode = 0045;
userData = {
com.typemytype.robofont.guides = (
{
angle = 0;
isGlobal = 0;
magnetic = 5;
x = 0;
y = 334;
},
{
angle = 0;
isGlobal = 0;
magnetic = 5;
x = 0;
y = 9;
},
{
angle = 0;
isGlobal = 0;
magnetic = 5;
x = 0;
y = 376;
},
{
angle = 0;
isGlobal = 0;
magnetic = 5;
x = 0;
y = 691;
},
{
angle = 0;
isGlobal = 0;
magnetic = 5;
x = 0;
y = 649;
},
{
angle = 90;
isGlobal = 0;
magnetic = 5;
x = 664;
y = 0;
},
{
angle = 90;
isGlobal = 0;
magnetic = 5;
x = 94;
y = 0;
},
{
angle = 90;
isGlobal = 0;
magnetic = 5;
x = 511;
y = 0;
}
);
};
},
{
glyphname = Eogonek;
layers = (
{
anchors = (
{
name = top;
position = "{390, 700}";
}
);
color = 6;
layerId = UUID0;
paths = (
{
closed = 1;
nodes = (
"406 -220 LINE SMOOTH",
"419 -220 OFFCURVE",
"430 -211 OFFCURVE",
"432 -198 CURVE SMOOTH",
"435 -185 LINE SMOOTH",
"438 -172 OFFCURVE",
"431 -163 OFFCURVE",
"418 -163 CURVE SMOOTH",
"403 -163 LINE SMOOTH",
"359 -163 OFFCURVE",
"333 -133 OFFCURVE",
"344 -82 CURVE SMOOTH",
"354 -33 OFFCURVE",
"390 -3 OFFCURVE",
"431 0 CURVE",
"452 0 LINE SMOOTH",
"466 0 OFFCURVE",
"476 9 OFFCURVE",
"479 22 CURVE SMOOTH",
"482 37 LINE SMOOTH",
"485 51 OFFCURVE",
"478 60 OFFCURVE",
"464 60 CURVE SMOOTH",
"107 60 LINE",
"164 325 LINE",
"491 325 LINE SMOOTH",
"505 325 OFFCURVE",
"515 334 OFFCURVE",
"518 347 CURVE SMOOTH",
"521 362 LINE SMOOTH",
"524 376 OFFCURVE",
"517 385 OFFCURVE",
"503 385 CURVE SMOOTH",
"176 385 LINE",
"231 640 LINE",
"580 640 LINE SMOOTH",
"594 640 OFFCURVE",
"604 649 OFFCURVE",
"607 662 CURVE SMOOTH",
"610 677 LINE SMOOTH",
"613 691 OFFCURVE",
"606 700 OFFCURVE",
"592 700 CURVE SMOOTH",
"202 700 LINE SMOOTH",
"189 700 OFFCURVE",
"178 691 OFFCURVE",
"175 677 CURVE SMOOTH",
"36 22 LINE SMOOTH",
"33 9 OFFCURVE",
"41 0 OFFCURVE",
"54 0 CURVE SMOOTH",
"323 0 LINE",
"304 -22 OFFCURVE",
"291 -50 OFFCURVE",
"284 -82 CURVE SMOOTH",
"266 -167 OFFCURVE",
"306 -220 OFFCURVE",
"387 -220 CURVE SMOOTH"
);
}
);
width = 591;
},
{
anchors = (
{
name = top;
position = "{427, 700}";
}
);
color = 6;
layerId = "A0D8A2CD-35BA-4362-A7DB-C0E331BFD9A3";
paths = (
{
closed = 1;
nodes = (
"493 -220 LINE",
"508 -220 OFFCURVE",
"522 -208 OFFCURVE",
"525 -193 CURVE",
"540 -125 LINE",
"543 -110 OFFCURVE",
"534 -98 OFFCURVE",
"519 -98 CURVE",
"509 -98 LINE",
"470 -98 OFFCURVE",
"465 -70 OFFCURVE",
"469 -49 CURVE SMOOTH",
"473 -29 OFFCURVE",
"489 -2 OFFCURVE",
"524 0 CURVE",
"540 0 LINE",
"555 0 OFFCURVE",
"569 12 OFFCURVE",
"572 27 CURVE",
"602 168 LINE",
"605 183 OFFCURVE",
"596 195 OFFCURVE",
"581 195 CURVE",
"273 195 LINE",
"286 258 LINE",
"564 258 LINE",
"579 258 OFFCURVE",
"594 270 OFFCURVE",
"597 285 CURVE",
"625 415 LINE",
"628 430 OFFCURVE",
"618 442 OFFCURVE",
"603 442 CURVE",
"325 442 LINE",
"339 505 LINE",
"639 505 LINE",
"654 505 OFFCURVE",
"668 517 OFFCURVE",
"672 532 CURVE",
"702 673 LINE",
"705 688 OFFCURVE",
"695 700 OFFCURVE",
"680 700 CURVE",
"167 700 LINE",
"152 700 OFFCURVE",
"138 688 OFFCURVE",
"135 673 CURVE",
"-3 27 LINE",
"-6 12 OFFCURVE",
"4 0 OFFCURVE",
"19 0 CURVE",
"354 0 LINE",
"349 -12 OFFCURVE",
"346 -25 OFFCURVE",
"343 -39 CURVE SMOOTH",
"323 -134 OFFCURVE",
"368 -220 OFFCURVE",
"489 -220 CURVE"
);
}
);
width = 666;
}
);
leftKerningGroup = I;
rightKerningGroup = E;
unicode = 0118;
userData = {
com.typemytype.robofont.guides = (
{
angle = 90;
isGlobal = 0;
magnetic = 5;
x = 355;
y = 0;
}
);
};
},
{
glyphname = F;
layers = (
{
anchors = (
{
name = bottom;
position = "{232, 0}";
},
{
name = top;
position = "{381, 700}";
}
);
color = 6;
layerId = UUID0;
paths = (
{
closed = 1;
nodes = (
"72 0 LINE SMOOTH",
"86 0 OFFCURVE",
"96 9 OFFCURVE",
"99 22 CURVE SMOOTH",
"161 311 LINE",
"486 311 LINE SMOOTH",
"500 311 OFFCURVE",
"511 320 OFFCURVE",
"513 333 CURVE SMOOTH",
"516 348 LINE SMOOTH",
"519 362 OFFCURVE",
"512 371 OFFCURVE",
"498 371 CURVE SMOOTH",
"173 371 LINE",
"231 640 LINE",
"576 640 LINE SMOOTH",
"590 640 OFFCURVE",
"600 649 OFFCURVE",
"603 662 CURVE SMOOTH",
"606 677 LINE SMOOTH",
"609 691 OFFCURVE",
"602 700 OFFCURVE",
"588 700 CURVE SMOOTH",
"202 700 LINE",
"189 700 OFFCURVE",
"178 691 OFFCURVE",
"175 677 CURVE SMOOTH",
"36 22 LINE SMOOTH",
"33 9 OFFCURVE",
"41 0 OFFCURVE",
"54 0 CURVE SMOOTH"
);
}
);
width = 573;
},
{
anchors = (
{
name = bottom;
position = "{268, 0}";
},
{
name = top;
position = "{417, 700}";
}
);
color = 6;
layerId = "A0D8A2CD-35BA-4362-A7DB-C0E331BFD9A3";
paths = (
{
closed = 1;
nodes = (
"210 0 LINE SMOOTH",
"225 0 OFFCURVE",
"239 12 OFFCURVE",
"242 27 CURVE SMOOTH",
"282 215 LINE",
"548 215 LINE SMOOTH",
"563 215 OFFCURVE",
"578 227 OFFCURVE",
"581 242 CURVE SMOOTH",
"613 393 LINE SMOOTH",
"616 408 OFFCURVE",
"607 420 OFFCURVE",
"592 420 CURVE SMOOTH",
"326 420 LINE",
"342 494 LINE",
"628 494 LINE SMOOTH",
"643 494 OFFCURVE",
"657 506 OFFCURVE",
"660 521 CURVE SMOOTH",
"693 673 LINE SMOOTH",
"696 688 OFFCURVE",
"686 700 OFFCURVE",
"671 700 CURVE SMOOTH",
"167 700 LINE SMOOTH",
"152 700 OFFCURVE",
"138 688 OFFCURVE",
"135 673 CURVE SMOOTH",
"-3 27 LINE SMOOTH",
"-6 12 OFFCURVE",
"4 0 OFFCURVE",
"19 0 CURVE SMOOTH"
);
}
);
width = 646;
}
);
leftKerningGroup = I;
unicode = 0046;
userData = {
com.typemytype.robofont.guides = (
{
angle = 0;
isGlobal = 0;
magnetic = 5;
x = 0;
y = 320;
},
{
angle = 0;
isGlobal = 0;
magnetic = 5;
x = 0;
y = 691;
},
{
angle = 0;
isGlobal = 0;
magnetic = 5;
x = 0;
y = 649;
},
{
angle = 0;
isGlobal = 0;
magnetic = 5;
x = 0;
y = 362;
},
{
angle = 0;
isGlobal = 0;
magnetic = 5;
x = 0;
y = 9;
},
{
angle = 90;
isGlobal = 0;
magnetic = 5;
x = 761;
y = 0;
},
{
angle = 90;
isGlobal = 0;
magnetic = 5;
x = 94;
y = 0;
},
{
angle = 90;
isGlobal = 0;
magnetic = 5;
x = 487;
y = 0;
},
{
angle = 90;
isGlobal = 0;
magnetic = 5;
x = 139;
y = 0;
}
);
};
},
{
glyphname = G;
layers = (
{
anchors = (
{
name = bottom;
position = "{277, 0}";
},
{
name = top;
position = "{427, 700}";
}
);
color = 6;
layerId = UUID0;
paths = (
{
closed = 1;
nodes = (
"455 -10 OFFCURVE",
"575 100 OFFCURVE",
"610 260 CURVE SMOOTH",
"629 348 LINE SMOOTH",
"632 362 OFFCURVE",
"625 371 OFFCURVE",
"611 371 CURVE SMOOTH",
"397 371 LINE SMOOTH",
"384 371 OFFCURVE",
"373 362 OFFCURVE",
"370 348 CURVE SMOOTH",
"367 334 LINE SMOOTH",
"364 320 OFFCURVE",
"371 311 OFFCURVE",
"384 311 CURVE SMOOTH",
"558 311 LINE",
"547 260 LINE SMOOTH",
"516 115 OFFCURVE",
"414 50 OFFCURVE",
"296 50 CURVE SMOOTH",
"177 50 OFFCURVE",
"110 110 OFFCURVE",
"136 260 CURVE SMOOTH",
"147 320 OFFCURVE",
"160 380 OFFCURVE",
"175 440 CURVE SMOOTH",
"212 590 OFFCURVE",
"304 650 OFFCURVE",
"423 650 CURVE SMOOTH",
"542 650 OFFCURVE",
"586 587 OFFCURVE",
"593 525 CURVE SMOOTH",
"595 510 OFFCURVE",
"598 505 OFFCURVE",
"610 505 CURVE SMOOTH",
"632 505 LINE SMOOTH",
"645 505 OFFCURVE",
"655 513 OFFCURVE",
"657 525 CURVE SMOOTH",
"666 582 OFFCURVE",
"621 710 OFFCURVE",
"436 710 CURVE SMOOTH",
"265 710 OFFCURVE",
"151 602 OFFCURVE",
"113 445 CURVE SMOOTH",
"98 385 OFFCURVE",
"83 315 OFFCURVE",
"72 255 CURVE SMOOTH",
"44 99 OFFCURVE",
"111 -10 OFFCURVE",
"283 -10 CURVE SMOOTH"
);
}
);
width = 664;
},
{
anchors = (
{
name = bottom;
position = "{318, 0}";
},
{
name = top;
position = "{460, 700}";
}
);
color = 6;
layerId = "A0D8A2CD-35BA-4362-A7DB-C0E331BFD9A3";
paths = (
{
closed = 1;
nodes = (
"525 -10 OFFCURVE",
"689 85 OFFCURVE",
"726 265 CURVE SMOOTH",
"753 395 LINE SMOOTH",
"756 410 OFFCURVE",
"747 422 OFFCURVE",
"732 422 CURVE SMOOTH",
"457 422 LINE SMOOTH",
"442 422 OFFCURVE",
"427 410 OFFCURVE",
"424 395 CURVE SMOOTH",
"401 284 LINE SMOOTH",
"398 269 OFFCURVE",
"407 257 OFFCURVE",
"422 257 CURVE SMOOTH",
"469 257 LINE",
"469 256 LINE",
"458 205 OFFCURVE",
"419 185 OFFCURVE",
"369 185 CURVE SMOOTH",
"320 185 OFFCURVE",
"295 210 OFFCURVE",
"306 270 CURVE",
"316 327 OFFCURVE",
"328 385 OFFCURVE",
"342 440 CURVE",
"354 490 OFFCURVE",
"386 515 OFFCURVE",
"435 515 CURVE SMOOTH",
"484 515 OFFCURVE",
"493 486 OFFCURVE",
"498 476 CURVE SMOOTH",
"503 469 OFFCURVE",
"510 465 OFFCURVE",
"525 465 CURVE SMOOTH",
"746 465 LINE SMOOTH",
"758 465 OFFCURVE",
"770 475 OFFCURVE",
"773 487 CURVE SMOOTH",
"795 608 OFFCURVE",
"687 710 OFFCURVE",
"476 710 CURVE SMOOTH",
"279 710 OFFCURVE",
"127 622 OFFCURVE",
"83 445 CURVE",
"69 388 OFFCURVE",
"54 319 OFFCURVE",
"45 265 CURVE SMOOTH",
"13 79 OFFCURVE",
"121 -10 OFFCURVE",
"323 -10 CURVE SMOOTH"
);
}
);
width = 753;
}
);
leftKerningGroup = O;
rightKerningGroup = G;
unicode = 0047;
userData = {
com.typemytype.robofont.guides = (
{
angle = 0;
isGlobal = 0;
magnetic = 5;
x = 0;
y = "-10";
},
{
angle = 0;
isGlobal = 0;
magnetic = 5;
x = 0;
y = 260;
},
{
angle = 0;
isGlobal = 0;
magnetic = 5;
x = 0;
y = 440;
},
{
angle = 90;
isGlobal = 0;
magnetic = 5;
x = 334;
y = 0;
},
{
angle = 90;
isGlobal = 0;
magnetic = 5;
x = 133;
y = 0;
},
{
angle = 90;
isGlobal = 0;
magnetic = 5;
x = 604;
y = 0;
},
{
angle = 90;
isGlobal = 0;
magnetic = 5;
x = 67;
y = 0;
}
);
};
},
{
glyphname = H;
layers = (
{
anchors = (
{
name = bottom;
position = "{296, 0}";
},
{
name = center;
position = "{396, 545}";
},
{
name = top;
position = "{425, 700}";
},
{
name = topleft;
position = "{114, 700}";
}
);
color = 6;
layerId = UUID0;
paths = (
{
closed = 1;
nodes = (
"72 0 LINE SMOOTH",
"86 0 OFFCURVE",
"96 9 OFFCURVE",
"99 22 CURVE SMOOTH",
"164 325 LINE",
"550 325 LINE",
"485 22 LINE SMOOTH",
"482 9 OFFCURVE",
"490 0 OFFCURVE",
"503 0 CURVE SMOOTH",
"521 0 LINE SMOOTH",
"535 0 OFFCURVE",
"545 9 OFFCURVE",
"548 22 CURVE SMOOTH",
"687 677 LINE SMOOTH",
"690 691 OFFCURVE",
"683 700 OFFCURVE",
"669 700 CURVE SMOOTH",
"651 700 LINE",
"638 700 OFFCURVE",
"627 691 OFFCURVE",
"624 677 CURVE SMOOTH",
"562 385 LINE",
"176 385 LINE",
"238 677 LINE SMOOTH",
"241 691 OFFCURVE",
"234 700 OFFCURVE",
"220 700 CURVE SMOOTH",
"202 700 LINE SMOOTH",
"189 700 OFFCURVE",
"178 691 OFFCURVE",
"175 677 CURVE SMOOTH",
"36 22 LINE SMOOTH",
"33 9 OFFCURVE",
"41 0 OFFCURVE",
"54 0 CURVE SMOOTH"
);
}
);
width = 701;
},
{
anchors = (
{
name = bottom;
position = "{331, 0}";
},
{
name = center;
position = "{405, 350}";
},
{
name = top;
position = "{467, 700}";
},
{
name = topleft;
position = "{114, 700}";
}
);
color = 6;
layerId = "A0D8A2CD-35BA-4362-A7DB-C0E331BFD9A3";
paths = (
{
closed = 1;
nodes = (
"215 0 LINE SMOOTH",
"230 0 OFFCURVE",
"244 12 OFFCURVE",
"247 27 CURVE SMOOTH",
"293 243 LINE",
"455 243 LINE",
"409 27 LINE SMOOTH",
"406 12 OFFCURVE",
"416 0 OFFCURVE",
"431 0 CURVE SMOOTH",
"627 0 LINE SMOOTH",
"642 0 OFFCURVE",
"656 12 OFFCURVE",
"659 27 CURVE SMOOTH",
"797 673 LINE SMOOTH",
"800 688 OFFCURVE",
"790 700 OFFCURVE",
"775 700 CURVE SMOOTH",
"579 700 LINE SMOOTH",
"564 700 OFFCURVE",
"550 688 OFFCURVE",
"547 673 CURVE SMOOTH",
"502 463 LINE",
"340 463 LINE",
"385 673 LINE SMOOTH",
"388 688 OFFCURVE",
"378 700 OFFCURVE",
"363 700 CURVE SMOOTH",
"167 700 LINE SMOOTH",
"152 700 OFFCURVE",
"138 688 OFFCURVE",
"135 673 CURVE SMOOTH",
"-3 27 LINE SMOOTH",
"-6 11 OFFCURVE",
"4 0 OFFCURVE",
"19 0 CURVE SMOOTH"
);
}
);
width = 771;
}
);
leftKerningGroup = I;
rightKerningGroup = I;
unicode = 0048;
userData = {
com.typemytype.robofont.guides = (
{
angle = 0;
isGlobal = 0;
magnetic = 5;
x = 0;
y = 350;
},
{
angle = 0;
isGlobal = 0;
magnetic = 5;
x = 0;
y = 9;
},
{
angle = 0;
isGlobal = 0;
magnetic = 5;
x = 0;
y = 691;
},
{
angle = 90;
isGlobal = 0;
magnetic = 5;
x = 94;
y = 0;
},
{
angle = 90;
isGlobal = 0;
magnetic = 5;
x = 139;
y = 0;
},
{
angle = 90;
isGlobal = 0;
magnetic = 5;
x = 543;
y = 0;
},
{
angle = 90;
isGlobal = 0;
magnetic = 5;
x = 588;
y = 0;
}
);
};
},
{
glyphname = Hbar;
layers = (
{
color = 3;
components = (
{
name = H;
}
);
layerId = UUID0;
paths = (
{
closed = 1;
nodes = (
"714 511 LINE SMOOTH",
"728 511 OFFCURVE",
"739 520 OFFCURVE",
"742 533 CURVE SMOOTH",
"745 548 LINE SMOOTH",
"748 562 OFFCURVE",
"741 571 OFFCURVE",
"727 571 CURVE SMOOTH",
"100 571 LINE SMOOTH",
"87 571 OFFCURVE",
"76 562 OFFCURVE",
"73 548 CURVE SMOOTH",
"70 533 LINE SMOOTH",
"67 520 OFFCURVE",
"74 511 OFFCURVE",
"87 511 CURVE SMOOTH"
);
}
);
width = 710;
},
{
color = 3;
components = (
{
name = H;
}
);
layerId = "A0D8A2CD-35BA-4362-A7DB-C0E331BFD9A3";
paths = (
{
closed = 1;
nodes = (
"725 521 LINE SMOOTH",
"740 521 OFFCURVE",
"755 533 OFFCURVE",
"758 548 CURVE SMOOTH",
"772 616 LINE SMOOTH",
"775 631 OFFCURVE",
"766 643 OFFCURVE",
"751 643 CURVE SMOOTH",
"157 643 LINE SMOOTH",
"142 643 OFFCURVE",
"127 631 OFFCURVE",
"124 616 CURVE SMOOTH",
"110 548 LINE SMOOTH",
"107 533 OFFCURVE",
"116 521 OFFCURVE",
"131 521 CURVE SMOOTH"
);
}
);
width = 771;
}
);
leftKerningGroup = I;
rightKerningGroup = I;
unicode = 0126;
},
{
glyphname = I;
layers = (
{
anchors = (
{
name = bottom;
position = "{64, 0}";
},
{
name = ogonek;
position = "{105, 57}";
},
{
name = top;
position = "{210, 700}";
},
{
name = topleft;
position = "{114, 700}";
}
);
color = 6;
layerId = UUID0;
paths = (
{
closed = 1;
nodes = (
"73 0 LINE SMOOTH",
"86 0 OFFCURVE",
"96 9 OFFCURVE",
"99 22 CURVE SMOOTH",
"239 678 LINE",
"241 691 OFFCURVE",
"234 700 OFFCURVE",
"221 700 CURVE SMOOTH",
"202 700 LINE SMOOTH",
"189 700 OFFCURVE",
"178 691 OFFCURVE",
"176 678 CURVE",
"35 22 LINE SMOOTH",
"32 9 OFFCURVE",
"40 0 OFFCURVE",
"53 0 CURVE SMOOTH"
);
}
);
width = 252;
},
{
anchors = (
{
name = bottom;
position = "{129, 0}";
},
{
name = ogonek;
position = "{265, 122}";
},
{
name = top;
position = "{275, 700}";
},
{
name = topleft;
position = "{114, 700}";
}
);
color = 6;
layerId = "A0D8A2CD-35BA-4362-A7DB-C0E331BFD9A3";
paths = (
{
closed = 1;
nodes = (
"223 0 LINE SMOOTH",
"238 0 OFFCURVE",
"252 12 OFFCURVE",
"255 27 CURVE SMOOTH",
"393 673 LINE SMOOTH",
"396 688 OFFCURVE",
"386 700 OFFCURVE",
"371 700 CURVE SMOOTH",
"167 700 LINE SMOOTH",
"152 700 OFFCURVE",
"138 688 OFFCURVE",
"135 673 CURVE SMOOTH",
"-3 27 LINE SMOOTH",
"-6 12 OFFCURVE",
"4 0 OFFCURVE",
"19 0 CURVE SMOOTH"
);
}
);
width = 367;
}
);
leftKerningGroup = I;
rightKerningGroup = I;
unicode = 0049;
userData = {
com.typemytype.robofont.guides = (
{
angle = 90;
isGlobal = 0;
magnetic = 5;
x = 85;
y = 0;
},
{
angle = 90;
isGlobal = 0;
magnetic = 5;
x = 148;
y = 0;
}
);
};
},
{
glyphname = IJ;
layers = (
{
color = 6;
layerId = UUID0;
paths = (
{
closed = 1;
nodes = (
"381 -10 OFFCURVE",
"460 99 OFFCURVE",
"493 255 CURVE SMOOTH",
"582 677 LINE SMOOTH",
"585 691 OFFCURVE",
"578 700 OFFCURVE",
"564 700 CURVE SMOOTH",
"546 700 LINE SMOOTH",
"533 700 OFFCURVE",
"522 691 OFFCURVE",
"520 678 CURVE SMOOTH",
"430 256 LINE SMOOTH",
"404 135 OFFCURVE",
"324 50 OFFCURVE",
"207 50 CURVE SMOOTH",
"194 50 OFFCURVE",
"183 41 OFFCURVE",
"180 27 CURVE SMOOTH",
"177 12 LINE SMOOTH",
"174 -1 OFFCURVE",
"181 -10 OFFCURVE",
"194 -10 CURVE SMOOTH"
);
},
{
closed = 1;
nodes = (
"73 0 LINE SMOOTH",
"86 0 OFFCURVE",
"96 9 OFFCURVE",
"99 22 CURVE SMOOTH",
"239 678 LINE SMOOTH",
"241 691 OFFCURVE",
"234 700 OFFCURVE",
"221 700 CURVE SMOOTH",
"202 700 LINE SMOOTH",
"189 700 OFFCURVE",
"178 691 OFFCURVE",
"176 678 CURVE SMOOTH",
"36 22 LINE SMOOTH",
"33 9 OFFCURVE",
"41 0 OFFCURVE",
"54 0 CURVE SMOOTH"
);
}
);
width = 590;
},
{
color = 6;
layerId = "A0D8A2CD-35BA-4362-A7DB-C0E331BFD9A3";
paths = (
{
closed = 1;
nodes = (
"592 -10 OFFCURVE",
"704 45 OFFCURVE",
"749 258 CURVE SMOOTH",
"838 673 LINE SMOOTH",
"841 688 OFFCURVE",
"831 700 OFFCURVE",
"816 700 CURVE SMOOTH",
"611 700 LINE SMOOTH",
"596 700 OFFCURVE",
"582 688 OFFCURVE",
"579 673 CURVE",
"499 298 LINE SMOOTH",
"484 227 OFFCURVE",
"456 205 OFFCURVE",
"400 205 CURVE SMOOTH",
"385 205 OFFCURVE",
"371 193 OFFCURVE",
"367 178 CURVE SMOOTH",
"333 17 LINE SMOOTH",
"330 2 OFFCURVE",
"339 -10 OFFCURVE",
"354 -10 CURVE SMOOTH"
);
},
{
closed = 1;
nodes = (
"223 0 LINE SMOOTH",
"238 0 OFFCURVE",
"252 12 OFFCURVE",
"255 27 CURVE SMOOTH",
"393 673 LINE SMOOTH",
"396 688 OFFCURVE",
"386 700 OFFCURVE",
"371 700 CURVE SMOOTH",
"167 700 LINE SMOOTH",
"152 700 OFFCURVE",
"138 688 OFFCURVE",
"135 673 CURVE SMOOTH",
"-3 27 LINE SMOOTH",
"-6 12 OFFCURVE",
"4 0 OFFCURVE",
"19 0 CURVE SMOOTH"
);
}
);
width = 807;
}
);
leftKerningGroup = I;
unicode = 0132;
userData = {
com.typemytype.robofont.guides = (
{
angle = 90;
isGlobal = 0;
magnetic = 5;
x = 642;
y = 0;
}
);
};
},
{
glyphname = Iogonek;
layers = (
{
color = 6;
layerId = UUID0;
paths = (
{
closed = 1;
nodes = (
"57 -220 LINE SMOOTH",
"70 -220 OFFCURVE",
"81 -211 OFFCURVE",
"84 -198 CURVE SMOOTH",
"87 -185 LINE SMOOTH",
"90 -172 OFFCURVE",
"83 -163 OFFCURVE",
"70 -163 CURVE SMOOTH",
"55 -163 LINE SMOOTH",
"11 -163 OFFCURVE",
"-15 -133 OFFCURVE",
"-4 -82 CURVE SMOOTH",
"7 -31 OFFCURVE",
"45 0 OFFCURVE",
"89 0 CURVE SMOOTH",
"104 0 LINE SMOOTH",
"117 0 OFFCURVE",
"128 9 OFFCURVE",
"131 22 CURVE SMOOTH",
"270 678 LINE SMOOTH",
"273 691 OFFCURVE",
"266 700 OFFCURVE",
"253 700 CURVE SMOOTH",
"234 700 LINE SMOOTH",
"221 700 OFFCURVE",
"210 691 OFFCURVE",
"207 678 CURVE SMOOTH",
"79 74 LINE",
"78 71 OFFCURVE",
"77 67 OFFCURVE",
"77 64 CURVE",
"75 55 LINE",
"5 46 OFFCURVE",
"-48 -5 OFFCURVE",
"-64 -82 CURVE SMOOTH",
"-82 -167 OFFCURVE",
"-43 -220 OFFCURVE",
"38 -220 CURVE SMOOTH"
);
}
);
width = 269;
},
{
color = 6;
hints = (
{
horizontal = 1;
place = "{0, 0}";
type = Tag;
}
);
layerId = "A0D8A2CD-35BA-4362-A7DB-C0E331BFD9A3";
paths = (
{
closed = 1;
nodes = (
"190 -222 LINE SMOOTH",
"205 -222 OFFCURVE",
"220 -210 OFFCURVE",
"223 -195 CURVE SMOOTH",
"237 -127 LINE SMOOTH",
"240 -112 OFFCURVE",
"231 -100 OFFCURVE",
"216 -100 CURVE SMOOTH",
"206 -100 LINE",
"167 -100 OFFCURVE",
"162 -71 OFFCURVE",
"167 -50 CURVE SMOOTH",
"171 -29 OFFCURVE",
"188 0 OFFCURVE",
"227 0 CURVE SMOOTH",
"237 0 LINE SMOOTH",
"252 0 OFFCURVE",
"267 12 OFFCURVE",
"270 27 CURVE SMOOTH",
"407 673 LINE SMOOTH",
"410 688 OFFCURVE",
"401 700 OFFCURVE",
"386 700 CURVE SMOOTH",
"182 700 LINE SMOOTH",
"167 700 OFFCURVE",
"152 688 OFFCURVE",
"149 673 CURVE SMOOTH",
"12 27 LINE SMOOTH",
"9 12 OFFCURVE",
"18 0 OFFCURVE",
"33 0 CURVE SMOOTH",
"56 0 LINE",
"50 -16 OFFCURVE",
"44 -32 OFFCURVE",
"41 -50 CURVE SMOOTH",
"20 -145 OFFCURVE",
"55 -222 OFFCURVE",
"176 -222 CURVE SMOOTH"
);
}
);
width = 368;
}
);
leftKerningGroup = I;
rightKerningGroup = I;
unicode = 012E;
userData = {
com.typemytype.robofont.guides = (
{
angle = 90;
isGlobal = 0;
magnetic = 5;
x = 110;
y = 0;
}
);
};
},
{
glyphname = J;
layers = (
{
anchors = (
{
name = bottom;
position = "{252, 0}";
},
{
name = top;
position = "{390, 700}";
}
);
color = 6;
layerId = UUID0;
paths = (
{
closed = 1;
nodes = (
"403 -10 OFFCURVE",
"484 99 OFFCURVE",
"517 255 CURVE",
"606 677 LINE SMOOTH",
"609 691 OFFCURVE",
"602 700 OFFCURVE",
"588 700 CURVE SMOOTH",
"179 700 LINE SMOOTH",
"166 700 OFFCURVE",
"155 691 OFFCURVE",
"153 678 CURVE",
"149 662 LINE SMOOTH",
"146 649 OFFCURVE",
"154 640 OFFCURVE",
"167 640 CURVE SMOOTH",
"535 640 LINE",
"453 256 LINE SMOOTH",
"427 135 OFFCURVE",
"358 50 OFFCURVE",
"226 50 CURVE SMOOTH",
"129 50 OFFCURVE",
"68 91 OFFCURVE",
"82 195 CURVE SMOOTH",
"84 207 OFFCURVE",
"77 216 OFFCURVE",
"64 216 CURVE SMOOTH",
"42 216 LINE SMOOTH",
"28 216 OFFCURVE",
"21 206 OFFCURVE",
"19 194 CURVE SMOOTH",
"0 52 OFFCURVE",
"106 -10 OFFCURVE",
"226 -10 CURVE SMOOTH"
);
}
);
width = 614;
},
{
anchors = (
{
name = bottom;
position = "{294, 0}";
},
{
name = top;
position = "{443, 700}";
}
);
color = 6;
layerId = "A0D8A2CD-35BA-4362-A7DB-C0E331BFD9A3";
paths = (
{
closed = 1;
nodes = (
"490 -10 OFFCURVE",
"602 73 OFFCURVE",
"641 258 CURVE SMOOTH",
"730 673 LINE SMOOTH",
"733 688 OFFCURVE",
"723 700 OFFCURVE",
"708 700 CURVE SMOOTH",
"179 700 LINE SMOOTH",
"164 700 OFFCURVE",
"150 688 OFFCURVE",
"147 673 CURVE SMOOTH",
"115 524 LINE SMOOTH",
"112 509 OFFCURVE",
"121 497 OFFCURVE",
"136 497 CURVE SMOOTH",
"433 497 LINE",
"384 266 LINE SMOOTH",
"371 205 OFFCURVE",
"344 185 OFFCURVE",
"308 185 CURVE SMOOTH",
"275 185 OFFCURVE",
"266 198 OFFCURVE",
"258 225 CURVE SMOOTH",
"253 247 OFFCURVE",
"246 257 OFFCURVE",
"224 257 CURVE SMOOTH",
"20 257 LINE SMOOTH",
"8 257 OFFCURVE",
"-4 247 OFFCURVE",
"-7 235 CURVE SMOOTH",
"-37 78 OFFCURVE",
"143 -10 OFFCURVE",
"288 -10 CURVE SMOOTH"
);
}
);
width = 698;
}
);
leftKerningGroup = J;
rightKerningGroup = U;
unicode = 004A;
userData = {
com.typemytype.robofont.guides = (
{
angle = 0;
isGlobal = 0;
magnetic = 5;
x = 0;
y = "-10";
},
{
angle = 0;
isGlobal = 0;
magnetic = 5;
x = 0;
y = 133;
},
{
angle = 0;
isGlobal = 0;
magnetic = 5;
x = 0;
y = 677;
},
{
angle = 90;
isGlobal = 0;
magnetic = 5;
x = 303;
y = 0;
},
{
angle = 90;
isGlobal = 0;
magnetic = 5;
x = 60;
y = 0;
},
{
angle = 90;
isGlobal = 0;
magnetic = 5;
x = 91;
y = 0;
}
);
};
},
{
glyphname = K;
layers = (
{
anchors = (
{
name = bottom;
position = "{233, 0}";
},
{
name = top;
position = "{375, 700}";
}
);
color = 6;
layerId = UUID0;
paths = (
{
closed = 1;
nodes = (
"74 0 LINE",
"88 0 OFFCURVE",
"96 9 OFFCURVE",
"99 22 CURVE",
"162 318 LINE",
"422 15 LINE SMOOTH",
"426 10 OFFCURVE",
"434 0 OFFCURVE",
"455 0 CURVE",
"473 0 LINE",
"488 0 OFFCURVE",
"501 17 OFFCURVE",
"487 34 CURVE SMOOTH",
"203 365 LINE",
"588 666 LINE SMOOTH",
"600 675 OFFCURVE",
"594 700 OFFCURVE",
"574 700 CURVE",
"556 700 LINE",
"533 700 OFFCURVE",
"521 689 OFFCURVE",
"516 685 CURVE",
"186 427 LINE",
"238 677 LINE",
"241 691 OFFCURVE",
"234 700 OFFCURVE",
"220 700 CURVE",
"200 700 LINE SMOOTH",
"187 700 OFFCURVE",
"178 691 OFFCURVE",
"175 677 CURVE SMOOTH",
"36 22 LINE",
"33 9 OFFCURVE",
"41 0 OFFCURVE",
"54 0 CURVE"
);
}
);
width = 562;
},
{
anchors = (
{
name = bottom;
position = "{305, 0}";
},
{
name = top;
position = "{450, 700}";
}
);
color = 6;
layerId = "A0D8A2CD-35BA-4362-A7DB-C0E331BFD9A3";
paths = (
{
closed = 1;
nodes = (
"210 0 LINE SMOOTH",
"225 0 OFFCURVE",
"239 12 OFFCURVE",
"242 27 CURVE SMOOTH",
"288 241 LINE",
"373 23 LINE",
"378 10 OFFCURVE",
"389 0 OFFCURVE",
"410 0 CURVE SMOOTH",
"623 0 LINE SMOOTH",
"638 0 OFFCURVE",
"657 15 OFFCURVE",
"649 33 CURVE SMOOTH",
"517 344 LINE",
"776 667 LINE SMOOTH",
"787 680 OFFCURVE",
"782 700 OFFCURVE",
"764 700 CURVE SMOOTH",
"538 700 LINE SMOOTH",
"516 700 OFFCURVE",
"502 689 OFFCURVE",
"494 678 CURVE",
"337 475 LINE",
"380 673 LINE SMOOTH",
"383 688 OFFCURVE",
"373 700 OFFCURVE",
"358 700 CURVE SMOOTH",
"167 700 LINE SMOOTH",
"152 700 OFFCURVE",
"138 688 OFFCURVE",
"135 673 CURVE SMOOTH",
"-3 27 LINE SMOOTH",
"-6 12 OFFCURVE",
"4 0 OFFCURVE",
"19 0 CURVE SMOOTH"
);
}
);
width = 712;
}
);
leftKerningGroup = I;
rightKerningGroup = K;
unicode = 004B;
userData = {
com.typemytype.robofont.guides = (
{
angle = 0;
isGlobal = 0;
magnetic = 5;
x = 0;
y = 365;
},
{
angle = 90;
isGlobal = 0;
magnetic = 5;
x = 547;
y = 0;
},
{
angle = 90;
isGlobal = 0;
magnetic = 5;
x = 94;
y = 0;
},
{
angle = 90;
isGlobal = 0;
magnetic = 5;
x = 139;
y = 0;
}
);
};
},
{
glyphname = L;
layers = (
{
anchors = (
{
name = bottom;
position = "{238, 0}";
},
{
name = center;
position = "{289, 350}";
},
{
name = top;
position = "{211, 700}";
},
{
name = topright;
position = "{614, 700}";
}
);
color = 6;
layerId = UUID0;
paths = (
{
closed = 1;
nodes = (
"440 0 LINE SMOOTH",
"454 0 OFFCURVE",
"464 9 OFFCURVE",
"467 22 CURVE SMOOTH",
"470 37 LINE SMOOTH",
"473 51 OFFCURVE",
"466 60 OFFCURVE",
"452 60 CURVE SMOOTH",
"107 60 LINE",
"239 678 LINE",
"241 691 OFFCURVE",
"234 700 OFFCURVE",
"221 700 CURVE SMOOTH",
"202 700 LINE SMOOTH",
"189 700 OFFCURVE",
"178 691 OFFCURVE",
"176 678 CURVE",
"36 22 LINE SMOOTH",
"33 9 OFFCURVE",
"41 0 OFFCURVE",
"54 0 CURVE SMOOTH"
);
}
);
width = 540;
},
{
anchors = (
{
name = bottom;
position = "{257, 0}";
},
{
name = center;
position = "{331, 350}";
},
{
name = top;
position = "{276, 700}";
},
{
name = topright;
position = "{697, 700}";
}
);
color = 6;
layerId = "A0D8A2CD-35BA-4362-A7DB-C0E331BFD9A3";
paths = (
{
closed = 1;
nodes = (
"523 0 LINE SMOOTH",
"538 0 OFFCURVE",
"552 12 OFFCURVE",
"555 27 CURVE SMOOTH",
"587 178 LINE SMOOTH",
"590 193 OFFCURVE",
"581 205 OFFCURVE",
"566 205 CURVE SMOOTH",
"289 205 LINE",
"389 673 LINE SMOOTH",
"392 688 OFFCURVE",
"382 700 OFFCURVE",
"367 700 CURVE SMOOTH",
"167 700 LINE SMOOTH",
"152 700 OFFCURVE",
"138 688 OFFCURVE",
"135 673 CURVE SMOOTH",
"-3 27 LINE SMOOTH",
"-6 12 OFFCURVE",
"4 0 OFFCURVE",
"19 0 CURVE SMOOTH"
);
}
);
width = 623;
}
);
leftKerningGroup = I;
rightKerningGroup = L;
unicode = 004C;
},
{
glyphname = Lslash;
layers = (
{
color = 6;
layerId = UUID0;
paths = (
{
closed = 1;
nodes = (
"449 0 LINE SMOOTH",
"462 0 OFFCURVE",
"472 9 OFFCURVE",
"475 22 CURVE SMOOTH",
"479 38 LINE SMOOTH",
"481 51 OFFCURVE",
"474 60 OFFCURVE",
"461 60 CURVE SMOOTH",
"115 60 LINE",
"170 317 LINE",
"338 377 LINE SMOOTH",
"355 383 OFFCURVE",
"362 387 OFFCURVE",
"365 402 CURVE SMOOTH",
"369 421 LINE SMOOTH",
"372 433 OFFCURVE",
"365 439 OFFCURVE",
"354 439 CURVE SMOOTH",
"350 439 OFFCURVE",
"346 438 OFFCURVE",
"340 436 CURVE SMOOTH",
"183 380 LINE",
"247 678 LINE SMOOTH",
"249 691 OFFCURVE",
"242 700 OFFCURVE",
"229 700 CURVE SMOOTH",
"210 700 LINE SMOOTH",
"197 700 OFFCURVE",
"186 691 OFFCURVE",
"184 678 CURVE SMOOTH",
"115 355 LINE",
"41 329 LINE SMOOTH",
"24 323 OFFCURVE",
"17 319 OFFCURVE",
"14 304 CURVE SMOOTH",
"10 285 LINE SMOOTH",
"8 273 OFFCURVE",
"14 267 OFFCURVE",
"25 267 CURVE SMOOTH",
"29 267 OFFCURVE",
"33 268 OFFCURVE",
"39 270 CURVE SMOOTH",
"102 292 LINE",
"44 22 LINE SMOOTH",
"41 9 OFFCURVE",
"49 0 OFFCURVE",
"62 0 CURVE SMOOTH"
);
}
);
width = 548;
},
{
color = 6;
layerId = "A0D8A2CD-35BA-4362-A7DB-C0E331BFD9A3";
paths = (
{
closed = 1;
nodes = (
"531 0 LINE SMOOTH",
"546 0 OFFCURVE",
"560 12 OFFCURVE",
"563 27 CURVE SMOOTH",
"595 178 LINE SMOOTH",
"599 193 OFFCURVE",
"589 205 OFFCURVE",
"574 205 CURVE SMOOTH",
"297 205 LINE",
"323 325 LINE",
"491 386 LINE SMOOTH",
"508 392 OFFCURVE",
"516 401 OFFCURVE",
"520 419 CURVE SMOOTH",
"543 527 LINE SMOOTH",
"545 539 OFFCURVE",
"538 548 OFFCURVE",
"526 548 CURVE SMOOTH",
"524 548 OFFCURVE",
"520 547 OFFCURVE",
"514 545 CURVE SMOOTH",
"357 488 LINE",
"397 673 LINE SMOOTH",
"400 688 OFFCURVE",
"390 700 OFFCURVE",
"375 700 CURVE SMOOTH",
"175 700 LINE SMOOTH",
"160 700 OFFCURVE",
"146 688 OFFCURVE",
"143 673 CURVE SMOOTH",
"82 388 LINE",
"52 377 LINE SMOOTH",
"34 371 OFFCURVE",
"26 362 OFFCURVE",
"23 344 CURVE SMOOTH",
"0 236 LINE SMOOTH",
"-3 224 OFFCURVE",
"4 215 OFFCURVE",
"16 215 CURVE SMOOTH",
"18 215 OFFCURVE",
"22 216 OFFCURVE",
"28 218 CURVE SMOOTH",
"47 225 LINE",
"5 27 LINE SMOOTH",
"2 12 OFFCURVE",
"12 0 OFFCURVE",
"27 0 CURVE SMOOTH"
);
}
);
width = 631;
}
);
leftKerningGroup = I;
rightKerningGroup = L;
unicode = 0141;
userData = {
com.typemytype.robofont.guides = (
{
angle = 0;
isGlobal = 0;
magnetic = 5;
x = 0;
y = 215;
},
{
angle = 0;
isGlobal = 0;
magnetic = 5;
x = 0;
y = 548;
},
{
angle = 0;
isGlobal = 0;
magnetic = 5;
x = 0;
y = 438;
},
{
angle = 0;
isGlobal = 0;
magnetic = 5;
x = 0;
y = 267;
},
{
angle = 0;
isGlobal = 0;
magnetic = 5;
x = 0;
y = 353;
},
{
angle = 90;
isGlobal = 0;
magnetic = 5;
x = 129;
y = 0;
},
{
angle = 90;
isGlobal = 0;
magnetic = 5;
x = 325;
y = 0;
},
{
angle = 90;
isGlobal = 0;
magnetic = 5;
x = "-5";
y = 0;
}
);
};
},
{
glyphname = M;
layers = (
{
anchors = (
{
name = bottom;
position = "{337, 0}";
},
{
name = top;
position = "{486, 700}";
}
);
color = 6;
layerId = UUID0;
paths = (
{
closed = 1;
nodes = (
"74 0 LINE SMOOTH",
"87 0 OFFCURVE",
"97 8 OFFCURVE",
"100 22 CURVE SMOOTH",
"217 574 LINE",
"333 188 LINE",
"337 175 OFFCURVE",
"344 168 OFFCURVE",
"360 168 CURVE",
"381 168 LINE",
"397 168 OFFCURVE",
"407 176 OFFCURVE",
"416 188 CURVE SMOOTH",
"678 548 LINE",
"566 22 LINE",
"563 9 OFFCURVE",
"571 0 OFFCURVE",
"584 0 CURVE SMOOTH",
"603 0 LINE SMOOTH",
"617 0 OFFCURVE",
"627 9 OFFCURVE",
"630 22 CURVE SMOOTH",
"769 677 LINE SMOOTH",
"772 691 OFFCURVE",
"765 700 OFFCURVE",
"751 700 CURVE SMOOTH",
"726 700 LINE SMOOTH",
"713 700 OFFCURVE",
"706 691 OFFCURVE",
"703 687 CURVE",
"381 245 LINE",
"248 687 LINE SMOOTH",
"247 691 OFFCURVE",
"242 700 OFFCURVE",
"229 700 CURVE SMOOTH",
"203 700 LINE SMOOTH",
"189 700 OFFCURVE",
"178 691 OFFCURVE",
"175 677 CURVE SMOOTH",
"36 22 LINE SMOOTH",
"33 9 OFFCURVE",
"41 0 OFFCURVE",
"55 0 CURVE SMOOTH"
);
}
);
width = 783;
},
{
anchors = (
{
name = bottom;
position = "{373, 0}";
},
{
name = top;
position = "{522, 700}";
}
);
color = 6;
layerId = "A0D8A2CD-35BA-4362-A7DB-C0E331BFD9A3";
paths = (
{
closed = 1;
nodes = (
"200 0 LINE SMOOTH",
"215 0 OFFCURVE",
"229 12 OFFCURVE",
"232 27 CURVE SMOOTH",
"290 301 LINE",
"334 193 LINE SMOOTH",
"338 182 OFFCURVE",
"345 168 OFFCURVE",
"365 168 CURVE SMOOTH",
"435 168 LINE SMOOTH",
"455 168 OFFCURVE",
"468 182 OFFCURVE",
"478 193 CURVE SMOOTH",
"566 301 LINE",
"508 27 LINE SMOOTH",
"505 12 OFFCURVE",
"515 0 OFFCURVE",
"530 0 CURVE SMOOTH",
"711 0 LINE SMOOTH",
"726 0 OFFCURVE",
"740 12 OFFCURVE",
"743 27 CURVE SMOOTH",
"881 673 LINE SMOOTH",
"884 688 OFFCURVE",
"874 700 OFFCURVE",
"859 700 CURVE SMOOTH",
"701 700 LINE SMOOTH",
"674 700 OFFCURVE",
"658 680 OFFCURVE",
"653 673 CURVE SMOOTH",
"457 433 LINE",
"363 673 LINE SMOOTH",
"360 680 OFFCURVE",
"352 700 OFFCURVE",
"325 700 CURVE SMOOTH",
"167 700 LINE SMOOTH",
"152 700 OFFCURVE",
"138 688 OFFCURVE",
"135 673 CURVE SMOOTH",
"-3 27 LINE SMOOTH",
"-6 12 OFFCURVE",
"4 0 OFFCURVE",
"19 0 CURVE SMOOTH"
);
}
);
width = 855;
}
);
leftKerningGroup = I;
rightKerningGroup = I;
unicode = 004D;
userData = {
com.typemytype.robofont.guides = (
{
angle = 0;
isGlobal = 0;
magnetic = 5;
x = 0;
y = 168;
},
{
angle = 0;
isGlobal = 0;
magnetic = 5;
x = 0;
y = 9;
},
{
angle = 0;
isGlobal = 0;
magnetic = 5;
x = 0;
y = 691;
},
{
angle = 90;
isGlobal = 0;
magnetic = 5;
x = 126;
y = 0;
},
{
angle = 90;
isGlobal = 0;
magnetic = 5;
x = 636;
y = 0;
}
);
};
},
{
glyphname = N;
layers = (
{
anchors = (
{
name = bottom;
position = "{289, 0}";
},
{
name = top;
position = "{421, 700}";
}
);
color = 6;
layerId = UUID0;
paths = (
{
closed = 1;
nodes = (
"73 0 LINE SMOOTH",
"87 0 OFFCURVE",
"97 9 OFFCURVE",
"100 22 CURVE SMOOTH",
"219 581 LINE",
"469 12 LINE SMOOTH",
"471 7 OFFCURVE",
"475 0 OFFCURVE",
"488 0 CURVE",
"508 0 LINE",
"521 0 OFFCURVE",
"531 9 OFFCURVE",
"534 23 CURVE",
"673 677 LINE",
"676 691 OFFCURVE",
"669 700 OFFCURVE",
"655 700 CURVE",
"637 700 LINE",
"624 700 OFFCURVE",
"613 691 OFFCURVE",
"610 677 CURVE",
"491 117 LINE",
"240 688 LINE SMOOTH",
"238 693 OFFCURVE",
"234 700 OFFCURVE",
"221 700 CURVE SMOOTH",
"201 700 LINE SMOOTH",
"188 700 OFFCURVE",
"178 691 OFFCURVE",
"175 677 CURVE",
"36 22 LINE SMOOTH",
"33 9 OFFCURVE",
"41 0 OFFCURVE",
"54 0 CURVE SMOOTH"
);
}
);
width = 687;
},
{
anchors = (
{
name = bottom;
position = "{315, 0}";
},
{
name = top;
position = "{446, 700}";
}
);
color = 6;
layerId = "A0D8A2CD-35BA-4362-A7DB-C0E331BFD9A3";
paths = (
{
closed = 1;
nodes = (
"200 0 LINE SMOOTH",
"215 0 OFFCURVE",
"229 12 OFFCURVE",
"232 27 CURVE SMOOTH",
"286 278 LINE",
"400 23 LINE SMOOTH",
"403 17 OFFCURVE",
"410 0 OFFCURVE",
"437 0 CURVE SMOOTH",
"595 0 LINE SMOOTH",
"610 0 OFFCURVE",
"624 12 OFFCURVE",
"627 27 CURVE SMOOTH",
"765 673 LINE SMOOTH",
"768 688 OFFCURVE",
"758 700 OFFCURVE",
"743 700 CURVE SMOOTH",
"562 700 LINE SMOOTH",
"547 700 OFFCURVE",
"533 688 OFFCURVE",
"530 673 CURVE SMOOTH",
"472 400 LINE",
"361 677 LINE SMOOTH",
"358 684 OFFCURVE",
"352 700 OFFCURVE",
"325 700 CURVE SMOOTH",
"167 700 LINE SMOOTH",
"152 700 OFFCURVE",
"138 688 OFFCURVE",
"135 673 CURVE SMOOTH",
"-3 27 LINE SMOOTH",
"-6 12 OFFCURVE",
"4 0 OFFCURVE",
"19 0 CURVE SMOOTH"
);
}
);
width = 739;
}
);
leftKerningGroup = I;
rightKerningGroup = I;
unicode = 004E;
userData = {
com.typemytype.robofont.guides = (
{
angle = 0;
isGlobal = 0;
magnetic = 5;
x = 0;
y = 9;
},
{
angle = 0;
isGlobal = 0;
magnetic = 5;
x = 0;
y = 691;
},
{
angle = 90;
isGlobal = 0;
magnetic = 5;
x = 540;
y = 0;
},
{
angle = 90;
isGlobal = 0;
magnetic = 5;
x = 125;
y = 0;
}
);
};
},
{
glyphname = Eng;
layers = (
{
color = 6;
layerId = UUID0;
paths = (
{
closed = 1;
nodes = (
"342 -225 LINE",
"467 -225 OFFCURVE",
"509 -151 OFFCURVE",
"529 -57 CURVE",
"685 677 LINE",
"688 691 OFFCURVE",
"681 700 OFFCURVE",
"667 700 CURVE",
"649 700 LINE",
"636 700 OFFCURVE",
"625 691 OFFCURVE",
"622 677 CURVE",
"505 124 LINE",
"255 688 LINE",
"254 691 OFFCURVE",
"250 700 OFFCURVE",
"237 700 CURVE",
"216 700 LINE",
"203 700 OFFCURVE",
"192 691 OFFCURVE",
"189 677 CURVE",
"50 22 LINE",
"47 9 OFFCURVE",
"54 0 OFFCURVE",
"67 0 CURVE",
"85 0 LINE",
"99 0 OFFCURVE",
"110 9 OFFCURVE",
"113 22 CURVE",
"230 574 LINE",
"480 8 LINE",
"466 -57 LINE",
"453 -118 OFFCURVE",
"431 -165 OFFCURVE",
"355 -165 CURVE",
"351 -165 LINE",
"338 -165 OFFCURVE",
"327 -174 OFFCURVE",
"324 -187 CURVE",
"321 -203 LINE",
"318 -216 OFFCURVE",
"325 -225 OFFCURVE",
"338 -225 CURVE"
);
}
);
width = 684;
},
{
color = 6;
hints = (
{
horizontal = 1;
place = "{0, 0}";
type = Tag;
}
);
layerId = "A0D8A2CD-35BA-4362-A7DB-C0E331BFD9A3";
paths = (
{
closed = 1;
nodes = (
"262 -225 LINE SMOOTH",
"444 -225 OFFCURVE",
"605 -145 OFFCURVE",
"642 26 CURVE SMOOTH",
"779 673 LINE SMOOTH",
"782 688 OFFCURVE",
"773 700 OFFCURVE",
"758 700 CURVE SMOOTH",
"577 700 LINE SMOOTH",
"562 700 OFFCURVE",
"547 688 OFFCURVE",
"544 673 CURVE SMOOTH",
"486 400 LINE",
"376 677 LINE SMOOTH",
"374 684 OFFCURVE",
"367 700 OFFCURVE",
"340 700 CURVE SMOOTH",
"182 700 LINE SMOOTH",
"167 700 OFFCURVE",
"152 688 OFFCURVE",
"149 673 CURVE SMOOTH",
"12 27 LINE SMOOTH",
"9 12 OFFCURVE",
"18 0 OFFCURVE",
"33 0 CURVE SMOOTH",
"214 0 LINE SMOOTH",
"229 0 OFFCURVE",
"244 12 OFFCURVE",
"247 27 CURVE SMOOTH",
"300 278 LINE",
"409 38 LINE",
"409 36 LINE",
"402 2 OFFCURVE",
"373 -22 OFFCURVE",
"330 -22 CURVE SMOOTH",
"290 -22 LINE SMOOTH",
"275 -22 OFFCURVE",
"260 -34 OFFCURVE",
"257 -49 CURVE",
"225 -198 LINE SMOOTH",
"222 -213 OFFCURVE",
"231 -225 OFFCURVE",
"246 -225 CURVE SMOOTH"
);
}
);
width = 740;
}
);
leftKerningGroup = I;
rightKerningGroup = I;
unicode = 014A;
},
{
glyphname = O;
layers = (
{
anchors = (
{
name = bottom;
position = "{276, 0}";
},
{
name = center;
position = "{350, 350}";
},
{
name = ogonek;
position = "{543, 10}";
},
{
name = top;
position = "{413, 700}";
},
{
name = topleft;
position = "{114, 700}";
},
{
name = topright;
position = "{736, 700}";
}
);
color = 6;
layerId = UUID0;
paths = (
{
closed = 1;
nodes = (
"428 -10 OFFCURVE",
"543 77 OFFCURVE",
"588 266 CURVE SMOOTH",
"603 326 OFFCURVE",
"613 374 OFFCURVE",
"624 434 CURVE SMOOTH",
"658 620 OFFCURVE",
"568 710 OFFCURVE",
"412 710 CURVE SMOOTH",
"254 710 OFFCURVE",
"140 620 OFFCURVE",
"96 434 CURVE SMOOTH",
"81 374 OFFCURVE",
"71 326 OFFCURVE",
"60 266 CURVE SMOOTH",
"25 77 OFFCURVE",
"116 -10 OFFCURVE",
"272 -10 CURVE SMOOTH"
);
},
{
closed = 1;
nodes = (
"148 50 OFFCURVE",
"96 115 OFFCURVE",
"124 271 CURVE SMOOTH",
"135 331 OFFCURVE",
"143 369 OFFCURVE",
"158 429 CURVE SMOOTH",
"196 585 OFFCURVE",
"291 650 OFFCURVE",
"412 650 CURVE SMOOTH",
"535 650 OFFCURVE",
"588 585 OFFCURVE",
"560 429 CURVE SMOOTH",
"549 369 OFFCURVE",
"541 331 OFFCURVE",
"526 271 CURVE SMOOTH",
"488 115 OFFCURVE",
"391 50 OFFCURVE",
"272 50 CURVE SMOOTH"
);
}
);
width = 662;
},
{
anchors = (
{
name = bottom;
position = "{316, 0}";
},
{
name = center;
position = "{390, 350}";
},
{
name = ogonek;
position = "{615, 10}";
},
{
name = top;
position = "{453, 700}";
},
{
name = topleft;
position = "{114, 700}";
},
{
name = topright;
position = "{816, 700}";
}
);
color = 6;
layerId = "A0D8A2CD-35BA-4362-A7DB-C0E331BFD9A3";
paths = (
{
closed = 1;
nodes = (
"542 -10 OFFCURVE",
"652 81 OFFCURVE",
"698 260 CURVE SMOOTH",
"711 314 OFFCURVE",
"725 379 OFFCURVE",
"735 436 CURVE SMOOTH",
"765 611 OFFCURVE",
"615 710 OFFCURVE",
"439 710 CURVE SMOOTH",
"223 710 OFFCURVE",
"111 611 OFFCURVE",
"67 436 CURVE SMOOTH",
"53 379 OFFCURVE",
"39 314 OFFCURVE",
"30 260 CURVE SMOOTH",
"0 81 OFFCURVE",
"150 -10 OFFCURVE",
"326 -10 CURVE SMOOTH"
);
},
{
closed = 1;
nodes = (
"304 185 OFFCURVE",
"281 210 OFFCURVE",
"291 266 CURVE SMOOTH",
"301 323 OFFCURVE",
"313 379 OFFCURVE",
"327 434 CURVE SMOOTH",
"341 490 OFFCURVE",
"375 515 OFFCURVE",
"418 515 CURVE SMOOTH",
"461 515 OFFCURVE",
"485 490 OFFCURVE",
"475 434 CURVE SMOOTH",
"465 379 OFFCURVE",
"453 323 OFFCURVE",
"439 266 CURVE SMOOTH",
"425 210 OFFCURVE",
"392 185 OFFCURVE",
"348 185 CURVE SMOOTH"
);
}
);
width = 742;
}
);
leftKerningGroup = O;
rightKerningGroup = O;
unicode = 004F;
userData = {
com.typemytype.robofont.guides = (
{
angle = 0;
isGlobal = 0;
magnetic = 5;
x = 0;
y = "-10";
},
{
angle = 0;
isGlobal = 0;
magnetic = 5;
x = 0;
y = 710;
},
{
angle = 0;
isGlobal = 0;
magnetic = 5;
x = 0;
y = 335;
},
{
angle = 0;
isGlobal = 0;
magnetic = 5;
x = 0;
y = 434;
},
{
angle = 0;
isGlobal = 0;
magnetic = 5;
x = 0;
y = 266;
},
{
angle = 90;
isGlobal = 0;
magnetic = 5;
x = 496;
y = 0;
}
);
};
},
{
glyphname = OE;
layers = (
{
anchors = (
{
name = bottom;
position = "{394, 0}";
},
{
name = top;
position = "{543, 700}";
}
);
color = 6;
layerId = UUID0;
paths = (
{
closed = 1;
nodes = (
"759 0 LINE",
"773 0 OFFCURVE",
"783 9 OFFCURVE",
"786 22 CURVE",
"789 37 LINE",
"792 51 OFFCURVE",
"785 60 OFFCURVE",
"771 60 CURVE",
"454 60 LINE",
"511 325 LINE",
"798 325 LINE",
"812 325 OFFCURVE",
"822 334 OFFCURVE",
"825 347 CURVE",
"828 362 LINE",
"831 376 OFFCURVE",
"824 385 OFFCURVE",
"810 385 CURVE",
"523 385 LINE",
"578 640 LINE",
"887 640 LINE",
"901 640 OFFCURVE",
"911 649 OFFCURVE",
"914 662 CURVE",
"917 677 LINE",
"920 691 OFFCURVE",
"913 700 OFFCURVE",
"899 700 CURVE",
"417 700 LINE",
"218 700 OFFCURVE",
"140 613 OFFCURVE",
"97 429 CURVE SMOOTH",
"83 369 OFFCURVE",
"75 330 OFFCURVE",
"63 270 CURVE SMOOTH",
"29 96 OFFCURVE",
"112 0 OFFCURVE",
"294 0 CURVE"
);
},
{
closed = 1;
nodes = (
"141 60 OFFCURVE",
"99 129 OFFCURVE",
"127 275 CURVE SMOOTH",
"139 335 OFFCURVE",
"145 364 OFFCURVE",
"159 424 CURVE SMOOTH",
"195 580 OFFCURVE",
"261 640 OFFCURVE",
"420 640 CURVE",
"515 640 LINE",
"391 60 LINE",
"301 60 LINE"
);
}
);
width = 897;
},
{
anchors = (
{
name = bottom;
position = "{446, 0}";
},
{
name = top;
position = "{595, 700}";
}
);
color = 6;
layerId = "A0D8A2CD-35BA-4362-A7DB-C0E331BFD9A3";
paths = (
{
closed = 1;
nodes = (
"875 0 LINE",
"890 0 OFFCURVE",
"904 12 OFFCURVE",
"907 27 CURVE",
"937 168 LINE",
"940 183 OFFCURVE",
"931 195 OFFCURVE",
"916 195 CURVE",
"628 195 LINE",
"641 258 LINE",
"899 258 LINE",
"914 258 OFFCURVE",
"929 270 OFFCURVE",
"932 285 CURVE",
"960 415 LINE",
"963 430 OFFCURVE",
"953 442 OFFCURVE",
"938 442 CURVE",
"680 442 LINE",
"694 505 LINE",
"974 505 LINE",
"989 505 OFFCURVE",
"1003 517 OFFCURVE",
"1007 532 CURVE",
"1037 673 LINE",
"1040 688 OFFCURVE",
"1030 700 OFFCURVE",
"1015 700 CURVE",
"435 700 LINE",
"228 700 OFFCURVE",
"108 604 OFFCURVE",
"63 425 CURVE SMOOTH",
"49 368 OFFCURVE",
"41 330 OFFCURVE",
"31 276 CURVE SMOOTH",
"-1 87 OFFCURVE",
"151 0 OFFCURVE",
"322 0 CURVE"
);
},
{
closed = 1;
nodes = (
"304 195 OFFCURVE",
"276 220 OFFCURVE",
"285 276 CURVE SMOOTH",
"294 333 OFFCURVE",
"302 370 OFFCURVE",
"317 425 CURVE SMOOTH",
"332 481 OFFCURVE",
"374 505 OFFCURVE",
"419 505 CURVE",
"455 505 LINE",
"389 195 LINE",
"348 195 LINE"
);
}
);
width = 1001;
}
);
leftKerningGroup = O;
rightKerningGroup = E;
unicode = 0152;
userData = {
com.typemytype.robofont.guides = (
{
angle = 90;
isGlobal = 0;
magnetic = 5;
x = 842;
y = 0;
},
{
angle = 90;
isGlobal = 0;
magnetic = 5;
x = 66;
y = 0;
},
{
angle = 90;
isGlobal = 0;
magnetic = 5;
x = 439;
y = 0;
},
{
angle = 90;
isGlobal = 0;
magnetic = 5;
x = 502;
y = 0;
}
);
};
},
{
glyphname = P;
layers = (
{
anchors = (
{
name = bottom;
position = "{260, 0}";
},
{
name = top;
position = "{409, 700}";
}
);
color = 6;
layerId = UUID0;
paths = (
{
closed = 1;
nodes = (
"72 0 LINE SMOOTH",
"86 0 OFFCURVE",
"96 9 OFFCURVE",
"99 22 CURVE SMOOTH",
"155 286 LINE",
"363 286 LINE SMOOTH",
"506 286 OFFCURVE",
"602 357 OFFCURVE",
"631 493 CURVE SMOOTH",
"660 629 OFFCURVE",
"587 700 OFFCURVE",
"440 700 CURVE SMOOTH",
"202 700 LINE SMOOTH",
"189 700 OFFCURVE",
"178 691 OFFCURVE",
"175 677 CURVE SMOOTH",
"36 22 LINE SMOOTH",
"33 9 OFFCURVE",
"41 0 OFFCURVE",
"54 0 CURVE SMOOTH"
);
},
{
closed = 1;
nodes = (
"231 640 LINE",
"433 640 LINE SMOOTH",
"569 640 OFFCURVE",
"588 588 OFFCURVE",
"568 493 CURVE SMOOTH",
"548 398 OFFCURVE",
"467 346 OFFCURVE",
"358 346 CURVE SMOOTH",
"168 346 LINE"
);
}
);
width = 629;
},
{
anchors = (
{
name = bottom;
position = "{298, 0}";
},
{
name = top;
position = "{447, 700}";
}
);
color = 6;
layerId = "A0D8A2CD-35BA-4362-A7DB-C0E331BFD9A3";
paths = (
{
closed = 1;
nodes = (
"225 0 LINE SMOOTH",
"240 0 OFFCURVE",
"254 12 OFFCURVE",
"257 27 CURVE SMOOTH",
"298 218 LINE",
"388 218 LINE SMOOTH",
"579 218 OFFCURVE",
"684 289 OFFCURVE",
"719 455 CURVE SMOOTH",
"754 621 OFFCURVE",
"621 700 OFFCURVE",
"450 700 CURVE SMOOTH",
"167 700 LINE SMOOTH",
"152 700 OFFCURVE",
"138 688 OFFCURVE",
"135 673 CURVE SMOOTH",
"-3 27 LINE SMOOTH",
"-6 12 OFFCURVE",
"4 0 OFFCURVE",
"19 0 CURVE SMOOTH"
);
},
{
closed = 1;
nodes = (
"356 514 LINE",
"426 514 LINE SMOOTH",
"462 514 OFFCURVE",
"465 482 OFFCURVE",
"460 457 CURVE SMOOTH",
"451 418 OFFCURVE",
"423 403 OFFCURVE",
"402 403 CURVE SMOOTH",
"332 403 LINE"
);
}
);
width = 705;
}
);
leftKerningGroup = I;
unicode = 0050;
userData = {
com.typemytype.robofont.guides = (
{
angle = 0;
isGlobal = 0;
magnetic = 5;
x = 0;
y = 493;
},
{
angle = 0;
isGlobal = 0;
magnetic = 5;
x = 0;
y = 403;
},
{
angle = 0;
isGlobal = 0;
magnetic = 5;
x = 0;
y = 218;
},
{
angle = 0;
isGlobal = 0;
magnetic = 5;
x = 0;
y = 310;
},
{
angle = 0;
isGlobal = 0;
magnetic = 5;
x = 0;
y = 9;
},
{
angle = 0;
isGlobal = 0;
magnetic = 5;
x = 0;
y = 691;
},
{
angle = 90;
isGlobal = 0;
magnetic = 5;
x = 345;
y = 0;
},
{
angle = 90;
isGlobal = 0;
magnetic = 5;
x = 94;
y = 0;
},
{
angle = 90;
isGlobal = 0;
magnetic = 5;
x = 139;
y = 0;
}
);
};
},
{
glyphname = Thorn;
layers = (
{
anchors = (
{
name = bottom;
position = "{262, 0}";
},
{
name = top;
position = "{411, 700}";
}
);
color = 6;
layerId = UUID0;
paths = (
{
closed = 1;
nodes = (
"72 0 LINE",
"86 0 OFFCURVE",
"96 9 OFFCURVE",
"99 22 CURVE",
"125 143 LINE",
"333 143 LINE",
"476 143 OFFCURVE",
"572 214 OFFCURVE",
"601 350 CURVE SMOOTH",
"630 486 OFFCURVE",
"557 557 OFFCURVE",
"410 557 CURVE",
"213 557 LINE",
"239 678 LINE",
"241 691 OFFCURVE",
"234 700 OFFCURVE",
"221 700 CURVE",
"202 700 LINE",
"189 700 OFFCURVE",
"178 691 OFFCURVE",
"176 678 CURVE",
"36 22 LINE",
"33 9 OFFCURVE",
"41 0 OFFCURVE",
"54 0 CURVE"
);
},
{
closed = 1;
nodes = (
"200 497 LINE",
"403 497 LINE",
"539 497 OFFCURVE",
"558 445 OFFCURVE",
"538 350 CURVE SMOOTH",
"518 255 OFFCURVE",
"437 203 OFFCURVE",
"328 203 CURVE",
"138 203 LINE"
);
}
);
width = 633;
},
{
anchors = (
{
name = bottom;
position = "{297, 0}";
},
{
name = top;
position = "{446, 700}";
}
);
color = 6;
layerId = "A0D8A2CD-35BA-4362-A7DB-C0E331BFD9A3";
paths = (
{
closed = 1;
nodes = (
"225 0 LINE",
"240 0 OFFCURVE",
"254 12 OFFCURVE",
"257 27 CURVE",
"277 119 LINE",
"367 119 LINE",
"558 119 OFFCURVE",
"663 190 OFFCURVE",
"698 356 CURVE SMOOTH",
"733 522 OFFCURVE",
"600 601 OFFCURVE",
"429 601 CURVE",
"379 601 LINE",
"395 673 LINE",
"398 688 OFFCURVE",
"388 700 OFFCURVE",
"373 700 CURVE",
"167 700 LINE",
"152 700 OFFCURVE",
"138 688 OFFCURVE",
"135 673 CURVE",
"-3 27 LINE",
"-6 12 OFFCURVE",
"4 0 OFFCURVE",
"19 0 CURVE"
);
},
{
closed = 1;
nodes = (
"335 415 LINE",
"405 415 LINE",
"441 415 OFFCURVE",
"444 383 OFFCURVE",
"439 358 CURVE SMOOTH",
"430 319 OFFCURVE",
"402 304 OFFCURVE",
"381 304 CURVE",
"311 304 LINE"
);
}
);
width = 704;
}
);
leftKerningGroup = I;
unicode = 00DE;
userData = {
com.typemytype.robofont.guides = (
{
angle = 0;
isGlobal = 0;
magnetic = 5;
x = 0;
y = 119;
},
{
angle = 0;
isGlobal = 0;
magnetic = 5;
x = 0;
y = 601;
},
{
angle = 0;
isGlobal = 0;
magnetic = 5;
x = 0;
y = 570;
},
{
angle = 0;
isGlobal = 0;
magnetic = 5;
x = 0;
y = 350;
}
);
};
},
{
glyphname = Q;
layers = (
{
anchors = (
{
name = bottom;
position = "{276, 0}";
},
{
name = top;
position = "{425, 700}";
}
);
color = 6;
layerId = UUID0;
paths = (
{
closed = 1;
nodes = (
"506 -65 LINE",
"517 -65 OFFCURVE",
"528 -56 OFFCURVE",
"531 -45 CURVE SMOOTH",
"532 -39 OFFCURVE",
"531 -36 OFFCURVE",
"530 -34 CURVE",
"485 56 LINE",
"541 101 OFFCURVE",
"580 171 OFFCURVE",
"603 266 CURVE SMOOTH",
"618 326 OFFCURVE",
"628 374 OFFCURVE",
"638 434 CURVE SMOOTH",
"673 620 OFFCURVE",
"589 710 OFFCURVE",
"433 710 CURVE SMOOTH",
"277 710 OFFCURVE",
"155 620 OFFCURVE",
"110 434 CURVE SMOOTH",
"96 374 OFFCURVE",
"86 326 OFFCURVE",
"75 266 CURVE SMOOTH",
"40 77 OFFCURVE",
"114 -10 OFFCURVE",
"280 -10 CURVE SMOOTH",
"335 -10 OFFCURVE",
"383 0 OFFCURVE",
"426 19 CURVE",
"457 -42 LINE",
"462 -50 OFFCURVE",
"469 -65 OFFCURVE",
"484 -65 CURVE"
);
},
{
closed = 1;
nodes = (
"179 50 OFFCURVE",
"111 115 OFFCURVE",
"139 271 CURVE SMOOTH",
"150 331 OFFCURVE",
"158 369 OFFCURVE",
"172 429 CURVE SMOOTH",
"211 585 OFFCURVE",
"307 650 OFFCURVE",
"420 650 CURVE SMOOTH",
"533 650 OFFCURVE",
"603 585 OFFCURVE",
"574 429 CURVE SMOOTH",
"564 369 OFFCURVE",
"556 331 OFFCURVE",
"541 271 CURVE SMOOTH",
"503 115 OFFCURVE",
"407 50 OFFCURVE",
"293 50 CURVE SMOOTH"
);
}
);
width = 662;
},
{
anchors = (
{
name = bottom;
position = "{316, 0}";
},
{
name = top;
position = "{465, 700}";
}
);
color = 6;
hints = (
{
horizontal = 1;
place = "{0, 0}";
type = Tag;
}
);
layerId = "A0D8A2CD-35BA-4362-A7DB-C0E331BFD9A3";
paths = (
{
closed = 1;
nodes = (
"631 -65 LINE",
"643 -65 OFFCURVE",
"656 -55 OFFCURVE",
"656 -43 CURVE SMOOTH",
"657 -40 OFFCURVE",
"656 -36 OFFCURVE",
"655 -34 CURVE",
"600 79 LINE",
"652 123 OFFCURVE",
"690 184 OFFCURVE",
"710 260 CURVE SMOOTH",
"724 314 OFFCURVE",
"738 379 OFFCURVE",
"748 436 CURVE SMOOTH",
"778 611 OFFCURVE",
"668 710 OFFCURVE",
"472 710 CURVE SMOOTH",
"276 710 OFFCURVE",
"124 611 OFFCURVE",
"80 436 CURVE SMOOTH",
"66 379 OFFCURVE",
"52 314 OFFCURVE",
"42 260 CURVE SMOOTH",
"12 81 OFFCURVE",
"123 -10 OFFCURVE",
"319 -10 CURVE SMOOTH",
"339 -10 OFFCURVE",
"359 -9 OFFCURVE",
"378 -7 CURVE",
"398 -42 LINE",
"403 -50 OFFCURVE",
"410 -65 OFFCURVE",
"435 -65 CURVE"
);
},
{
closed = 1;
nodes = (
"317 185 OFFCURVE",
"294 210 OFFCURVE",
"304 266 CURVE SMOOTH",
"314 323 OFFCURVE",
"326 379 OFFCURVE",
"339 434 CURVE SMOOTH",
"353 490 OFFCURVE",
"388 515 OFFCURVE",
"431 515 CURVE SMOOTH",
"474 515 OFFCURVE",
"497 490 OFFCURVE",
"487 434 CURVE SMOOTH",
"478 379 OFFCURVE",
"466 323 OFFCURVE",
"452 266 CURVE SMOOTH",
"438 210 OFFCURVE",
"405 185 OFFCURVE",
"361 185 CURVE SMOOTH"
);
}
);
width = 742;
}
);
leftKerningGroup = O;
rightKerningGroup = O;
unicode = 0051;
userData = {
com.typemytype.robofont.guides = (
{
angle = 0;
isGlobal = 0;
magnetic = 5;
x = 0;
y = 710;
},
{
angle = 0;
isGlobal = 0;
magnetic = 5;
x = 0;
y = "-10";
},
{
angle = 0;
isGlobal = 0;
magnetic = 5;
x = 0;
y = "-56";
},
{
angle = 90;
isGlobal = 0;
magnetic = 5;
x = 82;
y = 0;
},
{
angle = 90;
isGlobal = 0;
magnetic = 5;
x = 750;
y = 0;
},
{
angle = 90;
isGlobal = 0;
magnetic = 5;
x = 580;
y = 0;
}
);
};
},
{
glyphname = R;
layers = (
{
anchors = (
{
name = bottom;
position = "{265, 0}";
},
{
name = top;
position = "{368, 700}";
}
);
color = 6;
layerId = UUID0;
paths = (
{
closed = 1;
nodes = (
"85 0 LINE SMOOTH",
"99 0 OFFCURVE",
"110 9 OFFCURVE",
"113 22 CURVE SMOOTH",
"171 296 LINE",
"377 296 LINE",
"479 27 LINE SMOOTH",
"484 13 OFFCURVE",
"489 0 OFFCURVE",
"511 0 CURVE SMOOTH",
"523 0 LINE SMOOTH",
"534 0 OFFCURVE",
"545 9 OFFCURVE",
"547 20 CURVE SMOOTH",
"548 24 OFFCURVE",
"548 27 OFFCURVE",
"547 31 CURVE SMOOTH",
"444 305 LINE",
"544 327 OFFCURVE",
"613 391 OFFCURVE",
"636 498 CURVE SMOOTH",
"665 634 OFFCURVE",
"589 700 OFFCURVE",
"449 700 CURVE SMOOTH",
"216 700 LINE SMOOTH",
"203 700 OFFCURVE",
"192 691 OFFCURVE",
"189 677 CURVE SMOOTH",
"50 22 LINE SMOOTH",
"47 9 OFFCURVE",
"54 0 OFFCURVE",
"67 0 CURVE SMOOTH"
);
},
{
closed = 1;
nodes = (
"244 640 LINE",
"431 640 LINE SMOOTH",
"547 640 OFFCURVE",
"593 593 OFFCURVE",
"573 498 CURVE SMOOTH",
"553 403 OFFCURVE",
"487 356 OFFCURVE",
"371 356 CURVE SMOOTH",
"184 356 LINE"
);
}
);
width = 640;
},
{
anchors = (
{
name = bottom;
position = "{310, 0}";
},
{
name = top;
position = "{430, 700}";
}
);
color = 6;
hints = (
{
horizontal = 1;
place = "{0, 0}";
type = Tag;
}
);
layerId = "A0D8A2CD-35BA-4362-A7DB-C0E331BFD9A3";
paths = (
{
closed = 1;
nodes = (
"229 0 LINE SMOOTH",
"244 0 OFFCURVE",
"259 12 OFFCURVE",
"262 27 CURVE SMOOTH",
"303 218 LINE",
"344 218 LINE",
"389 27 LINE SMOOTH",
"391 18 OFFCURVE",
"399 0 OFFCURVE",
"426 0 CURVE SMOOTH",
"631 0 LINE SMOOTH",
"643 0 OFFCURVE",
"655 10 OFFCURVE",
"658 22 CURVE SMOOTH",
"659 27 OFFCURVE",
"658 29 OFFCURVE",
"657 33 CURVE SMOOTH",
"583 261 LINE",
"654 301 OFFCURVE",
"713 367 OFFCURVE",
"732 457 CURVE SMOOTH",
"764 608 OFFCURVE",
"670 700 OFFCURVE",
"478 700 CURVE SMOOTH",
"182 700 LINE SMOOTH",
"167 700 OFFCURVE",
"152 688 OFFCURVE",
"149 673 CURVE SMOOTH",
"12 27 LINE SMOOTH",
"9 12 OFFCURVE",
"18 0 OFFCURVE",
"33 0 CURVE SMOOTH"
);
},
{
closed = 1;
nodes = (
"365 514 LINE",
"438 514 LINE SMOOTH",
"471 514 OFFCURVE",
"478 485 OFFCURVE",
"473 459 CURVE SMOOTH",
"467 432 OFFCURVE",
"447 408 OFFCURVE",
"416 408 CURVE SMOOTH",
"343 408 LINE"
);
}
);
width = 722;
}
);
leftKerningGroup = I;
rightKerningGroup = R;
unicode = 0052;
userData = {
com.typemytype.robofont.guides = (
{
angle = 0;
isGlobal = 0;
magnetic = 5;
x = 0;
y = 691;
},
{
angle = 0;
isGlobal = 0;
magnetic = 5;
x = 0;
y = 9;
},
{
angle = 90;
isGlobal = 0;
magnetic = 5;
x = 616;
y = 0;
},
{
angle = 90;
isGlobal = 0;
magnetic = 5;
x = 574;
y = 0;
},
{
angle = 90;
isGlobal = 0;
magnetic = 5;
x = 94;
y = 0;
},
{
angle = 90;
isGlobal = 0;
magnetic = 5;
x = 139;
y = 0;
}
);
};
},
{
glyphname = S;
layers = (
{
anchors = (
{
name = bottom;
position = "{246, 0}";
},
{
name = top;
position = "{376, 700}";
}
);
color = 6;
layerId = UUID0;
paths = (
{
closed = 1;
nodes = (
"399 -10 OFFCURVE",
"501 52 OFFCURVE",
"527 173 CURVE SMOOTH",
"550 283 OFFCURVE",
"489 329 OFFCURVE",
"350 377 CURVE SMOOTH",
"216 423 OFFCURVE",
"162 450 OFFCURVE",
"179 530 CURVE SMOOTH",
"197 612 OFFCURVE",
"280 650 OFFCURVE",
"379 650 CURVE SMOOTH",
"467 650 OFFCURVE",
"527 601 OFFCURVE",
"521 535 CURVE SMOOTH",
"520 519 OFFCURVE",
"532 515 OFFCURVE",
"539 515 CURVE SMOOTH",
"563 515 LINE SMOOTH",
"577 515 OFFCURVE",
"582 525 OFFCURVE",
"584 535 CURVE SMOOTH",
"598 612 OFFCURVE",
"537 710 OFFCURVE",
"379 710 CURVE SMOOTH",
"231 710 OFFCURVE",
"141 639 OFFCURVE",
"119 538 CURVE SMOOTH",
"96 428 OFFCURVE",
"147 379 OFFCURVE",
"280 333 CURVE SMOOTH",
"419 285 OFFCURVE",
"483 260 OFFCURVE",
"466 181 CURVE SMOOTH",
"449 101 OFFCURVE",
"374 50 OFFCURVE",
"244 50 CURVE SMOOTH",
"124 50 OFFCURVE",
"79 114 OFFCURVE",
"83 170 CURVE",
"83 181 OFFCURVE",
"78 190 OFFCURVE",
"65 190 CURVE SMOOTH",
"41 190 LINE SMOOTH",
"29 190 OFFCURVE",
"21 181 OFFCURVE",
"20 170 CURVE SMOOTH",
"9 75 OFFCURVE",
"82 -10 OFFCURVE",
"244 -10 CURVE SMOOTH"
);
}
);
width = 602;
},
{
anchors = (
{
name = bottom;
position = "{294, 0}";
},
{
name = top;
position = "{430, 700}";
}
);
color = 6;
layerId = "A0D8A2CD-35BA-4362-A7DB-C0E331BFD9A3";
paths = (
{
closed = 1;
nodes = (
"510 -10 OFFCURVE",
"632 66 OFFCURVE",
"663 212 CURVE SMOOTH",
"690 342 OFFCURVE",
"629 419 OFFCURVE",
"434 444 CURVE SMOOTH",
"346 455 OFFCURVE",
"328 468 OFFCURVE",
"332 487 CURVE SMOOTH",
"336 504 OFFCURVE",
"352 515 OFFCURVE",
"386 515 CURVE SMOOTH",
"414 515 OFFCURVE",
"429 503 OFFCURVE",
"435 497 CURVE SMOOTH",
"445 486 OFFCURVE",
"453 481 OFFCURVE",
"472 481 CURVE SMOOTH",
"672 481 LINE SMOOTH",
"683 481 OFFCURVE",
"695 491 OFFCURVE",
"697 503 CURVE SMOOTH",
"713 590 OFFCURVE",
"587 710 OFFCURVE",
"407 710 CURVE SMOOTH",
"225 710 OFFCURVE",
"104 630 OFFCURVE",
"76 494 CURVE SMOOTH",
"47 361 OFFCURVE",
"131 281 OFFCURVE",
"285 260 CURVE SMOOTH",
"381 247 OFFCURVE",
"409 237 OFFCURVE",
"404 213 CURVE SMOOTH",
"400 195 OFFCURVE",
"368 185 OFFCURVE",
"323 185 CURVE SMOOTH",
"290 185 OFFCURVE",
"270 193 OFFCURVE",
"254 208 CURVE SMOOTH",
"242 219 OFFCURVE",
"235 225 OFFCURVE",
"214 225 CURVE SMOOTH",
"24 225 LINE SMOOTH",
"12 225 OFFCURVE",
"0 215 OFFCURVE",
"-2 203 CURVE SMOOTH",
"-23 92 OFFCURVE",
"80 -10 OFFCURVE",
"301 -10 CURVE SMOOTH"
);
}
);
width = 698;
}
);
leftKerningGroup = S;
rightKerningGroup = S;
unicode = 0053;
userData = {
com.typemytype.robofont.guides = (
{
angle = 0;
isGlobal = 0;
magnetic = 5;
x = 0;
y = 355;
},
{
angle = 90;
isGlobal = 0;
magnetic = 5;
x = 306;
y = 0;
}
);
};
},
{
glyphname = Scedilla;
layers = (
{
color = 6;
layerId = UUID0;
paths = (
{
closed = 1;
nodes = (
"293 -221 OFFCURVE",
"333 -180 OFFCURVE",
"343 -132 CURVE SMOOTH",
"353 -84 OFFCURVE",
"329 -50 OFFCURVE",
"285 -50 CURVE SMOOTH",
"270 -50 OFFCURVE",
"254 -53 OFFCURVE",
"245 -58 CURVE",
"279 -8 LINE",
"412 3 OFFCURVE",
"506 71 OFFCURVE",
"530 181 CURVE SMOOTH",
"553 291 OFFCURVE",
"490 329 OFFCURVE",
"350 377 CURVE SMOOTH",
"217 423 OFFCURVE",
"163 450 OFFCURVE",
"180 530 CURVE SMOOTH",
"197 612 OFFCURVE",
"274 650 OFFCURVE",
"373 650 CURVE SMOOTH",
"471 650 OFFCURVE",
"528 601 OFFCURVE",
"522 535 CURVE SMOOTH",
"521 519 OFFCURVE",
"533 515 OFFCURVE",
"540 515 CURVE SMOOTH",
"560 515 LINE SMOOTH",
"574 515 OFFCURVE",
"583 525 OFFCURVE",
"585 535 CURVE SMOOTH",
"598 612 OFFCURVE",
"544 710 OFFCURVE",
"386 710 CURVE SMOOTH",
"238 710 OFFCURVE",
"138 631 OFFCURVE",
"117 530 CURVE SMOOTH",
"93 420 OFFCURVE",
"148 379 OFFCURVE",
"281 333 CURVE SMOOTH",
"420 285 OFFCURVE",
"483 260 OFFCURVE",
"467 181 CURVE SMOOTH",
"450 101 OFFCURVE",
"381 50 OFFCURVE",
"251 50 CURVE SMOOTH",
"121 50 OFFCURVE",
"79 114 OFFCURVE",
"83 170 CURVE SMOOTH",
"84 181 OFFCURVE",
"79 190 OFFCURVE",
"66 190 CURVE SMOOTH",
"46 190 LINE SMOOTH",
"34 190 OFFCURVE",
"23 181 OFFCURVE",
"20 170 CURVE SMOOTH",
"4 85 OFFCURVE",
"66 2 OFFCURVE",
"222 -10 CURVE",
"195 -53 LINE SMOOTH",
"189 -63 OFFCURVE",
"178 -75 OFFCURVE",
"184 -83 CURVE SMOOTH",
"196 -100 LINE SMOOTH",
"208 -116 OFFCURVE",
"225 -96 OFFCURVE",
"257 -96 CURVE SMOOTH",
"280 -96 OFFCURVE",
"297 -110 OFFCURVE",
"292 -134 CURVE SMOOTH",
"286 -159 OFFCURVE",
"263 -174 OFFCURVE",
"240 -174 CURVE SMOOTH",
"196 -174 OFFCURVE",
"196 -140 OFFCURVE",
"176 -156 CURVE SMOOTH",
"159 -169 LINE SMOOTH",
"140 -184 OFFCURVE",
"174 -219 OFFCURVE",
"230 -220 CURVE SMOOTH"
);
}
);
width = 604;
},
{
color = 6;
hints = (
{
horizontal = 1;
place = "{0, 0}";
type = Tag;
}
);
layerId = "A0D8A2CD-35BA-4362-A7DB-C0E331BFD9A3";
paths = (
{
closed = 1;
nodes = (
"295 -220 OFFCURVE",
"342 -183 OFFCURVE",
"354 -130 CURVE SMOOTH",
"365 -77 OFFCURVE",
"343 -40 OFFCURVE",
"292 -40 CURVE SMOOTH",
"288 -40 OFFCURVE",
"269 -42 OFFCURVE",
"261 -45 CURVE",
"286 -10 LINE",
"474 -8 OFFCURVE",
"633 81 OFFCURVE",
"664 226 CURVE SMOOTH",
"692 356 OFFCURVE",
"629 419 OFFCURVE",
"435 444 CURVE SMOOTH",
"347 455 OFFCURVE",
"329 468 OFFCURVE",
"333 487 CURVE SMOOTH",
"336 504 OFFCURVE",
"353 515 OFFCURVE",
"387 515 CURVE SMOOTH",
"415 515 OFFCURVE",
"430 503 OFFCURVE",
"436 497 CURVE SMOOTH",
"446 486 OFFCURVE",
"453 481 OFFCURVE",
"472 481 CURVE",
"672 481 LINE",
"683 481 OFFCURVE",
"696 491 OFFCURVE",
"698 503 CURVE SMOOTH",
"714 590 OFFCURVE",
"628 710 OFFCURVE",
"428 710 CURVE SMOOTH",
"246 710 OFFCURVE",
"103 616 OFFCURVE",
"74 480 CURVE SMOOTH",
"46 347 OFFCURVE",
"132 281 OFFCURVE",
"285 260 CURVE SMOOTH",
"382 247 OFFCURVE",
"410 237 OFFCURVE",
"404 213 CURVE SMOOTH",
"401 195 OFFCURVE",
"369 185 OFFCURVE",
"324 185 CURVE SMOOTH",
"291 185 OFFCURVE",
"270 193 OFFCURVE",
"254 208 CURVE SMOOTH",
"243 219 OFFCURVE",
"236 225 OFFCURVE",
"215 225 CURVE",
"25 225 LINE",
"13 225 OFFCURVE",
"1 215 OFFCURVE",
"-2 203 CURVE SMOOTH",
"-21 102 OFFCURVE",
"46 9 OFFCURVE",
"224 -7 CURVE",
"194 -52 LINE",
"181 -71 OFFCURVE",
"182 -76 OFFCURVE",
"189 -85 CURVE",
"206 -106 LINE",
"216 -119 OFFCURVE",
"242 -106 OFFCURVE",
"260 -106 CURVE SMOOTH",
"280 -106 OFFCURVE",
"285 -118 OFFCURVE",
"283 -130 CURVE SMOOTH",
"280 -142 OFFCURVE",
"268 -154 OFFCURVE",
"249 -154 CURVE SMOOTH",
"215 -154 OFFCURVE",
"214 -136 OFFCURVE",
"194 -151 CURVE",
"169 -169 LINE",
"142 -189 OFFCURVE",
"182 -220 OFFCURVE",
"235 -220 CURVE SMOOTH"
);
}
);
width = 696;
}
);
leftKerningGroup = S;
leftMetricsKey = S;
rightKerningGroup = S;
rightMetricsKey = S;
unicode = 015E;
userData = {
com.typemytype.robofont.guides = (
{
angle = 90;
isGlobal = 0;
magnetic = 5;
x = 306;
y = 0;
}
);
};
},
{
glyphname = T;
layers = (
{
anchors = (
{
name = bottom;
position = "{209, 0}";
},
{
name = center;
position = "{295, 350}";
},
{
name = top;
position = "{362, 700}";
}
);
color = 6;
layerId = UUID0;
paths = (
{
closed = 1;
nodes = (
"221 0 LINE SMOOTH",
"235 0 OFFCURVE",
"245 9 OFFCURVE",
"248 22 CURVE",
"380 640 LINE",
"577 640 LINE",
"591 640 OFFCURVE",
"601 649 OFFCURVE",
"604 662 CURVE",
"607 677 LINE SMOOTH",
"610 691 OFFCURVE",
"603 700 OFFCURVE",
"589 700 CURVE SMOOTH",
"131 700 LINE SMOOTH",
"118 700 OFFCURVE",
"107 691 OFFCURVE",
"104 677 CURVE SMOOTH",
"101 662 LINE SMOOTH",
"98 649 OFFCURVE",
"106 640 OFFCURVE",
"119 640 CURVE SMOOTH",
"317 640 LINE",
"185 22 LINE",
"182 9 OFFCURVE",
"190 0 OFFCURVE",
"203 0 CURVE SMOOTH"
);
}
);
width = 551;
},
{
anchors = (
{
name = bottom;
position = "{282, 0}";
},
{
name = center;
position = "{356, 350}";
},
{
name = top;
position = "{431, 700}";
}
);
color = 6;
layerId = "A0D8A2CD-35BA-4362-A7DB-C0E331BFD9A3";
paths = (
{
closed = 1;
nodes = (
"374 0 LINE SMOOTH",
"389 0 OFFCURVE",
"403 12 OFFCURVE",
"406 27 CURVE SMOOTH",
"504 485 LINE",
"670 485 LINE SMOOTH",
"685 485 OFFCURVE",
"699 497 OFFCURVE",
"702 512 CURVE SMOOTH",
"737 673 LINE SMOOTH",
"740 688 OFFCURVE",
"730 700 OFFCURVE",
"715 700 CURVE SMOOTH",
"129 700 LINE SMOOTH",
"114 700 OFFCURVE",
"100 688 OFFCURVE",
"97 673 CURVE SMOOTH",
"62 512 LINE SMOOTH",
"59 497 OFFCURVE",
"69 485 OFFCURVE",
"84 485 CURVE SMOOTH",
"250 485 LINE",
"152 27 LINE SMOOTH",
"149 12 OFFCURVE",
"159 0 OFFCURVE",
"174 0 CURVE SMOOTH"
);
}
);
width = 673;
}
);
leftKerningGroup = T;
rightKerningGroup = T;
unicode = 0054;
userData = {
com.typemytype.robofont.guides = (
{
angle = 0;
isGlobal = 0;
magnetic = 5;
x = 0;
y = 495;
},
{
angle = 0;
isGlobal = 0;
magnetic = 5;
x = 0;
y = 9;
},
{
angle = 0;
isGlobal = 0;
magnetic = 5;
x = 0;
y = 691;
},
{
angle = 0;
isGlobal = 0;
magnetic = 5;
x = 0;
y = 649;
},
{
angle = 90;
isGlobal = 0;
magnetic = 5;
x = 279;
y = 0;
},
{
angle = 90;
isGlobal = 0;
magnetic = 5;
x = 324;
y = 0;
},
{
angle = 90;
isGlobal = 0;
magnetic = 5;
x = 59;
y = 0;
},
{
angle = 90;
isGlobal = 0;
magnetic = 5;
x = 544;
y = 0;
}
);
};
},
{
glyphname = Tbar;
layers = (
{
color = 6;
layerId = UUID0;
paths = (
{
closed = 1;
nodes = (
"227 0 LINE SMOOTH",
"241 0 OFFCURVE",
"251 9 OFFCURVE",
"254 22 CURVE SMOOTH",
"324 350 LINE",
"441 350 LINE",
"455 350 OFFCURVE",
"466 359 OFFCURVE",
"469 372 CURVE SMOOTH",
"472 387 LINE SMOOTH",
"475 401 OFFCURVE",
"468 410 OFFCURVE",
"454 410 CURVE SMOOTH",
"337 410 LINE",
"386 640 LINE",
"583 640 LINE SMOOTH",
"597 640 OFFCURVE",
"607 649 OFFCURVE",
"610 662 CURVE SMOOTH",
"613 677 LINE SMOOTH",
"616 691 OFFCURVE",
"609 700 OFFCURVE",
"595 700 CURVE SMOOTH",
"137 700 LINE SMOOTH",
"124 700 OFFCURVE",
"113 691 OFFCURVE",
"110 677 CURVE SMOOTH",
"107 662 LINE SMOOTH",
"104 649 OFFCURVE",
"112 640 OFFCURVE",
"125 640 CURVE SMOOTH",
"323 640 LINE",
"274 410 LINE",
"156 410 LINE SMOOTH",
"143 410 OFFCURVE",
"132 401 OFFCURVE",
"129 387 CURVE",
"126 372 LINE",
"123 359 OFFCURVE",
"130 350 OFFCURVE",
"143 350 CURVE",
"261 350 LINE",
"191 22 LINE SMOOTH",
"188 9 OFFCURVE",
"196 0 OFFCURVE",
"209 0 CURVE SMOOTH"
);
}
);
width = 564;
},
{
color = 6;
layerId = "A0D8A2CD-35BA-4362-A7DB-C0E331BFD9A3";
paths = (
{
closed = 1;
nodes = (
"377 0 LINE SMOOTH",
"392 0 OFFCURVE",
"406 12 OFFCURVE",
"409 27 CURVE SMOOTH",
"458 258 LINE",
"548 258 LINE SMOOTH",
"563 258 OFFCURVE",
"578 270 OFFCURVE",
"581 285 CURVE SMOOTH",
"596 356 LINE SMOOTH",
"599 371 OFFCURVE",
"590 383 OFFCURVE",
"575 383 CURVE SMOOTH",
"485 383 LINE",
"507 485 LINE",
"673 485 LINE SMOOTH",
"688 485 OFFCURVE",
"702 497 OFFCURVE",
"705 512 CURVE SMOOTH",
"740 673 LINE SMOOTH",
"743 688 OFFCURVE",
"733 700 OFFCURVE",
"718 700 CURVE SMOOTH",
"132 700 LINE SMOOTH",
"117 700 OFFCURVE",
"103 688 OFFCURVE",
"100 673 CURVE SMOOTH",
"65 512 LINE SMOOTH",
"62 497 OFFCURVE",
"72 485 OFFCURVE",
"87 485 CURVE SMOOTH",
"253 485 LINE",
"231 383 LINE",
"141 383 LINE SMOOTH",
"126 383 OFFCURVE",
"111 371 OFFCURVE",
"108 356 CURVE SMOOTH",
"93 285 LINE SMOOTH",
"90 270 OFFCURVE",
"99 258 OFFCURVE",
"114 258 CURVE SMOOTH",
"204 258 LINE",
"155 27 LINE SMOOTH",
"152 12 OFFCURVE",
"162 0 OFFCURVE",
"177 0 CURVE SMOOTH"
);
}
);
width = 680;
}
);
leftKerningGroup = T;
rightKerningGroup = T;
unicode = 0166;
userData = {
com.typemytype.robofont.guides = (
{
angle = 0;
isGlobal = 0;
magnetic = 5;
x = 0;
y = 380;
},
{
angle = 90;
isGlobal = 0;
magnetic = 5;
x = 301;
y = 0;
},
{
angle = 90;
isGlobal = 0;
magnetic = 5;
x = 50;
y = 0;
}
);
};
},
{
glyphname = U;
layers = (
{
anchors = (
{
name = bottom;
position = "{291, 0}";
},
{
name = ogonek;
position = "{363, 50}";
},
{
name = top;
position = "{420, 700}";
},
{
name = topright;
position = "{765, 700}";
}
);
color = 6;
layerId = UUID0;
paths = (
{
closed = 1;
nodes = (
"459 -10 OFFCURVE",
"557 77 OFFCURVE",
"598 271 CURVE SMOOTH",
"684 677 LINE SMOOTH",
"687 691 OFFCURVE",
"680 700 OFFCURVE",
"667 700 CURVE SMOOTH",
"649 700 LINE SMOOTH",
"635 700 OFFCURVE",
"624 691 OFFCURVE",
"621 677 CURVE SMOOTH",
"534 268 LINE SMOOTH",
"502 118 OFFCURVE",
"415 50 OFFCURVE",
"286 50 CURVE SMOOTH",
"151 50 OFFCURVE",
"113 118 OFFCURVE",
"145 268 CURVE SMOOTH",
"232 677 LINE SMOOTH",
"235 691 OFFCURVE",
"228 700 OFFCURVE",
"214 700 CURVE SMOOTH",
"196 700 LINE SMOOTH",
"183 700 OFFCURVE",
"172 691 OFFCURVE",
"169 677 CURVE SMOOTH",
"83 271 LINE",
"42 77 OFFCURVE",
"114 -10 OFFCURVE",
"286 -10 CURVE SMOOTH"
);
}
);
width = 691;
},
{
anchors = (
{
name = bottom;
position = "{318, 0}";
},
{
name = ogonek;
position = "{439, 115}";
},
{
name = top;
position = "{454, 700}";
},
{
name = topright;
position = "{819, 700}";
}
);
color = 6;
layerId = "A0D8A2CD-35BA-4362-A7DB-C0E331BFD9A3";
paths = (
{
closed = 1;
nodes = (
"537 -10 OFFCURVE",
"649 75 OFFCURVE",
"689 264 CURVE SMOOTH",
"776 673 LINE SMOOTH",
"779 688 OFFCURVE",
"769 700 OFFCURVE",
"754 700 CURVE SMOOTH",
"558 700 LINE SMOOTH",
"543 700 OFFCURVE",
"529 688 OFFCURVE",
"526 673 CURVE SMOOTH",
"439 268 LINE SMOOTH",
"428 218 OFFCURVE",
"398 191 OFFCURVE",
"349 191 CURVE SMOOTH",
"300 191 OFFCURVE",
"280 218 OFFCURVE",
"291 268 CURVE SMOOTH",
"378 673 LINE SMOOTH",
"381 688 OFFCURVE",
"371 700 OFFCURVE",
"356 700 CURVE SMOOTH",
"160 700 LINE SMOOTH",
"145 700 OFFCURVE",
"131 688 OFFCURVE",
"128 673 CURVE SMOOTH",
"41 264 LINE SMOOTH",
"1 75 OFFCURVE",
"155 -10 OFFCURVE",
"327 -10 CURVE SMOOTH"
);
}
);
width = 745;
}
);
leftKerningGroup = U;
rightKerningGroup = U;
unicode = 0055;
userData = {
com.typemytype.robofont.guides = (
{
angle = 0;
isGlobal = 0;
magnetic = 5;
x = 0;
y = 267;
},
{
angle = 90;
isGlobal = 0;
magnetic = 5;
x = 333;
y = 0;
},
{
angle = 90;
isGlobal = 0;
magnetic = 5;
x = 535;
y = 0;
},
{
angle = 90;
isGlobal = 0;
magnetic = 5;
x = 580;
y = 0;
},
{
angle = 90;
isGlobal = 0;
magnetic = 5;
x = 84;
y = 0;
},
{
angle = 90;
isGlobal = 0;
magnetic = 5;
x = 129;
y = 0;
}
);
};
},
{
glyphname = Uogonek;
layers = (
{
color = 6;
layerId = UUID0;
paths = (
{
closed = 1;
nodes = (
"318 -220 LINE",
"332 -220 OFFCURVE",
"338 -216 OFFCURVE",
"342 -203 CURVE",
"347 -185 LINE",
"350 -172 OFFCURVE",
"343 -163 OFFCURVE",
"330 -163 CURVE",
"312 -163 LINE",
"278 -163 OFFCURVE",
"245 -133 OFFCURVE",
"256 -82 CURVE SMOOTH",
"266 -36 OFFCURVE",
"301 -9 OFFCURVE",
"335 -7 CURVE",
"458 1 OFFCURVE",
"565 76 OFFCURVE",
"598 271 CURVE",
"684 677 LINE",
"687 691 OFFCURVE",
"680 700 OFFCURVE",
"667 700 CURVE",
"649 700 LINE",
"635 700 OFFCURVE",
"624 691 OFFCURVE",
"621 677 CURVE",
"534 268 LINE",
"502 118 OFFCURVE",
"415 50 OFFCURVE",
"286 50 CURVE SMOOTH",
"151 50 OFFCURVE",
"113 118 OFFCURVE",
"145 268 CURVE",
"232 677 LINE",
"235 691 OFFCURVE",
"228 700 OFFCURVE",
"214 700 CURVE",
"196 700 LINE",
"183 700 OFFCURVE",
"172 691 OFFCURVE",
"169 677 CURVE",
"83 271 LINE",
"47 100 OFFCURVE",
"98 12 OFFCURVE",
"229 -6 CURVE",
"213 -26 OFFCURVE",
"201 -50 OFFCURVE",
"196 -82 CURVE SMOOTH",
"181 -167 OFFCURVE",
"241 -220 OFFCURVE",
"312 -220 CURVE"
);
}
);
width = 692;
},
{
color = 6;
layerId = "A0D8A2CD-35BA-4362-A7DB-C0E331BFD9A3";
paths = (
{
closed = 1;
nodes = (
"361 -220 LINE",
"376 -220 OFFCURVE",
"390 -208 OFFCURVE",
"393 -193 CURVE",
"408 -125 LINE",
"411 -110 OFFCURVE",
"402 -98 OFFCURVE",
"387 -98 CURVE",
"377 -98 LINE",
"338 -98 OFFCURVE",
"333 -70 OFFCURVE",
"337 -49 CURVE SMOOTH",
"342 -28 OFFCURVE",
"356 -11 OFFCURVE",
"395 -7 CURVE SMOOTH",
"561 10 OFFCURVE",
"652 96 OFFCURVE",
"689 264 CURVE",
"776 673 LINE",
"779 688 OFFCURVE",
"769 700 OFFCURVE",
"754 700 CURVE",
"558 700 LINE",
"543 700 OFFCURVE",
"529 688 OFFCURVE",
"526 673 CURVE",
"439 268 LINE",
"429 218 OFFCURVE",
"398 191 OFFCURVE",
"349 191 CURVE SMOOTH",
"300 191 OFFCURVE",
"281 218 OFFCURVE",
"291 268 CURVE",
"378 673 LINE",
"381 688 OFFCURVE",
"371 700 OFFCURVE",
"356 700 CURVE",
"160 700 LINE",
"145 700 OFFCURVE",
"131 688 OFFCURVE",
"128 673 CURVE",
"41 264 LINE",
"8 114 OFFCURVE",
"98 30 OFFCURVE",
"222 1 CURVE",
"218 -11 OFFCURVE",
"214 -25 OFFCURVE",
"211 -39 CURVE SMOOTH",
"191 -134 OFFCURVE",
"236 -220 OFFCURVE",
"357 -220 CURVE"
);
}
);
width = 744;
}
);
leftKerningGroup = U;
rightKerningGroup = U;
unicode = 0172;
userData = {
com.typemytype.robofont.guides = (
{
angle = 0;
isGlobal = 0;
magnetic = 5;
x = 0;
y = "-187";
},
{
angle = 90;
isGlobal = 0;
magnetic = 5;
x = 332;
y = 0;
}
);
};
},
{
glyphname = V;
layers = (
{
anchors = (
{
name = bottom;
position = "{265, 0}";
},
{
name = top;
position = "{414, 700}";
}
);
color = 6;
layerId = UUID0;
paths = (
{
closed = 1;
nodes = (
"272 0 LINE SMOOTH",
"290 0 OFFCURVE",
"301 8 OFFCURVE",
"311 24 CURVE",
"679 668 LINE SMOOTH",
"687 682 OFFCURVE",
"683 700 OFFCURVE",
"667 700 CURVE SMOOTH",
"637 700 LINE SMOOTH",
"624 700 OFFCURVE",
"619 691 OFFCURVE",
"616 685 CURVE",
"267 73 LINE",
"178 685 LINE",
"177 693 OFFCURVE",
"172 700 OFFCURVE",
"159 700 CURVE SMOOTH",
"137 700 LINE",
"124 700 OFFCURVE",
"115 692 OFFCURVE",
"117 676 CURVE",
"212 24 LINE SMOOTH",
"214 8 OFFCURVE",
"223 0 OFFCURVE",
"241 0 CURVE SMOOTH"
);
}
);
width = 639;
},
{
anchors = (
{
name = bottom;
position = "{308, 0}";
},
{
name = top;
position = "{457, 700}";
}
);
color = 6;
layerId = "A0D8A2CD-35BA-4362-A7DB-C0E331BFD9A3";
paths = (
{
closed = 1;
nodes = (
"416 0 LINE SMOOTH",
"443 0 OFFCURVE",
"460 18 OFFCURVE",
"468 33 CURVE SMOOTH",
"791 671 LINE SMOOTH",
"798 685 OFFCURVE",
"792 700 OFFCURVE",
"776 700 CURVE SMOOTH",
"580 700 LINE SMOOTH",
"553 700 OFFCURVE",
"535 682 OFFCURVE",
"528 667 CURVE",
"354 295 LINE",
"338 667 LINE SMOOTH",
"337 682 OFFCURVE",
"327 700 OFFCURVE",
"300 700 CURVE SMOOTH",
"121 700 LINE SMOOTH",
"106 700 OFFCURVE",
"93 689 OFFCURVE",
"94 671 CURVE SMOOTH",
"147 33 LINE SMOOTH",
"147 18 OFFCURVE",
"158 0 OFFCURVE",
"185 0 CURVE SMOOTH"
);
}
);
width = 726;
}
);
unicode = 0056;
userData = {
com.typemytype.robofont.guides = (
{
angle = 0;
isGlobal = 0;
magnetic = 5;
x = 0;
y = 24;
}
);
};
},
{
glyphname = W;
layers = (
{
anchors = (
{
name = bottom;
position = "{333, 0}";
},
{
name = top;
position = "{462, 700}";
}
);
color = 6;
layerId = UUID0;
paths = (
{
closed = 1;
nodes = (
"164 0 LINE SMOOTH",
"180 0 OFFCURVE",
"192 8 OFFCURVE",
"200 24 CURVE SMOOTH",
"419 444 LINE",
"462 24 LINE",
"463 8 OFFCURVE",
"472 0 OFFCURVE",
"488 0 CURVE SMOOTH",
"509 0 LINE SMOOTH",
"525 0 OFFCURVE",
"534 7 OFFCURVE",
"542 24 CURVE",
"814 674 LINE SMOOTH",
"820 688 OFFCURVE",
"819 700 OFFCURVE",
"800 700 CURVE SMOOTH",
"778 700 LINE SMOOTH",
"765 700 OFFCURVE",
"757 695 OFFCURVE",
"753 685 CURVE SMOOTH",
"515 116 LINE",
"473 522 LINE SMOOTH",
"472 534 OFFCURVE",
"465 545 OFFCURVE",
"447 545 CURVE SMOOTH",
"426 545 LINE SMOOTH",
"408 545 OFFCURVE",
"396 534 OFFCURVE",
"390 522 CURVE SMOOTH",
"183 126 LINE",
"183 680 LINE SMOOTH",
"183 690 OFFCURVE",
"176 700 OFFCURVE",
"163 700 CURVE SMOOTH",
"144 700 LINE SMOOTH",
"131 700 OFFCURVE",
"123 691 OFFCURVE",
"123 680 CURVE SMOOTH",
"123 24 LINE SMOOTH",
"123 7 OFFCURVE",
"130 0 OFFCURVE",
"146 0 CURVE SMOOTH"
);
}
);
width = 776;
},
{
anchors = (
{
name = bottom;
position = "{373, 0}";
},
{
name = top;
position = "{504, 700}";
}
);
color = 6;
layerId = "A0D8A2CD-35BA-4362-A7DB-C0E331BFD9A3";
paths = (
{
closed = 1;
nodes = (
"247 0 LINE SMOOTH",
"274 0 OFFCURVE",
"289 19 OFFCURVE",
"293 27 CURVE SMOOTH",
"404 232 LINE",
"457 27 LINE SMOOTH",
"459 19 OFFCURVE",
"466 0 OFFCURVE",
"493 0 CURVE SMOOTH",
"636 0 LINE SMOOTH",
"663 0 OFFCURVE",
"684 20 OFFCURVE",
"690 38 CURVE",
"907 675 LINE SMOOTH",
"911 687 OFFCURVE",
"904 700 OFFCURVE",
"891 700 CURVE SMOOTH",
"700 700 LINE SMOOTH",
"677 700 OFFCURVE",
"665 693 OFFCURVE",
"658 673 CURVE SMOOTH",
"564 392 LINE",
"549 516 LINE SMOOTH",
"548 525 OFFCURVE",
"545 545 OFFCURVE",
"521 545 CURVE SMOOTH",
"419 545 LINE SMOOTH",
"395 545 OFFCURVE",
"384 525 OFFCURVE",
"379 516 CURVE SMOOTH",
"312 391 LINE",
"338 673 LINE SMOOTH",
"340 693 OFFCURVE",
"331 700 OFFCURVE",
"308 700 CURVE SMOOTH",
"127 700 LINE SMOOTH",
"114 700 OFFCURVE",
"100 688 OFFCURVE",
"99 675 CURVE SMOOTH",
"66 38 LINE",
"64 20 OFFCURVE",
"77 0 OFFCURVE",
"104 0 CURVE SMOOTH"
);
}
);
width = 855;
}
);
leftKerningGroup = W;
rightKerningGroup = W;
unicode = 0057;
userData = {
com.typemytype.robofont.guides = (
{
angle = 0;
isGlobal = 0;
magnetic = 5;
x = 0;
y = 545;
},
{
angle = 0;
isGlobal = 0;
magnetic = 5;
x = 0;
y = 670;
},
{
angle = 0;
isGlobal = 0;
magnetic = 5;
x = 0;
y = 24;
}
);
};
},
{
glyphname = X;
layers = (
{
anchors = (
{
name = bottom;
position = "{250, 0}";
},
{
name = top;
position = "{399, 700}";
}
);
color = 6;
layerId = UUID0;
paths = (
{
closed = 1;
nodes = (
"8 0 LINE SMOOTH",
"29 0 OFFCURVE",
"35 9 OFFCURVE",
"41 15 CURVE SMOOTH",
"310 302 LINE",
"457 15 LINE SMOOTH",
"460 9 OFFCURVE",
"465 0 OFFCURVE",
"485 0 CURVE SMOOTH",
"501 0 LINE SMOOTH",
"515 0 OFFCURVE",
"526 15 OFFCURVE",
"519 29 CURVE SMOOTH",
"356 347 LINE",
"649 667 LINE SMOOTH",
"661 681 OFFCURVE",
"650 700 OFFCURVE",
"634 700 CURVE SMOOTH",
"617 700 LINE SMOOTH",
"594 700 OFFCURVE",
"589 691 OFFCURVE",
"583 685 CURVE SMOOTH",
"327 405 LINE",
"185 685 LINE SMOOTH",
"182 691 OFFCURVE",
"178 700 OFFCURVE",
"157 700 CURVE SMOOTH",
"141 700 LINE SMOOTH",
"126 700 OFFCURVE",
"116 684 OFFCURVE",
"124 669 CURVE SMOOTH",
"280 360 LINE",
"-25 33 LINE SMOOTH",
"-37 20 OFFCURVE",
"-26 0 OFFCURVE",
"-10 0 CURVE SMOOTH"
);
}
);
width = 610;
},
{
anchors = (
{
name = bottom;
position = "{314, 0}";
},
{
name = top;
position = "{463, 700}";
}
);
color = 6;
layerId = "A0D8A2CD-35BA-4362-A7DB-C0E331BFD9A3";
paths = (
{
closed = 1;
nodes = (
"199 0 LINE",
"225 0 OFFCURVE",
"240 18 OFFCURVE",
"244 23 CURVE",
"353 144 LINE",
"414 23 LINE",
"416 18 OFFCURVE",
"425 0 OFFCURVE",
"451 0 CURVE",
"647 0 LINE",
"670 0 OFFCURVE",
"680 18 OFFCURVE",
"673 33 CURVE",
"525 331 LINE",
"806 667 LINE",
"817 679 OFFCURVE",
"813 700 OFFCURVE",
"794 700 CURVE",
"577 700 LINE",
"551 700 OFFCURVE",
"536 682 OFFCURVE",
"530 675 CURVE",
"419 543 LINE",
"354 675 LINE",
"351 682 OFFCURVE",
"343 700 OFFCURVE",
"317 700 CURVE",
"120 700 LINE",
"98 700 OFFCURVE",
"87 682 OFFCURVE",
"94 667 CURVE",
"246 361 LINE",
"-51 33 LINE",
"-63 20 OFFCURVE",
"-56 0 OFFCURVE",
"-39 0 CURVE"
);
}
);
width = 738;
}
);
unicode = 0058;
userData = {
com.typemytype.robofont.guides = (
{
angle = 0;
isGlobal = 0;
magnetic = 5;
x = 0;
y = 350;
},
{
angle = 90;
isGlobal = 0;
magnetic = 5;
x = 28;
y = 0;
},
{
angle = 90;
isGlobal = 0;
magnetic = 5;
x = 580;
y = 0;
}
);
};
},
{
glyphname = Y;
layers = (
{
anchors = (
{
name = bottom;
position = "{260, 0}";
},
{
name = top;
position = "{371, 700}";
},
{
name = topleft;
position = "{114, 700}";
}
);
color = 6;
layerId = UUID0;
paths = (
{
closed = 1;
nodes = (
"259 0 LINE SMOOTH",
"273 0 OFFCURVE",
"283 9 OFFCURVE",
"286 22 CURVE SMOOTH",
"339 267 LINE",
"668 667 LINE",
"680 681 OFFCURVE",
"682 700 OFFCURVE",
"659 700 CURVE SMOOTH",
"628 700 LINE SMOOTH",
"619 700 OFFCURVE",
"610 695 OFFCURVE",
"602 685 CURVE SMOOTH",
"315 335 LINE",
"176 685 LINE SMOOTH",
"172 695 OFFCURVE",
"165 700 OFFCURVE",
"156 700 CURVE SMOOTH",
"139 700 LINE",
"121 700 OFFCURVE",
"110 681 OFFCURVE",
"116 667 CURVE",
"275 267 LINE",
"224 22 LINE SMOOTH",
"221 9 OFFCURVE",
"229 0 OFFCURVE",
"242 0 CURVE SMOOTH"
);
}
);
width = 629;
},
{
anchors = (
{
name = bottom;
position = "{300, 0}";
},
{
name = top;
position = "{430, 700}";
},
{
name = topleft;
position = "{114, 700}";
}
);
color = 6;
layerId = "A0D8A2CD-35BA-4362-A7DB-C0E331BFD9A3";
paths = (
{
closed = 1;
nodes = (
"390 0 LINE SMOOTH",
"405 0 OFFCURVE",
"419 12 OFFCURVE",
"422 27 CURVE SMOOTH",
"464 224 LINE",
"784 669 LINE SMOOTH",
"793 681 OFFCURVE",
"788 700 OFFCURVE",
"770 700 CURVE SMOOTH",
"572 700 LINE SMOOTH",
"545 700 OFFCURVE",
"529 681 OFFCURVE",
"525 675 CURVE SMOOTH",
"382 474 LINE",
"325 675 LINE SMOOTH",
"323 681 OFFCURVE",
"315 700 OFFCURVE",
"288 700 CURVE SMOOTH",
"110 700 LINE SMOOTH",
"92 700 OFFCURVE",
"79 685 OFFCURVE",
"84 669 CURVE SMOOTH",
"214 224 LINE",
"172 27 LINE SMOOTH",
"169 12 OFFCURVE",
"179 0 OFFCURVE",
"194 0 CURVE SMOOTH"
);
}
);
width = 709;
}
);
leftKerningGroup = Y;
rightKerningGroup = Y;
unicode = 0059;
userData = {
com.typemytype.robofont.guides = (
{
angle = 90;
isGlobal = 0;
magnetic = 5;
x = 310;
y = 0;
}
);
};
},
{
glyphname = Z;
layers = (
{
anchors = (
{
name = bottom;
position = "{232, 0}";
},
{
name = center;
position = "{306, 350}";
},
{
name = top;
position = "{371, 700}";
}
);
color = 6;
layerId = UUID0;
paths = (
{
closed = 1;
nodes = (
"450 0 LINE SMOOTH",
"464 0 OFFCURVE",
"474 9 OFFCURVE",
"477 22 CURVE SMOOTH",
"480 37 LINE SMOOTH",
"483 51 OFFCURVE",
"476 60 OFFCURVE",
"462 60 CURVE SMOOTH",
"74 60 LINE",
"581 621 LINE SMOOTH",
"589 630 OFFCURVE",
"599 640 OFFCURVE",
"602 657 CURVE SMOOTH",
"606 677 LINE SMOOTH",
"609 691 OFFCURVE",
"602 700 OFFCURVE",
"588 700 CURVE SMOOTH",
"157 700 LINE SMOOTH",
"144 700 OFFCURVE",
"133 691 OFFCURVE",
"130 677 CURVE SMOOTH",
"127 662 LINE SMOOTH",
"124 649 OFFCURVE",
"132 640 OFFCURVE",
"145 640 CURVE SMOOTH",
"515 640 LINE",
"9 80 LINE SMOOTH",
"3 74 OFFCURVE",
"-8 63 OFFCURVE",
"-13 43 CURVE SMOOTH",
"-18 23 LINE SMOOTH",
"-21 9 OFFCURVE",
"-13 0 OFFCURVE",
"0 0 CURVE SMOOTH"
);
}
);
width = 574;
},
{
anchors = (
{
name = bottom;
position = "{291, 0}";
},
{
name = center;
position = "{365, 350}";
},
{
name = top;
position = "{440, 700}";
}
);
color = 6;
layerId = "A0D8A2CD-35BA-4362-A7DB-C0E331BFD9A3";
paths = (
{
closed = 1;
nodes = (
"570 0 LINE SMOOTH",
"585 0 OFFCURVE",
"599 12 OFFCURVE",
"602 27 CURVE SMOOTH",
"634 178 LINE",
"638 193 OFFCURVE",
"628 205 OFFCURVE",
"613 205 CURVE SMOOTH",
"359 205 LINE",
"676 498 LINE SMOOTH",
"685 507 OFFCURVE",
"693 517 OFFCURVE",
"696 531 CURVE SMOOTH",
"727 673 LINE SMOOTH",
"730 688 OFFCURVE",
"720 700 OFFCURVE",
"705 700 CURVE SMOOTH",
"157 700 LINE SMOOTH",
"142 700 OFFCURVE",
"128 688 OFFCURVE",
"125 673 CURVE SMOOTH",
"93 524 LINE SMOOTH",
"90 509 OFFCURVE",
"99 497 OFFCURVE",
"114 497 CURVE SMOOTH",
"362 497 LINE",
"30 206 LINE SMOOTH",
"24 201 OFFCURVE",
"12 190 OFFCURVE",
"8 171 CURVE SMOOTH",
"-23 27 LINE SMOOTH",
"-26 12 OFFCURVE",
"-16 0 OFFCURVE",
"-1 0 CURVE SMOOTH"
);
}
);
width = 692;
}
);
leftKerningGroup = Z;
rightKerningGroup = Z;
unicode = 005A;
userData = {
com.typemytype.robofont.guides = (
{
angle = 0;
isGlobal = 0;
magnetic = 5;
x = 0;
y = 51;
},
{
angle = 0;
isGlobal = 0;
magnetic = 5;
x = 0;
y = 9;
},
{
angle = 0;
isGlobal = 0;
magnetic = 5;
x = 0;
y = 691;
},
{
angle = 0;
isGlobal = 0;
magnetic = 5;
x = 0;
y = 649;
},
{
angle = 90;
isGlobal = 0;
magnetic = 5;
x = 189;
y = 0;
},
{
angle = 90;
isGlobal = 0;
magnetic = 5;
x = 815;
y = 0;
},
{
angle = 90;
isGlobal = 0;
magnetic = 5;
x = 732;
y = 0;
},
{
angle = 90;
isGlobal = 0;
magnetic = 5;
x = "-431";
y = 0;
},
{
angle = 90;
isGlobal = 0;
magnetic = 5;
x = 74;
y = 0;
},
{
angle = 90;
isGlobal = 0;
magnetic = 5;
x = 541;
y = 0;
}
);
};
},
{
glyphname = a;
layers = (
{
anchors = (
{
name = bottom;
position = "{230, 0}";
},
{
name = ogonek;
position = "{436, 58}";
},
{
name = top;
position = "{318, 520}";
}
);
color = 6;
layerId = UUID0;
paths = (
{
closed = 1;
nodes = (
"295 -10 OFFCURVE",
"336 24 OFFCURVE",
"378 69 CURVE",
"368 22 LINE SMOOTH",
"365 9 OFFCURVE",
"373 0 OFFCURVE",
"386 0 CURVE SMOOTH",
"403 0 LINE SMOOTH",
"416 0 OFFCURVE",
"426 9 OFFCURVE",
"429 22 CURVE SMOOTH",
"530 498 LINE SMOOTH",
"533 511 OFFCURVE",
"525 520 OFFCURVE",
"512 520 CURVE SMOOTH",
"495 520 LINE SMOOTH",
"482 520 OFFCURVE",
"472 511 OFFCURVE",
"469 498 CURVE SMOOTH",
"459 451 LINE",
"436 495 OFFCURVE",
"398 530 OFFCURVE",
"310 530 CURVE SMOOTH",
"149 530 OFFCURVE",
"83 404 OFFCURVE",
"53 288 CURVE SMOOTH",
"48 268 OFFCURVE",
"44 252 OFFCURVE",
"41 232 CURVE SMOOTH",
"23 115 OFFCURVE",
"52 -10 OFFCURVE",
"207 -10 CURVE SMOOTH"
);
},
{
closed = 1;
nodes = (
"98 48 OFFCURVE",
"88 136 OFFCURVE",
"103 232 CURVE SMOOTH",
"106 252 OFFCURVE",
"109 268 OFFCURVE",
"115 288 CURVE SMOOTH",
"143 383 OFFCURVE",
"201 472 OFFCURVE",
"310 472 CURVE SMOOTH",
"421 472 OFFCURVE",
"443 382 OFFCURVE",
"428 302 CURVE SMOOTH",
"424 282 OFFCURVE",
"416 244 OFFCURVE",
"411 224 CURVE SMOOTH",
"391 142 OFFCURVE",
"321 48 OFFCURVE",
"207 48 CURVE SMOOTH"
);
}
);
width = 569;
},
{
anchors = (
{
name = bottom;
position = "{275, 0}";
},
{
name = ogonek;
position = "{577, 122}";
},
{
name = top;
position = "{376, 520}";
}
);
color = 6;
layerId = "A0D8A2CD-35BA-4362-A7DB-C0E331BFD9A3";
paths = (
{
closed = 1;
nodes = (
"257 -10 OFFCURVE",
"299 14 OFFCURVE",
"339 50 CURVE",
"334 27 LINE SMOOTH",
"331 12 OFFCURVE",
"341 0 OFFCURVE",
"356 0 CURVE SMOOTH",
"526 0 LINE SMOOTH",
"541 0 OFFCURVE",
"555 12 OFFCURVE",
"558 27 CURVE SMOOTH",
"657 493 LINE SMOOTH",
"660 508 OFFCURVE",
"650 520 OFFCURVE",
"635 520 CURVE SMOOTH",
"466 520 LINE SMOOTH",
"451 520 OFFCURVE",
"437 508 OFFCURVE",
"434 493 CURVE SMOOTH",
"431 480 LINE",
"405 509 OFFCURVE",
"369 530 OFFCURVE",
"293 530 CURVE SMOOTH",
"167 530 OFFCURVE",
"72 457 OFFCURVE",
"32 300 CURVE SMOOTH",
"25 270 OFFCURVE",
"21 251 OFFCURVE",
"15 221 CURVE",
"-13 54 OFFCURVE",
"72 -10 OFFCURVE",
"188 -10 CURVE SMOOTH"
);
},
{
closed = 1;
nodes = (
"262 169 OFFCURVE",
"258 191 OFFCURVE",
"262 227 CURVE SMOOTH",
"264 247 OFFCURVE",
"270 273 OFFCURVE",
"276 293 CURVE SMOOTH",
"287 329 OFFCURVE",
"301 351 OFFCURVE",
"338 351 CURVE SMOOTH",
"372 351 OFFCURVE",
"382 333 OFFCURVE",
"377 301 CURVE SMOOTH",
"373 271 OFFCURVE",
"370 257 OFFCURVE",
"362 227 CURVE SMOOTH",
"352 191 OFFCURVE",
"336 169 OFFCURVE",
"299 169 CURVE SMOOTH"
);
}
);
width = 660;
}
);
leftKerningGroup = a;
rightKerningGroup = a;
unicode = 0061;
},
{
glyphname = aogonek;
layers = (
{
color = 6;
layerId = UUID0;
paths = (
{
closed = 1;
nodes = (
"364 -220 LINE SMOOTH",
"377 -220 OFFCURVE",
"388 -211 OFFCURVE",
"391 -198 CURVE SMOOTH",
"394 -185 LINE SMOOTH",
"397 -172 OFFCURVE",
"390 -163 OFFCURVE",
"377 -163 CURVE SMOOTH",
"372 -163 LINE SMOOTH",
"345 -163 OFFCURVE",
"328 -149 OFFCURVE",
"328 -117 CURVE SMOOTH",
"328 -61 OFFCURVE",
"367 -25 OFFCURVE",
"409 -8 CURVE SMOOTH",
"414 -6 LINE SMOOTH",
"423 -2 OFFCURVE",
"427 9 OFFCURVE",
"429 18 CURVE SMOOTH",
"530 498 LINE SMOOTH",
"533 511 OFFCURVE",
"525 520 OFFCURVE",
"512 520 CURVE SMOOTH",
"495 520 LINE SMOOTH",
"482 520 OFFCURVE",
"472 511 OFFCURVE",
"469 498 CURVE SMOOTH",
"459 451 LINE",
"436 495 OFFCURVE",
"398 530 OFFCURVE",
"310 530 CURVE SMOOTH",
"149 530 OFFCURVE",
"83 404 OFFCURVE",
"53 288 CURVE SMOOTH",
"48 268 OFFCURVE",
"44 252 OFFCURVE",
"41 232 CURVE SMOOTH",
"24 121 OFFCURVE",
"47 -10 OFFCURVE",
"207 -10 CURVE SMOOTH",
"295 -10 OFFCURVE",
"336 24 OFFCURVE",
"378 69 CURVE",
"368 19 LINE SMOOTH",
"365 4 OFFCURVE",
"376 0 OFFCURVE",
"384 0 CURVE",
"400 0 LINE",
"408 55 LINE",
"305 7 OFFCURVE",
"267 -58 OFFCURVE",
"267 -123 CURVE SMOOTH",
"267 -180 OFFCURVE",
"304 -220 OFFCURVE",
"355 -220 CURVE SMOOTH"
);
},
{
closed = 1;
nodes = (
"93 48 OFFCURVE",
"91 144 OFFCURVE",
"103 232 CURVE SMOOTH",
"106 252 OFFCURVE",
"109 268 OFFCURVE",
"115 288 CURVE SMOOTH",
"143 383 OFFCURVE",
"201 472 OFFCURVE",
"310 472 CURVE SMOOTH",
"425 472 OFFCURVE",
"443 371 OFFCURVE",
"428 302 CURVE SMOOTH",
"424 282 OFFCURVE",
"416 244 OFFCURVE",
"411 224 CURVE SMOOTH",
"391 142 OFFCURVE",
"321 48 OFFCURVE",
"207 48 CURVE SMOOTH"
);
}
);
width = 568;
},
{
color = 6;
hints = (
{
horizontal = 1;
place = "{0, 0}";
type = Tag;
},
{
horizontal = 1;
place = "{0, 0}";
type = Tag;
},
{
horizontal = 1;
place = "{0, 0}";
type = Tag;
},
{
horizontal = 1;
place = "{0, 0}";
type = Tag;
}
);
layerId = "A0D8A2CD-35BA-4362-A7DB-C0E331BFD9A3";
paths = (
{
closed = 1;
nodes = (
"489 -220 LINE SMOOTH",
"504 -220 OFFCURVE",
"519 -208 OFFCURVE",
"522 -193 CURVE SMOOTH",
"537 -125 LINE SMOOTH",
"540 -110 OFFCURVE",
"530 -98 OFFCURVE",
"515 -98 CURVE SMOOTH",
"505 -98 LINE SMOOTH",
"474 -98 OFFCURVE",
"464 -80 OFFCURVE",
"464 -62 CURVE SMOOTH",
"464 -31 OFFCURVE",
"487 0 OFFCURVE",
"520 0 CURVE SMOOTH",
"526 0 LINE SMOOTH",
"541 0 OFFCURVE",
"555 12 OFFCURVE",
"558 27 CURVE SMOOTH",
"657 493 LINE SMOOTH",
"660 508 OFFCURVE",
"650 520 OFFCURVE",
"635 520 CURVE SMOOTH",
"466 520 LINE SMOOTH",
"451 520 OFFCURVE",
"437 508 OFFCURVE",
"434 493 CURVE SMOOTH",
"431 480 LINE",
"405 509 OFFCURVE",
"369 530 OFFCURVE",
"293 530 CURVE SMOOTH",
"167 530 OFFCURVE",
"72 457 OFFCURVE",
"32 300 CURVE SMOOTH",
"25 270 OFFCURVE",
"21 251 OFFCURVE",
"15 221 CURVE SMOOTH",
"-13 54 OFFCURVE",
"72 -10 OFFCURVE",
"188 -10 CURVE SMOOTH",
"257 -10 OFFCURVE",
"299 14 OFFCURVE",
"339 50 CURVE",
"335 33 LINE SMOOTH",
"330 10 OFFCURVE",
"340 0 OFFCURVE",
"360 0 CURVE SMOOTH",
"382 0 LINE",
"377 28 LINE",
"356 6 OFFCURVE",
"335 -59 OFFCURVE",
"335 -97 CURVE SMOOTH",
"335 -168 OFFCURVE",
"375 -220 OFFCURVE",
"475 -220 CURVE SMOOTH"
);
},
{
closed = 1;
nodes = (
"262 169 OFFCURVE",
"258 191 OFFCURVE",
"262 227 CURVE SMOOTH",
"264 247 OFFCURVE",
"270 273 OFFCURVE",
"276 293 CURVE SMOOTH",
"287 329 OFFCURVE",
"301 351 OFFCURVE",
"338 351 CURVE SMOOTH",
"372 351 OFFCURVE",
"382 333 OFFCURVE",
"377 301 CURVE SMOOTH",
"373 271 OFFCURVE",
"370 257 OFFCURVE",
"362 227 CURVE SMOOTH",
"352 191 OFFCURVE",
"336 169 OFFCURVE",
"299 169 CURVE SMOOTH"
);
}
);
width = 661;
}
);
leftKerningGroup = a;
leftMetricsKey = a;
rightKerningGroup = a;
unicode = 0105;
userData = {
com.typemytype.robofont.guides = (
{
angle = 0;
isGlobal = 0;
magnetic = 5;
x = 0;
y = 22;
},
{
angle = 0;
isGlobal = 0;
magnetic = 5;
x = 0;
y = "-220";
},
{
angle = 90;
isGlobal = 0;
magnetic = 5;
x = 472;
y = 0;
}
);
};
},
{
glyphname = ae;
layers = (
{
anchors = (
{
name = bottom;
position = "{386, 0}";
},
{
name = top;
position = "{504, 520}";
}
);
color = 6;
layerId = UUID0;
paths = (
{
closed = 1;
nodes = (
"269 -10 OFFCURVE",
"345 26 OFFCURVE",
"399 100 CURVE",
"417 36 OFFCURVE",
"465 -10 OFFCURVE",
"563 -10 CURVE SMOOTH",
"698 -10 OFFCURVE",
"784 81 OFFCURVE",
"791 111 CURVE SMOOTH",
"793 123 OFFCURVE",
"786 131 OFFCURVE",
"774 131 CURVE",
"762 131 LINE",
"747 131 OFFCURVE",
"743 129 OFFCURVE",
"728 113 CURVE SMOOTH",
"686 67 OFFCURVE",
"627 48 OFFCURVE",
"575 48 CURVE SMOOTH",
"506 48 OFFCURVE",
"436 95 OFFCURVE",
"460 225 CURVE",
"462 235 LINE",
"808 235 LINE",
"821 235 OFFCURVE",
"833 244 OFFCURVE",
"836 257 CURVE",
"839 272 LINE",
"860 373 OFFCURVE",
"865 530 OFFCURVE",
"679 530 CURVE SMOOTH",
"595 530 OFFCURVE",
"531 494 OFFCURVE",
"486 442 CURVE",
"473 491 OFFCURVE",
"428 530 OFFCURVE",
"327 530 CURVE SMOOTH",
"194 530 OFFCURVE",
"122 442 OFFCURVE",
"114 405 CURVE SMOOTH",
"112 393 OFFCURVE",
"120 383 OFFCURVE",
"132 383 CURVE",
"146 383 LINE",
"158 383 OFFCURVE",
"166 388 OFFCURVE",
"174 404 CURVE SMOOTH",
"192 437 OFFCURVE",
"241 472 OFFCURVE",
"315 472 CURVE SMOOTH",
"409 472 OFFCURVE",
"441 429 OFFCURVE",
"426 358 CURVE",
"420 326 LINE",
"257 304 LINE",
"136 288 OFFCURVE",
"43 229 OFFCURVE",
"24 139 CURVE SMOOTH",
"6 55 OFFCURVE",
"65 -10 OFFCURVE",
"171 -10 CURVE SMOOTH"
);
},
{
closed = 1;
nodes = (
"131 48 OFFCURVE",
"72 78 OFFCURVE",
"86 144 CURVE SMOOTH",
"97 198 OFFCURVE",
"162 235 OFFCURVE",
"274 250 CURVE",
"407 268 LINE",
"400 234 LINE",
"373 108 OFFCURVE",
"285 48 OFFCURVE",
"193 48 CURVE SMOOTH"
);
},
{
closed = 1;
nodes = (
"475 295 LINE",
"505 416 OFFCURVE",
"591 472 OFFCURVE",
"667 472 CURVE SMOOTH",
"772 472 OFFCURVE",
"804 396 OFFCURVE",
"783 295 CURVE",
"782 291 LINE",
"474 291 LINE"
);
}
);
width = 881;
},
{
anchors = (
{
name = bottom;
position = "{413, 0}";
},
{
name = top;
position = "{526, 520}";
}
);
color = 6;
layerId = "A0D8A2CD-35BA-4362-A7DB-C0E331BFD9A3";
paths = (
{
closed = 1;
nodes = (
"239 -10 OFFCURVE",
"318 -1 OFFCURVE",
"390 51 CURVE",
"430 11 OFFCURVE",
"493 -10 OFFCURVE",
"574 -10 CURVE SMOOTH",
"759 -10 OFFCURVE",
"867 94 OFFCURVE",
"878 145 CURVE SMOOTH",
"881 158 OFFCURVE",
"874 167 OFFCURVE",
"861 167 CURVE SMOOTH",
"672 167 LINE SMOOTH",
"656 167 OFFCURVE",
"650 165 OFFCURVE",
"636 153 CURVE SMOOTH",
"622 142 OFFCURVE",
"615 135 OFFCURVE",
"603 135 CURVE SMOOTH",
"574 135 OFFCURVE",
"569 156 OFFCURVE",
"577 196 CURVE SMOOTH",
"578 201 LINE",
"876 201 LINE SMOOTH",
"891 201 OFFCURVE",
"906 213 OFFCURVE",
"909 228 CURVE SMOOTH",
"915 258 LINE SMOOTH",
"944 405 OFFCURVE",
"884 530 OFFCURVE",
"688 530 CURVE SMOOTH",
"629 530 OFFCURVE",
"575 516 OFFCURVE",
"527 493 CURVE",
"499 517 OFFCURVE",
"452 530 OFFCURVE",
"378 530 CURVE SMOOTH",
"191 530 OFFCURVE",
"94 431 OFFCURVE",
"83 380 CURVE SMOOTH",
"80 367 OFFCURVE",
"87 358 OFFCURVE",
"100 358 CURVE SMOOTH",
"267 358 LINE",
"268 358 OFFCURVE",
"269 358 OFFCURVE",
"270 358 CURVE SMOOTH",
"302 358 OFFCURVE",
"312 390 OFFCURVE",
"346 390 CURVE SMOOTH",
"373 390 OFFCURVE",
"373 376 OFFCURVE",
"366 342 CURVE",
"365 339 LINE",
"256 322 LINE",
"118 299 OFFCURVE",
"20 246 OFFCURVE",
"0 149 CURVE SMOOTH",
"-19 59 OFFCURVE",
"44 -10 OFFCURVE",
"180 -10 CURVE SMOOTH"
);
},
{
closed = 1;
nodes = (
"236 138 OFFCURVE",
"225 151 OFFCURVE",
"228 166 CURVE SMOOTH",
"231 180 OFFCURVE",
"244 195 OFFCURVE",
"280 203 CURVE SMOOTH",
"342 216 LINE",
"342 215 LINE",
"331 162 OFFCURVE",
"300 138 OFFCURVE",
"261 138 CURVE SMOOTH"
);
},
{
closed = 1;
nodes = (
"605 330 LINE SMOOTH",
"605 372 OFFCURVE",
"632 390 OFFCURVE",
"658 390 CURVE SMOOTH",
"683 390 OFFCURVE",
"685 372 OFFCURVE",
"685 330 CURVE SMOOTH",
"685 326 LINE",
"605 326 LINE"
);
}
);
width = 935;
}
);
leftKerningGroup = a;
rightKerningGroup = e;
unicode = 00E6;
userData = {
com.typemytype.robofont.guides = (
{
angle = 0;
isGlobal = 0;
magnetic = 5;
x = 0;
y = "-10";
},
{
angle = 0;
isGlobal = 0;
magnetic = 5;
x = 0;
y = 530;
},
{
angle = 90;
isGlobal = 0;
magnetic = 5;
x = 473;
y = 0;
},
{
angle = 90;
isGlobal = 0;
magnetic = 5;
x = "-379";
y = 0;
},
{
angle = 90;
isGlobal = 0;
magnetic = 5;
x = 453;
y = 0;
}
);
};
},
{
glyphname = b;
layers = (
{
anchors = (
{
name = bottom;
position = "{235, 0}";
},
{
name = top;
position = "{394, 750}";
}
);
color = 6;
layerId = UUID0;
paths = (
{
closed = 1;
nodes = (
"405 -10 OFFCURVE",
"481 110 OFFCURVE",
"510 227 CURVE SMOOTH",
"515 247 OFFCURVE",
"521 273 OFFCURVE",
"524 293 CURVE SMOOTH",
"542 410 OFFCURVE",
"507 530 OFFCURVE",
"351 530 CURVE SMOOTH",
"268 530 OFFCURVE",
"218 495 OFFCURVE",
"176 451 CURVE",
"226 688 LINE SMOOTH",
"229 701 OFFCURVE",
"222 710 OFFCURVE",
"209 710 CURVE SMOOTH",
"192 710 LINE SMOOTH",
"179 710 OFFCURVE",
"168 701 OFFCURVE",
"165 688 CURVE SMOOTH",
"24 22 LINE SMOOTH",
"21 9 OFFCURVE",
"28 0 OFFCURVE",
"41 0 CURVE SMOOTH",
"58 0 LINE SMOOTH",
"71 0 OFFCURVE",
"82 9 OFFCURVE",
"85 22 CURVE SMOOTH",
"95 69 LINE",
"118 24 OFFCURVE",
"166 -10 OFFCURVE",
"249 -10 CURVE SMOOTH"
);
},
{
closed = 1;
nodes = (
"135 48 OFFCURVE",
"113 142 OFFCURVE",
"128 224 CURVE SMOOTH",
"131 244 OFFCURVE",
"139 282 OFFCURVE",
"144 302 CURVE SMOOTH",
"163 382 OFFCURVE",
"240 472 OFFCURVE",
"351 472 CURVE SMOOTH",
"468 472 OFFCURVE",
"477 384 OFFCURVE",
"462 288 CURVE SMOOTH",
"459 268 OFFCURVE",
"456 252 OFFCURVE",
"450 232 CURVE SMOOTH",
"422 137 OFFCURVE",
"363 48 OFFCURVE",
"249 48 CURVE SMOOTH"
);
}
);
width = 580;
},
{
anchors = (
{
name = bottom;
position = "{275, 0}";
},
{
name = top;
position = "{434, 750}";
}
);
color = 6;
layerId = "A0D8A2CD-35BA-4362-A7DB-C0E331BFD9A3";
paths = (
{
closed = 1;
nodes = (
"478 -10 OFFCURVE",
"571 54 OFFCURVE",
"613 221 CURVE SMOOTH",
"621 251 OFFCURVE",
"625 270 OFFCURVE",
"630 300 CURVE SMOOTH",
"658 457 OFFCURVE",
"573 530 OFFCURVE",
"457 530 CURVE SMOOTH",
"401 530 OFFCURVE",
"362 512 OFFCURVE",
"324 483 CURVE",
"367 683 LINE SMOOTH",
"370 698 OFFCURVE",
"360 710 OFFCURVE",
"345 710 CURVE SMOOTH",
"160 710 LINE SMOOTH",
"145 710 OFFCURVE",
"131 698 OFFCURVE",
"128 683 CURVE SMOOTH",
"-12 27 LINE SMOOTH",
"-15 12 OFFCURVE",
"-5 0 OFFCURVE",
"10 0 CURVE SMOOTH",
"180 0 LINE SMOOTH",
"195 0 OFFCURVE",
"209 12 OFFCURVE",
"212 27 CURVE SMOOTH",
"217 50 LINE",
"241 14 OFFCURVE",
"293 -10 OFFCURVE",
"362 -10 CURVE SMOOTH"
);
},
{
closed = 1;
nodes = (
"270 169 OFFCURVE",
"264 191 OFFCURVE",
"270 227 CURVE SMOOTH",
"274 257 OFFCURVE",
"277 271 OFFCURVE",
"285 301 CURVE SMOOTH",
"294 333 OFFCURVE",
"312 351 OFFCURVE",
"346 351 CURVE SMOOTH",
"383 351 OFFCURVE",
"387 329 OFFCURVE",
"384 293 CURVE SMOOTH",
"382 273 OFFCURVE",
"376 247 OFFCURVE",
"370 227 CURVE SMOOTH",
"358 191 OFFCURVE",
"344 169 OFFCURVE",
"307 169 CURVE SMOOTH"
);
}
);
width = 660;
}
);
leftKerningGroup = h;
rightKerningGroup = b;
unicode = 0062;
userData = {
com.typemytype.robofont.guides = (
{
angle = 0;
isGlobal = 0;
magnetic = 5;
x = 0;
y = 530;
},
{
angle = 0;
isGlobal = 0;
magnetic = 5;
x = 0;
y = "-10";
},
{
angle = 0;
isGlobal = 0;
magnetic = 5;
x = 0;
y = 710;
},
{
angle = 0;
isGlobal = 0;
magnetic = 5;
x = 0;
y = 288;
},
{
angle = 0;
isGlobal = 0;
magnetic = 5;
x = 0;
y = 232;
},
{
angle = 0;
isGlobal = 0;
magnetic = 5;
x = 0;
y = 451;
},
{
angle = 0;
isGlobal = 0;
magnetic = 5;
x = 0;
y = 69;
},
{
angle = 90;
isGlobal = 0;
magnetic = 5;
x = 121;
y = 0;
},
{
angle = 90;
isGlobal = 0;
magnetic = 5;
x = 79;
y = 0;
}
);
};
},
{
glyphname = c;
layers = (
{
anchors = (
{
name = bottom;
position = "{213, 0}";
},
{
name = top;
position = "{322, 520}";
}
);
color = 6;
layerId = UUID0;
paths = (
{
closed = 1;
nodes = (
"359 -10 OFFCURVE",
"432 77 OFFCURVE",
"453 149 CURVE SMOOTH",
"457 162 OFFCURVE",
"450 171 OFFCURVE",
"438 171 CURVE SMOOTH",
"420 171 LINE SMOOTH",
"406 171 OFFCURVE",
"402 167 OFFCURVE",
"393 150 CURVE SMOOTH",
"354 74 OFFCURVE",
"288 48 OFFCURVE",
"218 48 CURVE SMOOTH",
"127 48 OFFCURVE",
"80 100 OFFCURVE",
"102 225 CURVE SMOOTH",
"106 245 OFFCURVE",
"112 275 OFFCURVE",
"117 295 CURVE SMOOTH",
"148 420 OFFCURVE",
"230 472 OFFCURVE",
"321 472 CURVE SMOOTH",
"396 472 OFFCURVE",
"443 441 OFFCURVE",
"440 365 CURVE SMOOTH",
"439 349 OFFCURVE",
"446 344 OFFCURVE",
"460 344 CURVE SMOOTH",
"479 344 LINE SMOOTH",
"491 344 OFFCURVE",
"499 353 OFFCURVE",
"500 366 CURVE SMOOTH",
"508 438 OFFCURVE",
"467 530 OFFCURVE",
"321 530 CURVE SMOOTH",
"180 530 OFFCURVE",
"92 443 OFFCURVE",
"57 300 CURVE SMOOTH",
"52 280 OFFCURVE",
"44 240 OFFCURVE",
"40 220 CURVE SMOOTH",
"14 77 OFFCURVE",
"87 -10 OFFCURVE",
"218 -10 CURVE SMOOTH"
);
}
);
width = 535;
},
{
anchors = (
{
name = bottom;
position = "{256, 0}";
},
{
name = top;
position = "{351, 520}";
}
);
color = 6;
layerId = "A0D8A2CD-35BA-4362-A7DB-C0E331BFD9A3";
paths = (
{
closed = 1;
nodes = (
"484 -10 OFFCURVE",
"565 141 OFFCURVE",
"578 184 CURVE SMOOTH",
"582 199 OFFCURVE",
"571 211 OFFCURVE",
"556 211 CURVE SMOOTH",
"361 211 LINE SMOOTH",
"346 211 OFFCURVE",
"336 203 OFFCURVE",
"328 191 CURVE SMOOTH",
"316 172 OFFCURVE",
"309 161 OFFCURVE",
"285 161 CURVE SMOOTH",
"254 161 OFFCURVE",
"251 181 OFFCURVE",
"258 224 CURVE SMOOTH",
"261 243 OFFCURVE",
"266 266 OFFCURVE",
"273 295 CURVE SMOOTH",
"283 335 OFFCURVE",
"296 359 OFFCURVE",
"327 359 CURVE SMOOTH",
"347 359 OFFCURVE",
"352 348 OFFCURVE",
"357 329 CURVE SMOOTH",
"361 317 OFFCURVE",
"367 309 OFFCURVE",
"382 309 CURVE SMOOTH",
"577 309 LINE SMOOTH",
"592 309 OFFCURVE",
"608 321 OFFCURVE",
"610 336 CURVE SMOOTH",
"618 389 OFFCURVE",
"549 530 OFFCURVE",
"348 530 CURVE SMOOTH",
"185 530 OFFCURVE",
"68 448 OFFCURVE",
"29 300 CURVE SMOOTH",
"23 277 OFFCURVE",
"16 240 OFFCURVE",
"12 219 CURVE SMOOTH",
"-11 71 OFFCURVE",
"110 -10 OFFCURVE",
"253 -10 CURVE SMOOTH"
);
}
);
width = 621;
}
);
leftKerningGroup = o;
rightKerningGroup = c;
unicode = 0063;
userData = {
com.typemytype.robofont.guides = (
{
angle = 0;
isGlobal = 0;
magnetic = 5;
x = 0;
y = "-10";
},
{
angle = 0;
isGlobal = 0;
magnetic = 5;
x = 0;
y = 295;
},
{
angle = 0;
isGlobal = 0;
magnetic = 5;
x = 0;
y = 225;
},
{
angle = 90;
isGlobal = 0;
magnetic = 5;
x = 445;
y = 0;
},
{
angle = 90;
isGlobal = 0;
magnetic = 5;
x = 484;
y = 0;
},
{
angle = 90;
isGlobal = 0;
magnetic = 5;
x = 137;
y = 0;
},
{
angle = 90;
isGlobal = 0;
magnetic = 5;
x = 270;
y = 0;
}
);
};
},
{
glyphname = ccedilla;
layers = (
{
color = 6;
layerId = UUID0;
paths = (
{
closed = 1;
nodes = (
"239 -220 OFFCURVE",
"272 -183 OFFCURVE",
"282 -135 CURVE SMOOTH",
"293 -87 OFFCURVE",
"264 -50 OFFCURVE",
"225 -50 CURVE SMOOTH",
"210 -50 OFFCURVE",
"194 -52 OFFCURVE",
"185 -57 CURVE",
"219 -10 LINE",
"359 -9 OFFCURVE",
"432 77 OFFCURVE",
"453 149 CURVE SMOOTH",
"457 162 OFFCURVE",
"450 171 OFFCURVE",
"438 171 CURVE",
"420 171 LINE",
"406 171 OFFCURVE",
"402 167 OFFCURVE",
"393 150 CURVE SMOOTH",
"354 74 OFFCURVE",
"288 48 OFFCURVE",
"218 48 CURVE SMOOTH",
"127 48 OFFCURVE",
"80 100 OFFCURVE",
"102 225 CURVE SMOOTH",
"106 245 OFFCURVE",
"112 275 OFFCURVE",
"117 295 CURVE SMOOTH",
"148 420 OFFCURVE",
"230 472 OFFCURVE",
"321 472 CURVE SMOOTH",
"396 472 OFFCURVE",
"443 441 OFFCURVE",
"440 365 CURVE SMOOTH",
"439 349 OFFCURVE",
"446 344 OFFCURVE",
"460 344 CURVE",
"479 344 LINE",
"491 344 OFFCURVE",
"499 353 OFFCURVE",
"500 366 CURVE SMOOTH",
"508 438 OFFCURVE",
"467 530 OFFCURVE",
"321 530 CURVE SMOOTH",
"180 530 OFFCURVE",
"92 443 OFFCURVE",
"57 300 CURVE SMOOTH",
"52 280 OFFCURVE",
"44 240 OFFCURVE",
"40 220 CURVE SMOOTH",
"17 97 OFFCURVE",
"68 15 OFFCURVE",
"166 -5 CURVE",
"135 -53 LINE",
"129 -63 OFFCURVE",
"119 -75 OFFCURVE",
"124 -83 CURVE",
"136 -100 LINE",
"148 -116 OFFCURVE",
"165 -96 OFFCURVE",
"197 -96 CURVE SMOOTH",
"220 -96 OFFCURVE",
"237 -110 OFFCURVE",
"232 -134 CURVE SMOOTH",
"227 -159 OFFCURVE",
"204 -174 OFFCURVE",
"181 -174 CURVE SMOOTH",
"134 -174 OFFCURVE",
"133 -142 OFFCURVE",
"116 -156 CURVE",
"100 -169 LINE",
"80 -184 OFFCURVE",
"124 -220 OFFCURVE",
"181 -220 CURVE SMOOTH"
);
}
);
width = 535;
},
{
color = 6;
layerId = "A0D8A2CD-35BA-4362-A7DB-C0E331BFD9A3";
paths = (
{
closed = 1;
nodes = (
"276 -220 OFFCURVE",
"312 -188 OFFCURVE",
"323 -135 CURVE SMOOTH",
"334 -82 OFFCURVE",
"313 -40 OFFCURVE",
"262 -40 CURVE SMOOTH",
"258 -40 OFFCURVE",
"240 -42 OFFCURVE",
"231 -45 CURVE",
"256 -10 LINE",
"485 -8 OFFCURVE",
"565 141 OFFCURVE",
"578 184 CURVE SMOOTH",
"582 199 OFFCURVE",
"571 211 OFFCURVE",
"556 211 CURVE",
"361 211 LINE",
"346 211 OFFCURVE",
"336 203 OFFCURVE",
"328 191 CURVE SMOOTH",
"316 172 OFFCURVE",
"309 161 OFFCURVE",
"285 161 CURVE SMOOTH",
"254 161 OFFCURVE",
"251 181 OFFCURVE",
"258 224 CURVE SMOOTH",
"261 243 OFFCURVE",
"266 266 OFFCURVE",
"273 295 CURVE SMOOTH",
"283 335 OFFCURVE",
"296 359 OFFCURVE",
"327 359 CURVE SMOOTH",
"347 359 OFFCURVE",
"352 348 OFFCURVE",
"357 329 CURVE SMOOTH",
"361 317 OFFCURVE",
"367 309 OFFCURVE",
"382 309 CURVE",
"577 309 LINE",
"592 309 OFFCURVE",
"608 321 OFFCURVE",
"610 336 CURVE SMOOTH",
"618 389 OFFCURVE",
"549 530 OFFCURVE",
"348 530 CURVE SMOOTH",
"185 530 OFFCURVE",
"68 448 OFFCURVE",
"29 300 CURVE SMOOTH",
"23 277 OFFCURVE",
"16 240 OFFCURVE",
"12 219 CURVE SMOOTH",
"-8 94 OFFCURVE",
"75 18 OFFCURVE",
"186 -3 CURVE",
"161 -42 LINE",
"148 -61 OFFCURVE",
"148 -69 OFFCURVE",
"155 -78 CURVE",
"176 -106 LINE",
"186 -119 OFFCURVE",
"212 -106 OFFCURVE",
"230 -106 CURVE SMOOTH",
"250 -106 OFFCURVE",
"255 -118 OFFCURVE",
"253 -130 CURVE SMOOTH",
"250 -142 OFFCURVE",
"239 -154 OFFCURVE",
"220 -154 CURVE SMOOTH",
"186 -154 OFFCURVE",
"185 -136 OFFCURVE",
"164 -151 CURVE",
"140 -169 LINE",
"112 -189 OFFCURVE",
"163 -220 OFFCURVE",
"216 -220 CURVE SMOOTH"
);
}
);
width = 621;
}
);
leftKerningGroup = o;
rightKerningGroup = c;
unicode = 00E7;
},
{
glyphname = d;
layers = (
{
anchors = (
{
name = bottom;
position = "{235, 0}";
},
{
name = center;
position = "{508, 615}";
},
{
name = top;
position = "{394, 750}";
},
{
name = topright;
position = "{641, 710}";
}
);
color = 6;
layerId = UUID0;
paths = (
{
closed = 1;
nodes = (
"299 -10 OFFCURVE",
"345 24 OFFCURVE",
"387 69 CURVE",
"377 22 LINE SMOOTH",
"374 9 OFFCURVE",
"382 0 OFFCURVE",
"395 0 CURVE SMOOTH",
"412 0 LINE SMOOTH",
"425 0 OFFCURVE",
"435 9 OFFCURVE",
"438 22 CURVE SMOOTH",
"580 688 LINE SMOOTH",
"583 701 OFFCURVE",
"575 710 OFFCURVE",
"562 710 CURVE SMOOTH",
"545 710 LINE SMOOTH",
"532 710 OFFCURVE",
"522 701 OFFCURVE",
"519 688 CURVE SMOOTH",
"468 451 LINE",
"445 495 OFFCURVE",
"402 530 OFFCURVE",
"314 530 CURVE SMOOTH",
"153 530 OFFCURVE",
"82 404 OFFCURVE",
"52 288 CURVE SMOOTH",
"47 268 OFFCURVE",
"43 252 OFFCURVE",
"40 232 CURVE SMOOTH",
"22 115 OFFCURVE",
"56 -10 OFFCURVE",
"211 -10 CURVE SMOOTH"
);
},
{
closed = 1;
nodes = (
"102 48 OFFCURVE",
"87 136 OFFCURVE",
"102 232 CURVE SMOOTH",
"105 252 OFFCURVE",
"108 268 OFFCURVE",
"114 288 CURVE SMOOTH",
"142 383 OFFCURVE",
"205 472 OFFCURVE",
"314 472 CURVE SMOOTH",
"425 472 OFFCURVE",
"452 382 OFFCURVE",
"437 302 CURVE SMOOTH",
"433 282 OFFCURVE",
"425 244 OFFCURVE",
"420 224 CURVE SMOOTH",
"400 142 OFFCURVE",
"325 48 OFFCURVE",
"211 48 CURVE SMOOTH"
);
}
);
width = 579;
},
{
anchors = (
{
name = bottom;
position = "{276, 0}";
},
{
name = center;
position = "{546, 612}";
},
{
name = top;
position = "{435, 750}";
},
{
name = topright;
position = "{762, 710}";
}
);
color = 6;
layerId = "A0D8A2CD-35BA-4362-A7DB-C0E331BFD9A3";
paths = (
{
closed = 1;
nodes = (
"257 -10 OFFCURVE",
"299 14 OFFCURVE",
"339 50 CURVE",
"334 27 LINE SMOOTH",
"331 12 OFFCURVE",
"341 0 OFFCURVE",
"356 0 CURVE SMOOTH",
"526 0 LINE SMOOTH",
"541 0 OFFCURVE",
"555 12 OFFCURVE",
"558 27 CURVE SMOOTH",
"698 683 LINE SMOOTH",
"701 698 OFFCURVE",
"691 710 OFFCURVE",
"676 710 CURVE SMOOTH",
"491 710 LINE SMOOTH",
"476 710 OFFCURVE",
"462 698 OFFCURVE",
"459 683 CURVE SMOOTH",
"417 483 LINE",
"391 512 OFFCURVE",
"339 530 OFFCURVE",
"283 530 CURVE SMOOTH",
"167 530 OFFCURVE",
"72 457 OFFCURVE",
"32 300 CURVE SMOOTH",
"25 270 OFFCURVE",
"21 251 OFFCURVE",
"15 221 CURVE SMOOTH",
"-13 54 OFFCURVE",
"72 -10 OFFCURVE",
"188 -10 CURVE SMOOTH"
);
},
{
closed = 1;
nodes = (
"262 169 OFFCURVE",
"258 191 OFFCURVE",
"262 227 CURVE SMOOTH",
"264 247 OFFCURVE",
"270 273 OFFCURVE",
"276 293 CURVE SMOOTH",
"287 329 OFFCURVE",
"301 351 OFFCURVE",
"338 351 CURVE SMOOTH",
"372 351 OFFCURVE",
"382 333 OFFCURVE",
"377 301 CURVE SMOOTH",
"373 271 OFFCURVE",
"370 257 OFFCURVE",
"362 227 CURVE SMOOTH",
"352 191 OFFCURVE",
"336 169 OFFCURVE",
"299 169 CURVE SMOOTH"
);
}
);
width = 661;
}
);
leftKerningGroup = d;
rightKerningGroup = d;
unicode = 0064;
userData = {
com.typemytype.robofont.guides = (
{
angle = 0;
isGlobal = 0;
magnetic = 5;
x = 0;
y = 650;
},
{
angle = 0;
isGlobal = 0;
magnetic = 5;
x = 0;
y = 530;
},
{
angle = 90;
isGlobal = 0;
magnetic = 5;
x = 438;
y = 0;
},
{
angle = 90;
isGlobal = 0;
magnetic = 5;
x = 499;
y = 0;
}
);
};
},
{
glyphname = eth;
layers = (
{
color = 6;
layerId = UUID0;
paths = (
{
closed = 1;
nodes = (
"365 -10 OFFCURVE",
"463 92 OFFCURVE",
"492 229 CURVE SMOOTH",
"492 230 OFFCURVE",
"492 231 OFFCURVE",
"493 232 CURVE SMOOTH",
"527 402 OFFCURVE",
"513 501 OFFCURVE",
"471 575 CURVE",
"539 599 LINE",
"556 605 OFFCURVE",
"563 609 OFFCURVE",
"566 624 CURVE",
"570 643 LINE",
"572 655 OFFCURVE",
"566 661 OFFCURVE",
"555 661 CURVE SMOOTH",
"551 661 OFFCURVE",
"546 660 OFFCURVE",
"541 658 CURVE",
"440 622 LINE",
"424 644 OFFCURVE",
"406 665 OFFCURVE",
"385 687 CURVE SMOOTH",
"377 695 OFFCURVE",
"368 700 OFFCURVE",
"352 700 CURVE",
"332 700 LINE",
"320 700 OFFCURVE",
"310 692 OFFCURVE",
"308 680 CURVE SMOOTH",
"307 675 OFFCURVE",
"308 669 OFFCURVE",
"320 658 CURVE SMOOTH",
"340 638 OFFCURVE",
"359 618 OFFCURVE",
"375 599 CURVE",
"307 575 LINE",
"290 569 OFFCURVE",
"283 565 OFFCURVE",
"280 550 CURVE",
"276 531 LINE",
"274 519 OFFCURVE",
"280 513 OFFCURVE",
"291 513 CURVE SMOOTH",
"295 513 OFFCURVE",
"299 514 OFFCURVE",
"305 516 CURVE",
"409 553 LINE",
"429 518 OFFCURVE",
"442 479 OFFCURVE",
"448 431 CURVE",
"419 456 OFFCURVE",
"377 470 OFFCURVE",
"324 470 CURVE SMOOTH",
"180 470 OFFCURVE",
"82 368 OFFCURVE",
"54 231 CURVE",
"24 94 OFFCURVE",
"78 -10 OFFCURVE",
"222 -10 CURVE SMOOTH"
);
},
{
closed = 1;
nodes = (
"131 48 OFFCURVE",
"95 127 OFFCURVE",
"114 226 CURVE SMOOTH",
"114 227 OFFCURVE",
"115 229 OFFCURVE",
"116 232 CURVE SMOOTH",
"137 332 OFFCURVE",
"207 412 OFFCURVE",
"312 412 CURVE SMOOTH",
"417 412 OFFCURVE",
"453 332 OFFCURVE",
"432 232 CURVE SMOOTH",
"431 230 OFFCURVE",
"431 229 OFFCURVE",
"431 228 CURVE SMOOTH",
"408 128 OFFCURVE",
"338 48 OFFCURVE",
"234 48 CURVE SMOOTH"
);
}
);
width = 550;
},
{
color = 6;
hints = (
{
horizontal = 1;
place = "{0, 0}";
type = Tag;
}
);
layerId = "A0D8A2CD-35BA-4362-A7DB-C0E331BFD9A3";
paths = (
{
closed = 1;
nodes = (
"438 -10 OFFCURVE",
"563 68 OFFCURVE",
"605 225 CURVE SMOOTH",
"610 245 OFFCURVE",
"615 268 OFFCURVE",
"618 288 CURVE SMOOTH",
"640 424 OFFCURVE",
"623 524 OFFCURVE",
"577 601 CURVE",
"621 617 LINE",
"639 623 OFFCURVE",
"647 632 OFFCURVE",
"650 650 CURVE",
"656 678 LINE",
"659 690 OFFCURVE",
"652 699 OFFCURVE",
"640 699 CURVE SMOOTH",
"638 699 OFFCURVE",
"634 698 OFFCURVE",
"628 696 CURVE",
"531 661 LINE",
"523 670 OFFCURVE",
"512 678 OFFCURVE",
"503 687 CURVE SMOOTH",
"495 694 OFFCURVE",
"480 700 OFFCURVE",
"453 700 CURVE",
"265 700 LINE",
"253 700 OFFCURVE",
"241 690 OFFCURVE",
"238 678 CURVE SMOOTH",
"237 673 OFFCURVE",
"240 665 OFFCURVE",
"247 659 CURVE SMOOTH",
"275 637 OFFCURVE",
"301 613 OFFCURVE",
"322 586 CURVE",
"242 557 LINE",
"224 551 OFFCURVE",
"216 542 OFFCURVE",
"213 524 CURVE",
"207 496 LINE",
"204 484 OFFCURVE",
"211 475 OFFCURVE",
"223 475 CURVE SMOOTH",
"225 475 OFFCURVE",
"229 476 OFFCURVE",
"235 478 CURVE",
"363 524 LINE",
"371 506 OFFCURVE",
"377 488 OFFCURVE",
"381 470 CURVE",
"376 470 OFFCURVE",
"372 470 OFFCURVE",
"367 470 CURVE",
"204 470 OFFCURVE",
"61 392 OFFCURVE",
"26 230 CURVE SMOOTH",
"-8 68 OFFCURVE",
"91 -10 OFFCURVE",
"265 -10 CURVE SMOOTH"
);
},
{
closed = 1;
nodes = (
"262 150 OFFCURVE",
"260 171 OFFCURVE",
"266 204 CURVE SMOOTH",
"269 224 OFFCURVE",
"271 236 OFFCURVE",
"277 256 CURVE SMOOTH",
"285 288 OFFCURVE",
"296 310 OFFCURVE",
"333 310 CURVE SMOOTH",
"370 310 OFFCURVE",
"371 288 OFFCURVE",
"367 256 CURVE SMOOTH",
"363 236 OFFCURVE",
"361 223 OFFCURVE",
"355 203 CURVE SMOOTH",
"348 171 OFFCURVE",
"333 150 OFFCURVE",
"299 150 CURVE SMOOTH"
);
}
);
width = 638;
}
);
unicode = 00F0;
userData = {
com.typemytype.robofont.guides = (
{
angle = 0;
isGlobal = 0;
magnetic = 5;
x = 0;
y = 512;
},
{
angle = 90;
isGlobal = 0;
magnetic = 5;
x = 214;
y = 0;
},
{
angle = 90;
isGlobal = 0;
magnetic = 5;
x = 484;
y = 0;
}
);
};
},
{
glyphname = dcroat;
layers = (
{
color = 6;
layerId = UUID0;
paths = (
{
closed = 1;
nodes = (
"287 -10 OFFCURVE",
"347 24 OFFCURVE",
"389 69 CURVE",
"379 22 LINE SMOOTH",
"376 9 OFFCURVE",
"384 0 OFFCURVE",
"397 0 CURVE SMOOTH",
"414 0 LINE SMOOTH",
"427 0 OFFCURVE",
"437 9 OFFCURVE",
"440 22 CURVE SMOOTH",
"557 571 LINE",
"615 571 LINE SMOOTH",
"628 571 OFFCURVE",
"639 580 OFFCURVE",
"642 593 CURVE SMOOTH",
"645 607 LINE SMOOTH",
"647 620 OFFCURVE",
"640 629 OFFCURVE",
"627 629 CURVE SMOOTH",
"569 629 LINE",
"582 688 LINE SMOOTH",
"585 701 OFFCURVE",
"577 710 OFFCURVE",
"564 710 CURVE SMOOTH",
"547 710 LINE SMOOTH",
"534 710 OFFCURVE",
"524 701 OFFCURVE",
"521 688 CURVE SMOOTH",
"508 629 LINE",
"450 629 LINE SMOOTH",
"437 629 OFFCURVE",
"426 620 OFFCURVE",
"424 607 CURVE SMOOTH",
"421 593 LINE SMOOTH",
"418 580 OFFCURVE",
"425 571 OFFCURVE",
"438 571 CURVE SMOOTH",
"496 571 LINE",
"470 451 LINE",
"447 495 OFFCURVE",
"402 530 OFFCURVE",
"319 530 CURVE SMOOTH",
"143 530 OFFCURVE",
"77 385 OFFCURVE",
"54 288 CURVE SMOOTH",
"48 268 OFFCURVE",
"45 252 OFFCURVE",
"42 232 CURVE SMOOTH",
"24 135 OFFCURVE",
"28 -10 OFFCURVE",
"204 -10 CURVE SMOOTH"
);
},
{
closed = 1;
nodes = (
"106 48 OFFCURVE",
"85 136 OFFCURVE",
"103 232 CURVE SMOOTH",
"106 252 OFFCURVE",
"109 268 OFFCURVE",
"115 288 CURVE SMOOTH",
"138 384 OFFCURVE",
"196 472 OFFCURVE",
"313 472 CURVE SMOOTH",
"424 472 OFFCURVE",
"454 382 OFFCURVE",
"439 302 CURVE SMOOTH",
"435 282 OFFCURVE",
"427 244 OFFCURVE",
"422 224 CURVE SMOOTH",
"402 142 OFFCURVE",
"337 48 OFFCURVE",
"223 48 CURVE SMOOTH"
);
}
);
width = 580;
},
{
color = 6;
layerId = "A0D8A2CD-35BA-4362-A7DB-C0E331BFD9A3";
paths = (
{
closed = 1;
nodes = (
"246 -10 OFFCURVE",
"301 18 OFFCURVE",
"340 57 CURVE",
"333 27 LINE SMOOTH",
"330 12 OFFCURVE",
"340 0 OFFCURVE",
"355 0 CURVE SMOOTH",
"525 0 LINE SMOOTH",
"540 0 OFFCURVE",
"554 12 OFFCURVE",
"557 27 CURVE SMOOTH",
"668 548 LINE",
"698 548 LINE SMOOTH",
"713 548 OFFCURVE",
"728 560 OFFCURVE",
"731 575 CURVE SMOOTH",
"742 626 LINE SMOOTH",
"745 641 OFFCURVE",
"735 653 OFFCURVE",
"720 653 CURVE SMOOTH",
"690 653 LINE",
"697 683 LINE SMOOTH",
"700 698 OFFCURVE",
"690 710 OFFCURVE",
"675 710 CURVE SMOOTH",
"490 710 LINE SMOOTH",
"475 710 OFFCURVE",
"461 698 OFFCURVE",
"458 683 CURVE SMOOTH",
"451 653 LINE",
"421 653 LINE SMOOTH",
"406 653 OFFCURVE",
"392 641 OFFCURVE",
"389 626 CURVE SMOOTH",
"378 575 LINE SMOOTH",
"375 560 OFFCURVE",
"384 548 OFFCURVE",
"399 548 CURVE SMOOTH",
"429 548 LINE",
"415 483 LINE",
"389 512 OFFCURVE",
"348 530 OFFCURVE",
"292 530 CURVE SMOOTH",
"176 530 OFFCURVE",
"71 457 OFFCURVE",
"31 300 CURVE SMOOTH",
"24 270 OFFCURVE",
"20 251 OFFCURVE",
"14 221 CURVE SMOOTH",
"-14 54 OFFCURVE",
"61 -10 OFFCURVE",
"177 -10 CURVE SMOOTH"
);
},
{
closed = 1;
nodes = (
"261 169 OFFCURVE",
"257 191 OFFCURVE",
"261 227 CURVE SMOOTH",
"263 247 OFFCURVE",
"269 273 OFFCURVE",
"275 293 CURVE SMOOTH",
"286 329 OFFCURVE",
"300 351 OFFCURVE",
"337 351 CURVE SMOOTH",
"371 351 OFFCURVE",
"381 333 OFFCURVE",
"376 301 CURVE SMOOTH",
"372 271 OFFCURVE",
"369 257 OFFCURVE",
"361 227 CURVE SMOOTH",
"351 191 OFFCURVE",
"335 169 OFFCURVE",
"298 169 CURVE SMOOTH"
);
}
);
width = 661;
}
);
leftKerningGroup = d;
rightKerningGroup = d;
unicode = 0111;
userData = {
com.typemytype.robofont.guides = (
{
angle = 0;
isGlobal = 0;
magnetic = 5;
x = 0;
y = 600;
}
);
};
},
{
glyphname = e;
layers = (
{
anchors = (
{
name = bottom;
position = "{217, 0}";
},
{
name = ogonek;
position = "{437, 10}";
},
{
name = top;
position = "{336, 520}";
}
);
color = 6;
layerId = UUID0;
paths = (
{
closed = 1;
nodes = (
"349 -10 OFFCURVE",
"445 73 OFFCURVE",
"455 111 CURVE SMOOTH",
"458 123 OFFCURVE",
"450 131 OFFCURVE",
"438 131 CURVE SMOOTH",
"422 131 LINE SMOOTH",
"407 131 OFFCURVE",
"404 130 OFFCURVE",
"388 113 CURVE SMOOTH",
"374 97 OFFCURVE",
"320 48 OFFCURVE",
"235 48 CURVE SMOOTH",
"138 48 OFFCURVE",
"100 134 OFFCURVE",
"115 225 CURVE SMOOTH",
"116 228 OFFCURVE",
"117 235 OFFCURVE",
"117 235 CURVE",
"473 235 LINE SMOOTH",
"486 235 OFFCURVE",
"498 244 OFFCURVE",
"501 257 CURVE SMOOTH",
"504 272 LINE SMOOTH",
"536 432 OFFCURVE",
"477 530 OFFCURVE",
"338 530 CURVE SMOOTH",
"208 530 OFFCURVE",
"109 436 OFFCURVE",
"70 300 CURVE SMOOTH",
"65 280 OFFCURVE",
"56 240 OFFCURVE",
"53 220 CURVE SMOOTH",
"34 83 OFFCURVE",
"94 -10 OFFCURVE",
"223 -10 CURVE SMOOTH"
);
},
{
closed = 1;
nodes = (
"130 295 LINE SMOOTH",
"155 394 OFFCURVE",
"226 472 OFFCURVE",
"326 472 CURVE SMOOTH",
"426 472 OFFCURVE",
"473 394 OFFCURVE",
"448 295 CURVE SMOOTH",
"447 291 LINE",
"129 291 LINE"
);
}
);
width = 544;
},
{
anchors = (
{
name = bottom;
position = "{256, 0}";
},
{
name = ogonek;
position = "{403, 119}";
},
{
name = top;
position = "{366, 520}";
}
);
color = 6;
layerId = "A0D8A2CD-35BA-4362-A7DB-C0E331BFD9A3";
paths = (
{
closed = 1;
nodes = (
"448 -10 OFFCURVE",
"553 94 OFFCURVE",
"567 145 CURVE SMOOTH",
"571 158 OFFCURVE",
"563 167 OFFCURVE",
"550 167 CURVE SMOOTH",
"361 167 LINE SMOOTH",
"345 167 OFFCURVE",
"339 165 OFFCURVE",
"325 153 CURVE SMOOTH",
"311 142 OFFCURVE",
"304 135 OFFCURVE",
"292 135 CURVE SMOOTH",
"263 135 OFFCURVE",
"257 156 OFFCURVE",
"266 196 CURVE SMOOTH",
"266 198 OFFCURVE",
"267 199 OFFCURVE",
"267 201 CURVE",
"565 201 LINE SMOOTH",
"580 201 OFFCURVE",
"595 213 OFFCURVE",
"598 228 CURVE SMOOTH",
"604 258 LINE SMOOTH",
"633 405 OFFCURVE",
"573 530 OFFCURVE",
"377 530 CURVE SMOOTH",
"206 530 OFFCURVE",
"75 438 OFFCURVE",
"36 266 CURVE SMOOTH",
"35 264 OFFCURVE",
"35 261 OFFCURVE",
"34 259 CURVE SMOOTH",
"-5 72 OFFCURVE",
"88 -10 OFFCURVE",
"263 -10 CURVE SMOOTH"
);
},
{
closed = 1;
nodes = (
"294 327 LINE",
"303 371 OFFCURVE",
"321 390 OFFCURVE",
"347 390 CURVE SMOOTH",
"373 390 OFFCURVE",
"383 371 OFFCURVE",
"374 327 CURVE",
"374 326 LINE",
"294 326 LINE"
);
}
);
width = 621;
}
);
leftKerningGroup = o;
rightKerningGroup = e;
unicode = 0065;
userData = {
com.typemytype.robofont.guides = (
{
angle = 0;
isGlobal = 0;
magnetic = 5;
x = 0;
y = "-10";
},
{
angle = 90;
isGlobal = 0;
magnetic = 5;
x = 275;
y = 0;
},
{
angle = 90;
isGlobal = 0;
magnetic = 5;
x = 496;
y = 0;
},
{
angle = 90;
isGlobal = 0;
magnetic = 5;
x = 61;
y = 0;
},
{
angle = 90;
isGlobal = 0;
magnetic = 5;
x = 122;
y = 0;
},
{
angle = 90;
isGlobal = 0;
magnetic = 5;
x = 430;
y = 0;
}
);
};
},
{
glyphname = eogonek;
layers = (
{
anchors = (
{
name = top;
position = "{329, 520}";
}
);
color = 6;
hints = (
{
horizontal = 1;
place = "{150, 0}";
type = Tag;
}
);
layerId = UUID0;
paths = (
{
closed = 1;
nodes = (
"249 -220 LINE",
"262 -220 OFFCURVE",
"273 -211 OFFCURVE",
"276 -198 CURVE",
"279 -185 LINE",
"282 -172 OFFCURVE",
"275 -163 OFFCURVE",
"262 -163 CURVE",
"247 -163 LINE",
"203 -163 OFFCURVE",
"177 -133 OFFCURVE",
"188 -82 CURVE SMOOTH",
"198 -35 OFFCURVE",
"228 -14 OFFCURVE",
"270 -6 CURVE SMOOTH",
"372 14 OFFCURVE",
"447 77 OFFCURVE",
"456 111 CURVE SMOOTH",
"459 123 OFFCURVE",
"451 131 OFFCURVE",
"439 131 CURVE SMOOTH",
"423 131 LINE SMOOTH",
"408 131 OFFCURVE",
"405 130 OFFCURVE",
"389 113 CURVE SMOOTH",
"375 97 OFFCURVE",
"321 48 OFFCURVE",
"236 48 CURVE SMOOTH",
"139 48 OFFCURVE",
"101 134 OFFCURVE",
"116 225 CURVE SMOOTH",
"118 235 LINE",
"474 235 LINE SMOOTH",
"487 235 OFFCURVE",
"499 244 OFFCURVE",
"502 257 CURVE SMOOTH",
"505 272 LINE SMOOTH",
"539 432 OFFCURVE",
"478 530 OFFCURVE",
"339 530 CURVE SMOOTH",
"209 530 OFFCURVE",
"110 436 OFFCURVE",
"71 300 CURVE SMOOTH",
"66 280 OFFCURVE",
"57 240 OFFCURVE",
"54 220 CURVE SMOOTH",
"38 106 OFFCURVE",
"76 23 OFFCURVE",
"164 -2 CURVE",
"146 -23 OFFCURVE",
"134 -51 OFFCURVE",
"128 -82 CURVE SMOOTH",
"110 -167 OFFCURVE",
"149 -220 OFFCURVE",
"230 -220 CURVE"
);
},
{
closed = 1;
nodes = (
"130 295 LINE SMOOTH",
"151 395 OFFCURVE",
"226 472 OFFCURVE",
"326 472 CURVE SMOOTH",
"426 472 OFFCURVE",
"469 395 OFFCURVE",
"448 295 CURVE SMOOTH",
"447 291 LINE",
"129 291 LINE"
);
}
);
width = 547;
},
{
anchors = (
{
name = top;
position = "{367, 520}";
}
);
color = 6;
layerId = "A0D8A2CD-35BA-4362-A7DB-C0E331BFD9A3";
paths = (
{
closed = 1;
nodes = (
"286 -220 LINE",
"301 -220 OFFCURVE",
"316 -208 OFFCURVE",
"319 -193 CURVE",
"334 -125 LINE",
"337 -110 OFFCURVE",
"327 -98 OFFCURVE",
"312 -98 CURVE",
"302 -98 LINE",
"263 -98 OFFCURVE",
"258 -70 OFFCURVE",
"263 -49 CURVE SMOOTH",
"267 -28 OFFCURVE",
"287 -12 OFFCURVE",
"330 -5 CURVE",
"473 15 OFFCURVE",
"554 100 OFFCURVE",
"567 145 CURVE SMOOTH",
"571 158 OFFCURVE",
"563 167 OFFCURVE",
"550 167 CURVE",
"361 167 LINE",
"345 167 OFFCURVE",
"339 165 OFFCURVE",
"325 153 CURVE SMOOTH",
"311 142 OFFCURVE",
"304 135 OFFCURVE",
"292 135 CURVE SMOOTH",
"263 135 OFFCURVE",
"257 156 OFFCURVE",
"266 196 CURVE",
"267 201 LINE",
"565 201 LINE",
"580 201 OFFCURVE",
"594 213 OFFCURVE",
"598 228 CURVE",
"604 258 LINE",
"635 405 OFFCURVE",
"573 530 OFFCURVE",
"377 530 CURVE SMOOTH",
"206 530 OFFCURVE",
"74 437 OFFCURVE",
"35 264 CURVE SMOOTH",
"35 262 OFFCURVE",
"35 261 OFFCURVE",
"34 259 CURVE SMOOTH",
"4 116 OFFCURVE",
"51 34 OFFCURVE",
"154 3 CURVE",
"146 -13 OFFCURVE",
"141 -30 OFFCURVE",
"137 -49 CURVE SMOOTH",
"117 -144 OFFCURVE",
"151 -220 OFFCURVE",
"272 -220 CURVE SMOOTH"
);
},
{
closed = 1;
nodes = (
"294 327 LINE",
"303 371 OFFCURVE",
"321 390 OFFCURVE",
"347 390 CURVE SMOOTH",
"373 390 OFFCURVE",
"383 371 OFFCURVE",
"374 327 CURVE",
"374 326 LINE",
"294 326 LINE"
);
}
);
width = 623;
}
);
leftKerningGroup = o;
rightKerningGroup = e;
unicode = 0119;
userData = {
com.typemytype.robofont.guides = (
{
angle = 0;
isGlobal = 0;
magnetic = 5;
x = 0;
y = 259;
},
{
angle = 0;
isGlobal = 0;
magnetic = 5;
x = 0;
y = "-220";
},
{
angle = 90;
isGlobal = 0;
magnetic = 5;
x = 339;
y = 0;
}
);
};
},
{
glyphname = f;
layers = (
{
anchors = (
{
name = bottom;
position = "{123, 0}";
},
{
name = top;
position = "{282, 750}";
}
);
color = 6;
layerId = UUID0;
paths = (
{
closed = 1;
nodes = (
"104 0 LINE SMOOTH",
"117 0 OFFCURVE",
"127 9 OFFCURVE",
"130 22 CURVE SMOOTH",
"224 462 LINE",
"356 462 LINE SMOOTH",
"369 462 OFFCURVE",
"380 471 OFFCURVE",
"382 484 CURVE SMOOTH",
"385 498 LINE SMOOTH",
"388 511 OFFCURVE",
"381 520 OFFCURVE",
"368 520 CURVE SMOOTH",
"236 520 LINE",
"247 572 LINE SMOOTH",
"262 643 OFFCURVE",
"297 682 OFFCURVE",
"367 682 CURVE SMOOTH",
"412 682 LINE SMOOTH",
"425 682 OFFCURVE",
"436 691 OFFCURVE",
"439 704 CURVE SMOOTH",
"442 718 LINE SMOOTH",
"445 731 OFFCURVE",
"438 740 OFFCURVE",
"425 740 CURVE SMOOTH",
"367 740 LINE SMOOTH",
"263 740 OFFCURVE",
"206 666 OFFCURVE",
"187 577 CURVE SMOOTH",
"175 520 LINE",
"86 520 LINE SMOOTH",
"73 520 OFFCURVE",
"62 511 OFFCURVE",
"59 498 CURVE SMOOTH",
"56 484 LINE SMOOTH",
"54 471 OFFCURVE",
"61 462 OFFCURVE",
"74 462 CURVE SMOOTH",
"163 462 LINE",
"69 22 LINE SMOOTH",
"66 9 OFFCURVE",
"74 0 OFFCURVE",
"87 0 CURVE SMOOTH"
);
}
);
width = 356;
},
{
anchors = (
{
name = bottom;
position = "{191, 0}";
},
{
name = top;
position = "{350, 750}";
}
);
color = 6;
layerId = "A0D8A2CD-35BA-4362-A7DB-C0E331BFD9A3";
paths = (
{
closed = 1;
nodes = (
"251 0 LINE SMOOTH",
"266 0 OFFCURVE",
"280 12 OFFCURVE",
"283 27 CURVE SMOOTH",
"351 345 LINE",
"465 345 LINE SMOOTH",
"480 345 OFFCURVE",
"494 357 OFFCURVE",
"498 372 CURVE SMOOTH",
"523 493 LINE SMOOTH",
"526 508 OFFCURVE",
"517 520 OFFCURVE",
"502 520 CURVE SMOOTH",
"388 520 LINE",
"391 532 LINE SMOOTH",
"395 553 OFFCURVE",
"411 565 OFFCURVE",
"441 565 CURVE SMOOTH",
"522 565 LINE SMOOTH",
"537 565 OFFCURVE",
"551 577 OFFCURVE",
"554 592 CURVE SMOOTH",
"580 713 LINE SMOOTH",
"583 728 OFFCURVE",
"574 740 OFFCURVE",
"559 740 CURVE SMOOTH",
"446 740 LINE SMOOTH",
"301 740 OFFCURVE",
"198 701 OFFCURVE",
"163 537 CURVE SMOOTH",
"159 520 LINE",
"90 520 LINE SMOOTH",
"75 520 OFFCURVE",
"60 508 OFFCURVE",
"57 493 CURVE SMOOTH",
"32 372 LINE SMOOTH",
"28 357 OFFCURVE",
"38 345 OFFCURVE",
"53 345 CURVE SMOOTH",
"122 345 LINE",
"54 27 LINE SMOOTH",
"51 12 OFFCURVE",
"61 0 OFFCURVE",
"76 0 CURVE SMOOTH"
);
}
);
width = 491;
}
);
leftKerningGroup = f;
rightKerningGroup = f;
unicode = 0066;
userData = {
com.typemytype.robofont.guides = (
{
angle = 0;
isGlobal = 0;
magnetic = 5;
x = 0;
y = 345;
},
{
angle = 0;
isGlobal = 0;
magnetic = 5;
x = 0;
y = 9;
},
{
angle = 0;
isGlobal = 0;
magnetic = 5;
x = 0;
y = 740;
},
{
angle = 90;
isGlobal = 0;
magnetic = 5;
x = 297;
y = 0;
},
{
angle = 90;
isGlobal = 0;
magnetic = 5;
x = 371;
y = 0;
}
);
};
},
{
glyphname = g;
layers = (
{
anchors = (
{
name = bottom;
position = "{187, -225}";
},
{
name = top;
position = "{329, 520}";
}
);
color = 6;
layerId = UUID0;
paths = (
{
closed = 1;
nodes = (
"359 -220 OFFCURVE",
"409 -118 OFFCURVE",
"436 10 CURVE SMOOTH",
"539 497 LINE SMOOTH",
"542 510 OFFCURVE",
"534 520 OFFCURVE",
"521 520 CURVE SMOOTH",
"505 520 LINE SMOOTH",
"492 520 OFFCURVE",
"481 510 OFFCURVE",
"478 497 CURVE SMOOTH",
"468 451 LINE",
"445 495 OFFCURVE",
"396 530 OFFCURVE",
"314 530 CURVE SMOOTH",
"155 530 OFFCURVE",
"83 404 OFFCURVE",
"52 288 CURVE SMOOTH",
"47 268 OFFCURVE",
"43 252 OFFCURVE",
"40 232 CURVE SMOOTH",
"20 115 OFFCURVE",
"52 -10 OFFCURVE",
"212 -10 CURVE SMOOTH",
"294 -10 OFFCURVE",
"345 24 OFFCURVE",
"387 69 CURVE",
"373 0 LINE SMOOTH",
"347 -127 OFFCURVE",
"260 -162 OFFCURVE",
"166 -162 CURVE SMOOTH",
"62 -162 OFFCURVE",
"46 -103 OFFCURVE",
"45 -71 CURVE SMOOTH",
"44 -53 OFFCURVE",
"36 -50 OFFCURVE",
"26 -50 CURVE SMOOTH",
"7 -50 LINE SMOOTH",
"-5 -50 OFFCURVE",
"-13 -60 OFFCURVE",
"-15 -73 CURVE SMOOTH",
"-22 -113 OFFCURVE",
"1 -220 OFFCURVE",
"166 -220 CURVE SMOOTH"
);
},
{
closed = 1;
nodes = (
"98 48 OFFCURVE",
"85 136 OFFCURVE",
"101 232 CURVE SMOOTH",
"104 252 OFFCURVE",
"108 268 OFFCURVE",
"113 288 CURVE SMOOTH",
"139 383 OFFCURVE",
"205 472 OFFCURVE",
"314 472 CURVE SMOOTH",
"428 472 OFFCURVE",
"449 378 OFFCURVE",
"435 296 CURVE SMOOTH",
"432 276 OFFCURVE",
"425 244 OFFCURVE",
"420 224 CURVE SMOOTH",
"399 142 OFFCURVE",
"324 48 OFFCURVE",
"212 48 CURVE SMOOTH"
);
}
);
width = 579;
},
{
anchors = (
{
name = bottom;
position = "{230, -225}";
},
{
name = top;
position = "{363, 520}";
}
);
color = 6;
layerId = "A0D8A2CD-35BA-4362-A7DB-C0E331BFD9A3";
paths = (
{
closed = 1;
nodes = (
"406 -220 OFFCURVE",
"525 -151 OFFCURVE",
"561 17 CURVE",
"661 493 LINE",
"664 508 OFFCURVE",
"655 520 OFFCURVE",
"640 520 CURVE",
"465 520 LINE",
"450 520 OFFCURVE",
"435 508 OFFCURVE",
"432 493 CURVE",
"425 462 LINE",
"401 502 OFFCURVE",
"347 530 OFFCURVE",
"282 530 CURVE SMOOTH",
"156 530 OFFCURVE",
"73 457 OFFCURVE",
"31 300 CURVE",
"26 280 OFFCURVE",
"24 269 OFFCURVE",
"20 249 CURVE",
"-6 82 OFFCURVE",
"68 23 OFFCURVE",
"194 23 CURVE SMOOTH",
"252 23 OFFCURVE",
"290 39 OFFCURVE",
"327 66 CURVE",
"313 0 LINE",
"304 -40 OFFCURVE",
"286 -59 OFFCURVE",
"257 -59 CURVE SMOOTH",
"233 -59 OFFCURVE",
"226 -51 OFFCURVE",
"220 -34 CURVE SMOOTH",
"217 -22 OFFCURVE",
"212 -14 OFFCURVE",
"197 -14 CURVE",
"2 -14 LINE",
"-13 -14 OFFCURVE",
"-29 -26 OFFCURVE",
"-31 -41 CURVE SMOOTH",
"-37 -84 OFFCURVE",
"22 -220 OFFCURVE",
"238 -220 CURVE SMOOTH"
);
},
{
closed = 1;
nodes = (
"267 197 OFFCURVE",
"262 219 OFFCURVE",
"267 255 CURVE SMOOTH",
"268 265 OFFCURVE",
"272 283 OFFCURVE",
"275 293 CURVE",
"285 329 OFFCURVE",
"300 351 OFFCURVE",
"337 351 CURVE SMOOTH",
"371 351 OFFCURVE",
"380 333 OFFCURVE",
"376 301 CURVE SMOOTH",
"375 291 OFFCURVE",
"368 257 OFFCURVE",
"365 247 CURVE SMOOTH",
"355 215 OFFCURVE",
"338 197 OFFCURVE",
"304 197 CURVE SMOOTH"
);
}
);
width = 665;
}
);
leftKerningGroup = g;
rightKerningGroup = u;
unicode = 0067;
userData = {
com.typemytype.robofont.guides = (
{
angle = 0;
isGlobal = 0;
magnetic = 5;
x = 0;
y = 530;
},
{
angle = 0;
isGlobal = 0;
magnetic = 5;
x = 0;
y = "-220";
},
{
angle = 0;
isGlobal = 0;
magnetic = 5;
x = 0;
y = 288;
},
{
angle = 0;
isGlobal = 0;
magnetic = 5;
x = 0;
y = 232;
},
{
angle = 90;
isGlobal = 0;
magnetic = 5;
x = 56;
y = 0;
},
{
angle = 90;
isGlobal = 0;
magnetic = 5;
x = 270;
y = 0;
}
);
};
},
{
glyphname = h;
layers = (
{
anchors = (
{
name = bottom;
position = "{241, 0}";
},
{
name = center;
position = "{213, 597}";
},
{
name = top;
position = "{350, 675}";
}
);
color = 6;
layerId = UUID0;
paths = (
{
closed = 1;
nodes = (
"58 0 LINE SMOOTH",
"71 0 OFFCURVE",
"81 9 OFFCURVE",
"84 22 CURVE SMOOTH",
"143 301 LINE SMOOTH",
"166 408 OFFCURVE",
"254 472 OFFCURVE",
"349 472 CURVE SMOOTH",
"449 472 OFFCURVE",
"476 407 OFFCURVE",
"454 301 CURVE SMOOTH",
"395 22 LINE SMOOTH",
"392 9 OFFCURVE",
"400 0 OFFCURVE",
"413 0 CURVE SMOOTH",
"430 0 LINE SMOOTH",
"443 0 OFFCURVE",
"453 9 OFFCURVE",
"456 22 CURVE SMOOTH",
"517 306 LINE SMOOTH",
"544 433 OFFCURVE",
"490 530 OFFCURVE",
"349 530 CURVE SMOOTH",
"266 530 OFFCURVE",
"216 498 OFFCURVE",
"175 451 CURVE",
"226 688 LINE SMOOTH",
"229 701 OFFCURVE",
"221 710 OFFCURVE",
"208 710 CURVE SMOOTH",
"191 710 LINE SMOOTH",
"178 710 OFFCURVE",
"168 701 OFFCURVE",
"165 688 CURVE SMOOTH",
"23 22 LINE SMOOTH",
"20 9 OFFCURVE",
"28 0 OFFCURVE",
"41 0 CURVE SMOOTH"
);
}
);
width = 591;
},
{
anchors = (
{
name = bottom;
position = "{288, 0}";
},
{
name = center;
position = "{257, 606}";
},
{
name = top;
position = "{394, 677}";
}
);
color = 6;
layerId = "A0D8A2CD-35BA-4362-A7DB-C0E331BFD9A3";
paths = (
{
closed = 1;
nodes = (
"205 0 LINE SMOOTH",
"220 0 OFFCURVE",
"234 12 OFFCURVE",
"237 27 CURVE SMOOTH",
"294 296 LINE SMOOTH",
"302 332 OFFCURVE",
"325 351 OFFCURVE",
"357 351 CURVE SMOOTH",
"389 351 OFFCURVE",
"403 332 OFFCURVE",
"395 296 CURVE SMOOTH",
"338 27 LINE SMOOTH",
"335 12 OFFCURVE",
"345 0 OFFCURVE",
"360 0 CURVE SMOOTH",
"556 0 LINE SMOOTH",
"571 0 OFFCURVE",
"585 12 OFFCURVE",
"588 27 CURVE SMOOTH",
"647 303 LINE SMOOTH",
"681 461 OFFCURVE",
"597 530 OFFCURVE",
"486 530 CURVE SMOOTH",
"424 530 OFFCURVE",
"374 506 OFFCURVE",
"331 468 CURVE",
"377 683 LINE SMOOTH",
"380 698 OFFCURVE",
"370 710 OFFCURVE",
"355 710 CURVE SMOOTH",
"160 710 LINE SMOOTH",
"145 710 OFFCURVE",
"131 698 OFFCURVE",
"128 683 CURVE SMOOTH",
"-12 27 LINE SMOOTH",
"-15 12 OFFCURVE",
"-5 0 OFFCURVE",
"10 0 CURVE SMOOTH"
);
}
);
width = 685;
}
);
leftKerningGroup = h;
rightKerningGroup = n;
unicode = 0068;
userData = {
com.typemytype.robofont.guides = (
{
angle = 0;
isGlobal = 0;
magnetic = 5;
x = 0;
y = 9;
},
{
angle = 0;
isGlobal = 0;
magnetic = 5;
x = 0;
y = 301;
},
{
angle = 0;
isGlobal = 0;
magnetic = 5;
x = 0;
y = 414;
},
{
angle = 0;
isGlobal = 0;
magnetic = 5;
x = 0;
y = 710;
},
{
angle = 90;
isGlobal = 0;
magnetic = 5;
x = 79;
y = 0;
},
{
angle = 90;
isGlobal = 0;
magnetic = 5;
x = 291;
y = 0;
}
);
};
},
{
glyphname = hbar;
layers = (
{
color = 3;
components = (
{
name = h;
}
);
layerId = UUID0;
paths = (
{
closed = 1;
nodes = (
"259 571 LINE SMOOTH",
"272 571 OFFCURVE",
"283 580 OFFCURVE",
"286 593 CURVE SMOOTH",
"289 607 LINE SMOOTH",
"291 620 OFFCURVE",
"284 629 OFFCURVE",
"271 629 CURVE SMOOTH",
"94 629 LINE SMOOTH",
"81 629 OFFCURVE",
"70 620 OFFCURVE",
"68 607 CURVE SMOOTH",
"65 593 LINE SMOOTH",
"62 580 OFFCURVE",
"69 571 OFFCURVE",
"82 571 CURVE SMOOTH"
);
}
);
width = 591;
},
{
color = 3;
components = (
{
name = h;
}
);
layerId = "A0D8A2CD-35BA-4362-A7DB-C0E331BFD9A3";
paths = (
{
closed = 1;
nodes = (
"370 538 LINE SMOOTH",
"385 538 OFFCURVE",
"399 550 OFFCURVE",
"403 565 CURVE SMOOTH",
"413 616 LINE SMOOTH",
"417 631 OFFCURVE",
"407 643 OFFCURVE",
"392 643 CURVE SMOOTH",
"93 643 LINE SMOOTH",
"78 643 OFFCURVE",
"64 631 OFFCURVE",
"60 616 CURVE SMOOTH",
"50 565 LINE SMOOTH",
"46 550 OFFCURVE",
"56 538 OFFCURVE",
"71 538 CURVE SMOOTH"
);
}
);
width = 685;
}
);
leftKerningGroup = h;
rightKerningGroup = n;
rightMetricsKey = h;
unicode = 0127;
userData = {
com.typemytype.robofont.guides = (
{
angle = 90;
isGlobal = 0;
magnetic = 5;
x = 189;
y = 0;
},
{
angle = 90;
isGlobal = 0;
magnetic = 5;
x = 110;
y = 0;
}
);
};
},
{
glyphname = i;
layers = (
{
anchors = (
{
name = bottom;
position = "{57, 0}";
},
{
name = top;
position = "{198, 710}";
}
);
color = 6;
layerId = UUID0;
paths = (
{
closed = 1;
nodes = (
"58 0 LINE SMOOTH",
"71 0 OFFCURVE",
"81 9 OFFCURVE",
"84 22 CURVE SMOOTH",
"185 498 LINE SMOOTH",
"188 511 OFFCURVE",
"181 520 OFFCURVE",
"168 520 CURVE SMOOTH",
"151 520 LINE SMOOTH",
"138 520 OFFCURVE",
"127 511 OFFCURVE",
"124 498 CURVE SMOOTH",
"23 22 LINE SMOOTH",
"20 9 OFFCURVE",
"28 0 OFFCURVE",
"41 0 CURVE SMOOTH"
);
},
{
closed = 1;
nodes = (
"201 627 LINE SMOOTH",
"214 627 OFFCURVE",
"226 636 OFFCURVE",
"228 649 CURVE",
"237 687 LINE",
"239 700 OFFCURVE",
"231 710 OFFCURVE",
"218 710 CURVE SMOOTH",
"180 710 LINE SMOOTH",
"167 710 OFFCURVE",
"156 700 OFFCURVE",
"154 687 CURVE",
"145 649 LINE",
"143 636 OFFCURVE",
"150 627 OFFCURVE",
"163 627 CURVE SMOOTH"
);
}
);
width = 224;
},
{
anchors = (
{
name = bottom;
position = "{107, 0}";
},
{
name = top;
position = "{257, 772}";
}
);
color = 6;
layerId = "A0D8A2CD-35BA-4362-A7DB-C0E331BFD9A3";
paths = (
{
closed = 1;
nodes = (
"189 0 LINE SMOOTH",
"204 0 OFFCURVE",
"218 12 OFFCURVE",
"221 27 CURVE SMOOTH",
"320 493 LINE SMOOTH",
"323 508 OFFCURVE",
"314 520 OFFCURVE",
"299 520 CURVE SMOOTH",
"120 520 LINE SMOOTH",
"105 520 OFFCURVE",
"90 508 OFFCURVE",
"87 493 CURVE SMOOTH",
"-12 27 LINE SMOOTH",
"-15 12 OFFCURVE",
"-5 0 OFFCURVE",
"10 0 CURVE SMOOTH"
);
},
{
closed = 1;
nodes = (
"306 575 LINE SMOOTH",
"321 575 OFFCURVE",
"335 587 OFFCURVE",
"338 602 CURVE SMOOTH",
"364 723 LINE SMOOTH",
"367 738 OFFCURVE",
"358 750 OFFCURVE",
"343 750 CURVE SMOOTH",
"174 750 LINE SMOOTH",
"159 750 OFFCURVE",
"144 738 OFFCURVE",
"141 723 CURVE SMOOTH",
"115 602 LINE SMOOTH",
"112 587 OFFCURVE",
"122 575 OFFCURVE",
"137 575 CURVE SMOOTH"
);
}
);
width = 323;
}
);
leftKerningGroup = i;
rightKerningGroup = i;
unicode = 0069;
userData = {
com.typemytype.robofont.guides = (
{
angle = 0;
isGlobal = 0;
magnetic = 5;
x = 0;
y = 510;
},
{
angle = 0;
isGlobal = 0;
magnetic = 5;
x = 0;
y = 22;
},
{
angle = 0;
isGlobal = 0;
magnetic = 5;
x = 0;
y = 627;
},
{
angle = 90;
isGlobal = 0;
magnetic = 5;
x = 79;
y = 0;
},
{
angle = 90;
isGlobal = 0;
magnetic = 5;
x = 121;
y = 0;
},
{
angle = 90;
isGlobal = 0;
magnetic = 5;
x = 70;
y = 0;
},
{
angle = 90;
isGlobal = 0;
magnetic = 5;
x = 131;
y = 0;
}
);
};
},
{
glyphname = idotless;
layers = (
{
anchors = (
{
name = bottom;
position = "{57, 0}";
},
{
name = ogonek;
position = "{91, 58}";
},
{
name = top;
position = "{160, 520}";
}
);
color = 6;
layerId = UUID0;
paths = (
{
closed = 1;
nodes = (
"58 0 LINE SMOOTH",
"71 0 OFFCURVE",
"81 9 OFFCURVE",
"84 22 CURVE SMOOTH",
"185 498 LINE SMOOTH",
"188 511 OFFCURVE",
"181 520 OFFCURVE",
"168 520 CURVE SMOOTH",
"151 520 LINE SMOOTH",
"138 520 OFFCURVE",
"127 511 OFFCURVE",
"124 498 CURVE SMOOTH",
"23 22 LINE SMOOTH",
"20 9 OFFCURVE",
"28 0 OFFCURVE",
"41 0 CURVE SMOOTH"
);
}
);
width = 224;
},
{
anchors = (
{
name = bottom;
position = "{107, 0}";
},
{
name = ogonek;
position = "{238, 123}";
},
{
name = top;
position = "{210, 520}";
}
);
color = 6;
layerId = "A0D8A2CD-35BA-4362-A7DB-C0E331BFD9A3";
paths = (
{
closed = 1;
nodes = (
"189 0 LINE",
"204 0 OFFCURVE",
"218 12 OFFCURVE",
"221 27 CURVE SMOOTH",
"320 493 LINE SMOOTH",
"323 508 OFFCURVE",
"314 520 OFFCURVE",
"299 520 CURVE SMOOTH",
"120 520 LINE SMOOTH",
"105 520 OFFCURVE",
"90 508 OFFCURVE",
"87 493 CURVE SMOOTH",
"-12 27 LINE SMOOTH",
"-15 12 OFFCURVE",
"-5 0 OFFCURVE",
"10 0 CURVE SMOOTH"
);
}
);
width = 323;
}
);
leftKerningGroup = i;
rightKerningGroup = i;
unicode = 0131;
},
{
glyphname = iogonek;
layers = (
{
color = 6;
layerId = UUID0;
paths = (
{
closed = 1;
nodes = (
"55 -220 LINE",
"68 -220 OFFCURVE",
"79 -211 OFFCURVE",
"82 -198 CURVE",
"85 -185 LINE",
"88 -172 OFFCURVE",
"81 -163 OFFCURVE",
"68 -163 CURVE",
"53 -163 LINE",
"9 -163 OFFCURVE",
"-17 -133 OFFCURVE",
"-6 -82 CURVE SMOOTH",
"5 -31 OFFCURVE",
"43 0 OFFCURVE",
"87 0 CURVE",
"92 0 LINE",
"105 0 OFFCURVE",
"116 9 OFFCURVE",
"119 22 CURVE",
"220 498 LINE",
"223 511 OFFCURVE",
"216 520 OFFCURVE",
"203 520 CURVE",
"186 520 LINE",
"173 520 OFFCURVE",
"162 511 OFFCURVE",
"159 498 CURVE",
"67 64 LINE",
"66 62 OFFCURVE",
"66 60 OFFCURVE",
"66 58 CURVE",
"65 54 LINE",
"-1 42 OFFCURVE",
"-50 -8 OFFCURVE",
"-66 -82 CURVE SMOOTH",
"-84 -167 OFFCURVE",
"-45 -220 OFFCURVE",
"36 -220 CURVE"
);
},
{
closed = 1;
nodes = (
"235 627 LINE",
"248 627 OFFCURVE",
"260 636 OFFCURVE",
"263 649 CURVE",
"271 687 LINE",
"274 700 OFFCURVE",
"266 710 OFFCURVE",
"253 710 CURVE",
"215 710 LINE",
"202 710 OFFCURVE",
"191 700 OFFCURVE",
"188 687 CURVE",
"180 649 LINE",
"177 636 OFFCURVE",
"184 627 OFFCURVE",
"197 627 CURVE"
);
}
);
width = 244;
},
{
color = 6;
hints = (
{
horizontal = 1;
place = "{0, 0}";
type = Tag;
},
{
horizontal = 1;
place = "{0, 0}";
type = Tag;
}
);
layerId = "A0D8A2CD-35BA-4362-A7DB-C0E331BFD9A3";
paths = (
{
closed = 1;
nodes = (
"161 -192 LINE SMOOTH",
"176 -192 OFFCURVE",
"191 -180 OFFCURVE",
"194 -165 CURVE SMOOTH",
"206 -107 LINE SMOOTH",
"210 -92 OFFCURVE",
"200 -80 OFFCURVE",
"185 -80 CURVE",
"175 -80 LINE SMOOTH",
"136 -80 OFFCURVE",
"129 -61 OFFCURVE",
"134 -40 CURVE SMOOTH",
"138 -19 OFFCURVE",
"153 0 OFFCURVE",
"192 0 CURVE SMOOTH",
"202 0 LINE SMOOTH",
"217 0 OFFCURVE",
"232 12 OFFCURVE",
"235 27 CURVE SMOOTH",
"334 493 LINE SMOOTH",
"337 508 OFFCURVE",
"328 520 OFFCURVE",
"313 520 CURVE SMOOTH",
"134 520 LINE SMOOTH",
"119 520 OFFCURVE",
"104 508 OFFCURVE",
"101 493 CURVE SMOOTH",
"2 27 LINE SMOOTH",
"-1 12 OFFCURVE",
"8 0 OFFCURVE",
"23 0 CURVE SMOOTH",
"30 0 LINE",
"25 -12 OFFCURVE",
"21 -26 OFFCURVE",
"18 -40 CURVE SMOOTH",
"0 -125 OFFCURVE",
"36 -192 OFFCURVE",
"147 -192 CURVE SMOOTH"
);
},
{
closed = 1;
nodes = (
"319 575 LINE SMOOTH",
"334 575 OFFCURVE",
"349 587 OFFCURVE",
"352 602 CURVE SMOOTH",
"378 723 LINE SMOOTH",
"381 738 OFFCURVE",
"372 750 OFFCURVE",
"357 750 CURVE SMOOTH",
"188 750 LINE SMOOTH",
"173 750 OFFCURVE",
"158 738 OFFCURVE",
"155 723 CURVE SMOOTH",
"129 602 LINE SMOOTH",
"126 587 OFFCURVE",
"135 575 OFFCURVE",
"150 575 CURVE SMOOTH"
);
}
);
width = 323;
}
);
leftKerningGroup = i;
rightKerningGroup = i;
unicode = 012F;
userData = {
com.typemytype.robofont.guides = (
{
angle = 0;
isGlobal = 0;
magnetic = 5;
x = 0;
y = 22;
},
{
angle = 90;
isGlobal = 0;
magnetic = 5;
x = 131;
y = 0;
}
);
};
},
{
glyphname = j;
layers = (
{
anchors = (
{
name = top;
position = "{207, 710}";
}
);
color = 6;
layerId = UUID0;
paths = (
{
closed = 1;
nodes = (
"-97 -190 LINE SMOOTH",
"24 -190 OFFCURVE",
"64 -116 OFFCURVE",
"84 -22 CURVE SMOOTH",
"194 498 LINE SMOOTH",
"197 511 OFFCURVE",
"190 520 OFFCURVE",
"177 520 CURVE SMOOTH",
"160 520 LINE SMOOTH",
"147 520 OFFCURVE",
"136 511 OFFCURVE",
"133 498 CURVE SMOOTH",
"23 -22 LINE SMOOTH",
"10 -83 OFFCURVE",
"-20 -132 OFFCURVE",
"-85 -132 CURVE SMOOTH",
"-94 -132 LINE SMOOTH",
"-107 -132 OFFCURVE",
"-117 -141 OFFCURVE",
"-120 -154 CURVE SMOOTH",
"-123 -168 LINE SMOOTH",
"-126 -181 OFFCURVE",
"-119 -190 OFFCURVE",
"-106 -190 CURVE SMOOTH"
);
},
{
closed = 1;
nodes = (
"210 627 LINE SMOOTH",
"223 627 OFFCURVE",
"235 636 OFFCURVE",
"237 649 CURVE",
"246 687 LINE",
"248 700 OFFCURVE",
"240 710 OFFCURVE",
"227 710 CURVE SMOOTH",
"189 710 LINE SMOOTH",
"176 710 OFFCURVE",
"165 700 OFFCURVE",
"163 687 CURVE",
"154 649 LINE",
"152 636 OFFCURVE",
"159 627 OFFCURVE",
"172 627 CURVE SMOOTH"
);
}
);
width = 234;
},
{
anchors = (
{
name = top;
position = "{277, 772}";
}
);
color = 6;
layerId = "A0D8A2CD-35BA-4362-A7DB-C0E331BFD9A3";
paths = (
{
closed = 1;
nodes = (
"-49 -190 LINE SMOOTH",
"106 -190 OFFCURVE",
"211 -121 OFFCURVE",
"243 29 CURVE SMOOTH",
"341 493 LINE SMOOTH",
"344 508 OFFCURVE",
"335 520 OFFCURVE",
"320 520 CURVE SMOOTH",
"132 520 LINE SMOOTH",
"117 520 OFFCURVE",
"102 508 OFFCURVE",
"99 493 CURVE SMOOTH",
"2 35 LINE SMOOTH",
"-5 4 OFFCURVE",
"-22 -15 OFFCURVE",
"-52 -15 CURVE SMOOTH",
"-109 -15 LINE SMOOTH",
"-124 -15 OFFCURVE",
"-138 -27 OFFCURVE",
"-141 -42 CURVE SMOOTH",
"-167 -163 LINE SMOOTH",
"-170 -178 OFFCURVE",
"-161 -190 OFFCURVE",
"-146 -190 CURVE SMOOTH"
);
},
{
closed = 1;
nodes = (
"327 575 LINE SMOOTH",
"342 575 OFFCURVE",
"356 587 OFFCURVE",
"359 602 CURVE SMOOTH",
"385 723 LINE SMOOTH",
"388 738 OFFCURVE",
"379 750 OFFCURVE",
"364 750 CURVE SMOOTH",
"186 750 LINE SMOOTH",
"171 750 OFFCURVE",
"156 738 OFFCURVE",
"153 723 CURVE SMOOTH",
"127 602 LINE SMOOTH",
"124 587 OFFCURVE",
"134 575 OFFCURVE",
"149 575 CURVE SMOOTH"
);
}
);
width = 345;
}
);
rightKerningGroup = i;
unicode = 006A;
userData = {
com.typemytype.robofont.guides = (
{
angle = 0;
isGlobal = 0;
magnetic = 5;
x = 0;
y = 740;
},
{
angle = 0;
isGlobal = 0;
magnetic = 5;
x = 0;
y = "-190";
},
{
angle = 90;
isGlobal = 0;
magnetic = 5;
x = "-46";
y = 0;
}
);
};
},
{
glyphname = jdotless;
layers = (
{
anchors = (
{
name = bottom;
position = "{30, -225}";
},
{
name = top;
position = "{149, 520}";
}
);
color = 6;
layerId = UUID0;
paths = (
{
closed = 1;
nodes = (
"-72 -190 LINE SMOOTH",
"50 -190 OFFCURVE",
"95 -116 OFFCURVE",
"115 -22 CURVE SMOOTH",
"225 498 LINE SMOOTH",
"228 511 OFFCURVE",
"221 520 OFFCURVE",
"208 520 CURVE SMOOTH",
"85 520 LINE SMOOTH",
"72 520 OFFCURVE",
"61 511 OFFCURVE",
"58 498 CURVE SMOOTH",
"55 484 LINE SMOOTH",
"52 471 OFFCURVE",
"60 462 OFFCURVE",
"73 462 CURVE SMOOTH",
"157 462 LINE",
"54 -22 LINE SMOOTH",
"41 -83 OFFCURVE",
"21 -132 OFFCURVE",
"-60 -132 CURVE SMOOTH",
"-64 -132 LINE SMOOTH",
"-77 -132 OFFCURVE",
"-86 -141 OFFCURVE",
"-89 -154 CURVE SMOOTH",
"-92 -168 LINE SMOOTH",
"-95 -181 OFFCURVE",
"-88 -190 OFFCURVE",
"-76 -190 CURVE SMOOTH"
);
}
);
width = 265;
},
{
anchors = (
{
name = bottom;
position = "{138, -225}";
},
{
name = top;
position = "{277, 520}";
}
);
color = 6;
layerId = "A0D8A2CD-35BA-4362-A7DB-C0E331BFD9A3";
paths = (
{
closed = 1;
nodes = (
"78 -190 LINE",
"223 -190 OFFCURVE",
"353 -94 OFFCURVE",
"388 70 CURVE SMOOTH",
"478 493 LINE SMOOTH",
"481 508 OFFCURVE",
"472 520 OFFCURVE",
"457 520 CURVE SMOOTH",
"99 520 LINE SMOOTH",
"84 520 OFFCURVE",
"69 508 OFFCURVE",
"66 493 CURVE SMOOTH",
"39 364 LINE SMOOTH",
"36 349 OFFCURVE",
"45 337 OFFCURVE",
"60 337 CURVE SMOOTH",
"201 337 LINE",
"144 70 LINE SMOOTH",
"137 39 OFFCURVE",
"121 20 OFFCURVE",
"91 20 CURVE SMOOTH",
"-10 20 LINE SMOOTH",
"-25 20 OFFCURVE",
"-40 8 OFFCURVE",
"-43 -7 CURVE SMOOTH",
"-75 -163 LINE SMOOTH",
"-78 -178 OFFCURVE",
"-69 -190 OFFCURVE",
"-55 -190 CURVE SMOOTH"
);
}
);
width = 481;
}
);
leftKerningGroup = dotlessj;
rightKerningGroup = i;
unicode = 0237;
userData = {
com.typemytype.robofont.guides = (
{
angle = 0;
isGlobal = 0;
magnetic = 5;
x = 0;
y = "-190";
},
{
angle = 90;
isGlobal = 0;
magnetic = 5;
x = 45;
y = 0;
}
);
};
},
{
glyphname = k;
layers = (
{
anchors = (
{
name = bottom;
position = "{188, 0}";
},
{
name = top;
position = "{347, 750}";
}
);
color = 6;
layerId = UUID0;
paths = (
{
closed = 1;
nodes = (
"58 0 LINE",
"71 0 OFFCURVE",
"81 9 OFFCURVE",
"84 22 CURVE",
"133 248 LINE",
"346 15 LINE",
"352 9 OFFCURVE",
"358 0 OFFCURVE",
"379 0 CURVE SMOOTH",
"395 0 LINE",
"412 0 OFFCURVE",
"422 20 OFFCURVE",
"409 34 CURVE SMOOTH",
"179 288 LINE",
"473 480 LINE SMOOTH",
"498 496 OFFCURVE",
"493 520 OFFCURVE",
"474 520 CURVE SMOOTH",
"447 520 LINE",
"427 520 OFFCURVE",
"423 517 OFFCURVE",
"401 503 CURVE",
"152 341 LINE",
"226 688 LINE",
"229 701 OFFCURVE",
"221 710 OFFCURVE",
"208 710 CURVE",
"191 710 LINE",
"178 710 OFFCURVE",
"168 701 OFFCURVE",
"165 688 CURVE",
"23 22 LINE",
"20 9 OFFCURVE",
"28 0 OFFCURVE",
"41 0 CURVE"
);
}
);
width = 485;
},
{
anchors = (
{
name = bottom;
position = "{270, 0}";
},
{
name = top;
position = "{429, 750}";
}
);
color = 6;
layerId = "A0D8A2CD-35BA-4362-A7DB-C0E331BFD9A3";
paths = (
{
closed = 1;
nodes = (
"185 0 LINE SMOOTH",
"200 0 OFFCURVE",
"214 12 OFFCURVE",
"217 27 CURVE SMOOTH",
"253 203 LINE",
"327 17 LINE SMOOTH",
"331 7 OFFCURVE",
"340 0 OFFCURVE",
"355 0 CURVE SMOOTH",
"555 0 LINE SMOOTH",
"579 0 OFFCURVE",
"590 19 OFFCURVE",
"582 37 CURVE SMOOTH",
"484 268 LINE",
"662 481 LINE",
"677 497 OFFCURVE",
"676 520 OFFCURVE",
"651 520 CURVE SMOOTH",
"439 520 LINE SMOOTH",
"421 520 OFFCURVE",
"410 508 OFFCURVE",
"406 503 CURVE SMOOTH",
"288 359 LINE",
"357 683 LINE SMOOTH",
"360 698 OFFCURVE",
"350 710 OFFCURVE",
"335 710 CURVE SMOOTH",
"160 710 LINE SMOOTH",
"145 710 OFFCURVE",
"131 698 OFFCURVE",
"128 683 CURVE SMOOTH",
"-12 27 LINE SMOOTH",
"-15 12 OFFCURVE",
"-5 0 OFFCURVE",
"10 0 CURVE SMOOTH"
);
}
);
width = 650;
}
);
leftKerningGroup = h;
rightKerningGroup = k;
unicode = 006B;
userData = {
com.typemytype.robofont.guides = (
{
angle = 0;
isGlobal = 0;
magnetic = 5;
x = 0;
y = 520;
},
{
angle = 0;
isGlobal = 0;
magnetic = 5;
x = 0;
y = 710;
},
{
angle = 0;
isGlobal = 0;
magnetic = 5;
x = 0;
y = 260;
},
{
angle = 90;
isGlobal = 0;
magnetic = 5;
x = 460;
y = 0;
},
{
angle = 90;
isGlobal = 0;
magnetic = 5;
x = 430;
y = 0;
}
);
};
},
{
glyphname = kgreenlandic;
layers = (
{
anchors = (
{
name = bottom;
position = "{189, 0}";
},
{
name = top;
position = "{299, 520}";
}
);
color = 6;
layerId = UUID0;
paths = (
{
closed = 1;
nodes = (
"71 0 LINE SMOOTH",
"84 0 OFFCURVE",
"95 9 OFFCURVE",
"98 22 CURVE SMOOTH",
"138 212 LINE",
"346 17 LINE",
"360 4 OFFCURVE",
"364 0 OFFCURVE",
"384 0 CURVE SMOOTH",
"402 0 LINE SMOOTH",
"414 0 OFFCURVE",
"424 8 OFFCURVE",
"426 20 CURVE SMOOTH",
"428 25 OFFCURVE",
"425 33 OFFCURVE",
"418 40 CURVE SMOOTH",
"184 260 LINE",
"491 480 LINE",
"503 487 OFFCURVE",
"507 495 OFFCURVE",
"508 500 CURVE SMOOTH",
"511 512 OFFCURVE",
"505 520 OFFCURVE",
"493 520 CURVE SMOOTH",
"477 520 LINE SMOOTH",
"457 520 OFFCURVE",
"453 517 OFFCURVE",
"431 503 CURVE",
"159 308 LINE",
"199 498 LINE SMOOTH",
"202 511 OFFCURVE",
"195 520 OFFCURVE",
"182 520 CURVE SMOOTH",
"165 520 LINE SMOOTH",
"152 520 OFFCURVE",
"141 511 OFFCURVE",
"138 498 CURVE SMOOTH",
"37 22 LINE SMOOTH",
"34 9 OFFCURVE",
"41 0 OFFCURVE",
"54 0 CURVE SMOOTH"
);
}
);
width = 488;
},
{
anchors = (
{
name = bottom;
position = "{267, 0}";
},
{
name = top;
position = "{377, 520}";
}
);
color = 6;
hints = (
{
horizontal = 1;
place = "{0, 0}";
type = Tag;
}
);
layerId = "A0D8A2CD-35BA-4362-A7DB-C0E331BFD9A3";
paths = (
{
closed = 1;
nodes = (
"198 0 LINE SMOOTH",
"213 0 OFFCURVE",
"228 12 OFFCURVE",
"231 27 CURVE SMOOTH",
"265 187 LINE",
"331 17 LINE SMOOTH",
"332 14 OFFCURVE",
"338 0 OFFCURVE",
"358 0 CURVE SMOOTH",
"568 0 LINE SMOOTH",
"581 0 OFFCURVE",
"595 11 OFFCURVE",
"597 24 CURVE SMOOTH",
"599 30 OFFCURVE",
"597 34 OFFCURVE",
"596 37 CURVE SMOOTH",
"493 266 LINE",
"665 481 LINE SMOOTH",
"668 484 OFFCURVE",
"672 490 OFFCURVE",
"674 496 CURVE SMOOTH",
"676 509 OFFCURVE",
"668 520 OFFCURVE",
"655 520 CURVE SMOOTH",
"463 520 LINE SMOOTH",
"445 520 OFFCURVE",
"434 508 OFFCURVE",
"430 503 CURVE SMOOTH",
"295 329 LINE",
"330 493 LINE SMOOTH",
"333 508 OFFCURVE",
"324 520 OFFCURVE",
"309 520 CURVE SMOOTH",
"134 520 LINE SMOOTH",
"119 520 OFFCURVE",
"104 508 OFFCURVE",
"101 493 CURVE SMOOTH",
"2 27 LINE SMOOTH",
"-1 12 OFFCURVE",
"8 0 OFFCURVE",
"23 0 CURVE SMOOTH"
);
}
);
width = 643;
}
);
leftKerningGroup = n;
rightKerningGroup = k;
unicode = 0138;
userData = {
com.typemytype.robofont.guides = (
{
angle = 0;
isGlobal = 0;
magnetic = 5;
x = 0;
y = 520;
},
{
angle = 0;
isGlobal = 0;
magnetic = 5;
x = 0;
y = 260;
}
);
};
},
{
glyphname = l;
layers = (
{
anchors = (
{
name = bottom;
position = "{50, 0}";
},
{
name = center;
position = "{137, 375}";
},
{
name = top;
position = "{205, 675}";
},
{
name = topright;
position = "{287, 710}";
}
);
color = 6;
layerId = UUID0;
paths = (
{
closed = 1;
nodes = (
"58 0 LINE SMOOTH",
"71 0 OFFCURVE",
"81 9 OFFCURVE",
"84 22 CURVE SMOOTH",
"226 688 LINE SMOOTH",
"229 701 OFFCURVE",
"221 710 OFFCURVE",
"208 710 CURVE SMOOTH",
"191 710 LINE SMOOTH",
"178 710 OFFCURVE",
"168 701 OFFCURVE",
"165 688 CURVE SMOOTH",
"23 22 LINE SMOOTH",
"20 9 OFFCURVE",
"28 0 OFFCURVE",
"41 0 CURVE SMOOTH"
);
}
);
width = 225;
},
{
anchors = (
{
name = bottom;
position = "{104, 0}";
},
{
name = center;
position = "{186, 375}";
},
{
name = top;
position = "{252, 675}";
},
{
name = topright;
position = "{426, 710}";
}
);
color = 6;
layerId = "A0D8A2CD-35BA-4362-A7DB-C0E331BFD9A3";
paths = (
{
closed = 1;
nodes = (
"189 0 LINE SMOOTH",
"204 0 OFFCURVE",
"218 12 OFFCURVE",
"221 27 CURVE SMOOTH",
"361 683 LINE SMOOTH",
"364 698 OFFCURVE",
"354 710 OFFCURVE",
"339 710 CURVE SMOOTH",
"160 710 LINE SMOOTH",
"145 710 OFFCURVE",
"131 698 OFFCURVE",
"128 683 CURVE SMOOTH",
"-12 27 LINE SMOOTH",
"-15 12 OFFCURVE",
"-5 0 OFFCURVE",
"10 0 CURVE SMOOTH"
);
}
);
width = 324;
}
);
leftKerningGroup = l;
rightKerningGroup = l;
unicode = 006C;
userData = {
com.typemytype.robofont.guides = (
{
angle = 0;
isGlobal = 0;
magnetic = 5;
x = 0;
y = 9;
},
{
angle = 0;
isGlobal = 0;
magnetic = 5;
x = 0;
y = 710;
}
);
};
},
{
glyphname = lslash;
layers = (
{
color = 6;
layerId = UUID0;
paths = (
{
closed = 1;
nodes = (
"84 0 LINE SMOOTH",
"97 0 OFFCURVE",
"108 9 OFFCURVE",
"111 22 CURVE SMOOTH",
"179 341 LINE",
"231 360 LINE SMOOTH",
"248 366 OFFCURVE",
"255 370 OFFCURVE",
"258 385 CURVE SMOOTH",
"262 404 LINE SMOOTH",
"265 416 OFFCURVE",
"258 422 OFFCURVE",
"247 422 CURVE SMOOTH",
"243 422 OFFCURVE",
"239 421 OFFCURVE",
"233 419 CURVE SMOOTH",
"192 404 LINE",
"252 688 LINE SMOOTH",
"255 701 OFFCURVE",
"248 710 OFFCURVE",
"235 710 CURVE SMOOTH",
"218 710 LINE SMOOTH",
"205 710 OFFCURVE",
"194 701 OFFCURVE",
"191 688 CURVE SMOOTH",
"126 381 LINE",
"74 363 LINE SMOOTH",
"57 357 OFFCURVE",
"50 353 OFFCURVE",
"47 338 CURVE SMOOTH",
"43 319 LINE SMOOTH",
"40 307 OFFCURVE",
"47 301 OFFCURVE",
"58 301 CURVE SMOOTH",
"62 301 OFFCURVE",
"66 302 OFFCURVE",
"72 304 CURVE SMOOTH",
"113 318 LINE",
"50 22 LINE SMOOTH",
"47 9 OFFCURVE",
"54 0 OFFCURVE",
"67 0 CURVE SMOOTH"
);
}
);
width = 247;
},
{
color = 6;
hints = (
{
horizontal = 1;
place = "{0, 0}";
type = Tag;
}
);
layerId = "A0D8A2CD-35BA-4362-A7DB-C0E331BFD9A3";
paths = (
{
closed = 1;
nodes = (
"241 0 LINE SMOOTH",
"256 0 OFFCURVE",
"271 12 OFFCURVE",
"274 27 CURVE SMOOTH",
"336 319 LINE",
"377 334 LINE SMOOTH",
"394 340 OFFCURVE",
"402 349 OFFCURVE",
"406 367 CURVE SMOOTH",
"429 475 LINE SMOOTH",
"432 487 OFFCURVE",
"425 496 OFFCURVE",
"413 496 CURVE SMOOTH",
"411 496 OFFCURVE",
"406 495 OFFCURVE",
"401 493 CURVE SMOOTH",
"371 482 LINE",
"413 683 LINE SMOOTH",
"417 698 OFFCURVE",
"407 710 OFFCURVE",
"392 710 CURVE SMOOTH",
"213 710 LINE SMOOTH",
"198 710 OFFCURVE",
"184 698 OFFCURVE",
"180 683 CURVE SMOOTH",
"118 391 LINE",
"77 377 LINE SMOOTH",
"60 371 OFFCURVE",
"52 362 OFFCURVE",
"48 344 CURVE SMOOTH",
"25 236 LINE SMOOTH",
"23 224 OFFCURVE",
"30 215 OFFCURVE",
"42 215 CURVE SMOOTH",
"44 215 OFFCURVE",
"48 216 OFFCURVE",
"54 218 CURVE SMOOTH",
"84 229 LINE",
"41 27 LINE SMOOTH",
"38 12 OFFCURVE",
"47 0 OFFCURVE",
"62 0 CURVE SMOOTH"
);
}
);
width = 400;
}
);
leftKerningGroup = l;
rightKerningGroup = l;
unicode = 0142;
userData = {
com.typemytype.robofont.guides = (
{
angle = 0;
isGlobal = 0;
magnetic = 5;
x = 0;
y = 355;
},
{
angle = 90;
isGlobal = 0;
magnetic = 5;
x = 231;
y = 0;
},
{
angle = 90;
isGlobal = 0;
magnetic = 5;
x = 100;
y = 0;
},
{
angle = 90;
isGlobal = 0;
magnetic = 5;
x = 30;
y = 0;
}
);
};
},
{
glyphname = m;
layers = (
{
anchors = (
{
name = bottom;
position = "{385, 0}";
},
{
name = top;
position = "{495, 520}";
}
);
color = 6;
layerId = UUID0;
paths = (
{
closed = 1;
nodes = (
"58 0 LINE SMOOTH",
"71 0 OFFCURVE",
"81 9 OFFCURVE",
"84 22 CURVE SMOOTH",
"144 304 LINE SMOOTH",
"172 434 OFFCURVE",
"262 472 OFFCURVE",
"323 472 CURVE SMOOTH",
"390 472 OFFCURVE",
"441 434 OFFCURVE",
"413 303 CURVE SMOOTH",
"353 22 LINE SMOOTH",
"350 9 OFFCURVE",
"358 0 OFFCURVE",
"371 0 CURVE SMOOTH",
"388 0 LINE SMOOTH",
"401 0 OFFCURVE",
"411 9 OFFCURVE",
"414 22 CURVE SMOOTH",
"474 303 LINE SMOOTH",
"502 434 OFFCURVE",
"592 472 OFFCURVE",
"653 472 CURVE SMOOTH",
"725 472 OFFCURVE",
"771 434 OFFCURVE",
"743 303 CURVE SMOOTH",
"683 22 LINE SMOOTH",
"680 9 OFFCURVE",
"688 0 OFFCURVE",
"701 0 CURVE SMOOTH",
"718 0 LINE SMOOTH",
"731 0 OFFCURVE",
"741 9 OFFCURVE",
"744 22 CURVE SMOOTH",
"806 313 LINE SMOOTH",
"836 456 OFFCURVE",
"761 530 OFFCURVE",
"655 530 CURVE SMOOTH",
"578 530 OFFCURVE",
"518 493 OFFCURVE",
"475 436 CURVE",
"457 497 OFFCURVE",
"400 530 OFFCURVE",
"325 530 CURVE SMOOTH",
"259 530 OFFCURVE",
"220 506 OFFCURVE",
"178 463 CURVE",
"185 498 LINE SMOOTH",
"188 511 OFFCURVE",
"181 520 OFFCURVE",
"168 520 CURVE SMOOTH",
"151 520 LINE SMOOTH",
"138 520 OFFCURVE",
"127 511 OFFCURVE",
"124 498 CURVE SMOOTH",
"23 22 LINE SMOOTH",
"20 9 OFFCURVE",
"28 0 OFFCURVE",
"41 0 CURVE SMOOTH"
);
}
);
width = 879;
},
{
anchors = (
{
name = bottom;
position = "{414, 0}";
},
{
name = top;
position = "{524, 520}";
}
);
color = 6;
layerId = "A0D8A2CD-35BA-4362-A7DB-C0E331BFD9A3";
paths = (
{
closed = 1;
nodes = (
"190 0 LINE SMOOTH",
"205 0 OFFCURVE",
"219 12 OFFCURVE",
"222 27 CURVE SMOOTH",
"281 302 LINE SMOOTH",
"287 333 OFFCURVE",
"306 351 OFFCURVE",
"331 351 CURVE SMOOTH",
"356 351 OFFCURVE",
"367 334 OFFCURVE",
"361 302 CURVE",
"302 27 LINE SMOOTH",
"299 12 OFFCURVE",
"309 0 OFFCURVE",
"324 0 CURVE SMOOTH",
"500 0 LINE SMOOTH",
"515 0 OFFCURVE",
"529 12 OFFCURVE",
"532 27 CURVE SMOOTH",
"591 302 LINE",
"597 334 OFFCURVE",
"615 351 OFFCURVE",
"640 351 CURVE SMOOTH",
"665 351 OFFCURVE",
"676 334 OFFCURVE",
"670 302 CURVE",
"611 27 LINE SMOOTH",
"608 12 OFFCURVE",
"618 0 OFFCURVE",
"633 0 CURVE SMOOTH",
"809 0 LINE SMOOTH",
"824 0 OFFCURVE",
"838 12 OFFCURVE",
"841 27 CURVE SMOOTH",
"901 307 LINE SMOOTH",
"934 465 OFFCURVE",
"865 530 OFFCURVE",
"754 530 CURVE SMOOTH",
"683 530 OFFCURVE",
"635 494 OFFCURVE",
"594 448 CURVE",
"575 497 OFFCURVE",
"533 530 OFFCURVE",
"453 530 CURVE SMOOTH",
"371 530 OFFCURVE",
"329 490 OFFCURVE",
"299 460 CURVE",
"306 493 LINE SMOOTH",
"309 508 OFFCURVE",
"300 520 OFFCURVE",
"285 520 CURVE SMOOTH",
"120 520 LINE SMOOTH",
"105 520 OFFCURVE",
"90 508 OFFCURVE",
"87 493 CURVE SMOOTH",
"-12 27 LINE SMOOTH",
"-15 12 OFFCURVE",
"-5 0 OFFCURVE",
"10 0 CURVE SMOOTH"
);
}
);
width = 938;
}
);
leftKerningGroup = n;
rightKerningGroup = n;
unicode = 006D;
},
{
glyphname = n;
layers = (
{
anchors = (
{
name = bottom;
position = "{237, 0}";
},
{
name = top;
position = "{344, 520}";
}
);
color = 6;
layerId = UUID0;
paths = (
{
closed = 1;
nodes = (
"58 0 LINE SMOOTH",
"71 0 OFFCURVE",
"81 9 OFFCURVE",
"84 22 CURVE SMOOTH",
"143 301 LINE SMOOTH",
"166 408 OFFCURVE",
"246 472 OFFCURVE",
"351 472 CURVE SMOOTH",
"460 472 OFFCURVE",
"477 414 OFFCURVE",
"453 301 CURVE SMOOTH",
"394 22 LINE SMOOTH",
"391 9 OFFCURVE",
"399 0 OFFCURVE",
"412 0 CURVE SMOOTH",
"429 0 LINE SMOOTH",
"442 0 OFFCURVE",
"452 9 OFFCURVE",
"455 22 CURVE SMOOTH",
"516 306 LINE SMOOTH",
"543 433 OFFCURVE",
"503 530 OFFCURVE",
"351 530 CURVE SMOOTH",
"275 530 OFFCURVE",
"216 497 OFFCURVE",
"175 451 CURVE",
"185 498 LINE SMOOTH",
"188 511 OFFCURVE",
"181 520 OFFCURVE",
"168 520 CURVE SMOOTH",
"151 520 LINE SMOOTH",
"138 520 OFFCURVE",
"127 511 OFFCURVE",
"124 498 CURVE SMOOTH",
"23 22 LINE SMOOTH",
"20 9 OFFCURVE",
"28 0 OFFCURVE",
"41 0 CURVE SMOOTH"
);
}
);
width = 590;
},
{
anchors = (
{
name = bottom;
position = "{282, 0}";
},
{
name = top;
position = "{379, 520}";
}
);
color = 6;
layerId = "A0D8A2CD-35BA-4362-A7DB-C0E331BFD9A3";
paths = (
{
closed = 1;
nodes = (
"200 0 LINE SMOOTH",
"215 0 OFFCURVE",
"229 12 OFFCURVE",
"232 27 CURVE SMOOTH",
"289 296 LINE SMOOTH",
"297 332 OFFCURVE",
"319 351 OFFCURVE",
"351 351 CURVE SMOOTH",
"383 351 OFFCURVE",
"397 332 OFFCURVE",
"389 296 CURVE SMOOTH",
"332 27 LINE SMOOTH",
"329 12 OFFCURVE",
"339 0 OFFCURVE",
"354 0 CURVE SMOOTH",
"545 0 LINE SMOOTH",
"560 0 OFFCURVE",
"574 12 OFFCURVE",
"577 27 CURVE SMOOTH",
"636 303 LINE SMOOTH",
"670 461 OFFCURVE",
"591 530 OFFCURVE",
"480 530 CURVE SMOOTH",
"409 530 OFFCURVE",
"351 499 OFFCURVE",
"309 460 CURVE",
"316 493 LINE SMOOTH",
"319 508 OFFCURVE",
"310 520 OFFCURVE",
"295 520 CURVE SMOOTH",
"120 520 LINE SMOOTH",
"105 520 OFFCURVE",
"90 508 OFFCURVE",
"87 493 CURVE SMOOTH",
"-12 27 LINE SMOOTH",
"-15 12 OFFCURVE",
"-5 0 OFFCURVE",
"10 0 CURVE SMOOTH"
);
}
);
width = 674;
}
);
leftKerningGroup = n;
rightKerningGroup = n;
unicode = 006E;
userData = {
com.typemytype.robofont.guides = (
{
angle = 0;
isGlobal = 0;
magnetic = 5;
x = 0;
y = 530;
},
{
angle = 0;
isGlobal = 0;
magnetic = 5;
x = 0;
y = 301;
},
{
angle = 0;
isGlobal = 0;
magnetic = 5;
x = 0;
y = 650;
},
{
angle = 0;
isGlobal = 0;
magnetic = 5;
x = 0;
y = 407;
},
{
angle = 0;
isGlobal = 0;
magnetic = 5;
x = 0;
y = 451;
},
{
angle = 90;
isGlobal = 0;
magnetic = 5;
x = 291;
y = 0;
},
{
angle = 90;
isGlobal = 0;
magnetic = 5;
x = 131;
y = 0;
}
);
};
},
{
glyphname = napostrophe;
layers = (
{
color = 3;
components = (
{
name = n;
}
);
layerId = UUID0;
paths = (
{
closed = 1;
nodes = (
"65 570 LINE SMOOTH",
"80 570 OFFCURVE",
"86 578 OFFCURVE",
"95 591 CURVE",
"157 696 LINE SMOOTH",
"161 703 OFFCURVE",
"164 709 OFFCURVE",
"165 714 CURVE SMOOTH",
"167 722 OFFCURVE",
"163 730 OFFCURVE",
"154 730 CURVE SMOOTH",
"109 730 LINE SMOOTH",
"93 730 OFFCURVE",
"84 719 OFFCURVE",
"78 703 CURVE SMOOTH",
"37 591 LINE SMOOTH",
"33 579 OFFCURVE",
"36 570 OFFCURVE",
"47 570 CURVE SMOOTH"
);
}
);
width = 590;
},
{
color = 3;
components = (
{
name = n;
}
);
layerId = "A0D8A2CD-35BA-4362-A7DB-C0E331BFD9A3";
paths = (
{
closed = 1;
nodes = (
"62 550 LINE SMOOTH",
"88 550 OFFCURVE",
"104 569 OFFCURVE",
"112 582 CURVE SMOOTH",
"196 721 LINE SMOOTH",
"198 724 OFFCURVE",
"198 726 OFFCURVE",
"199 728 CURVE SMOOTH",
"201 740 OFFCURVE",
"194 750 OFFCURVE",
"182 750 CURVE SMOOTH",
"42 750 LINE SMOOTH",
"15 750 OFFCURVE",
"-3 729 OFFCURVE",
"-10 711 CURVE",
"-60 572 LINE",
"-63 560 OFFCURVE",
"-55 550 OFFCURVE",
"-43 550 CURVE SMOOTH"
);
}
);
width = 674;
}
);
leftKerningGroup = n;
rightKerningGroup = n;
rightMetricsKey = n;
unicode = 0149;
userData = {
com.typemytype.robofont.guides = (
{
angle = 0;
isGlobal = 0;
magnetic = 5;
x = 0;
y = 575;
},
{
angle = 90;
isGlobal = 0;
magnetic = 5;
x = 286;
y = 0;
}
);
};
},
{
glyphname = eng;
layers = (
{
color = 6;
layerId = UUID0;
paths = (
{
closed = 1;
nodes = (
"252 -225 LINE",
"389 -225 OFFCURVE",
"418 -151 OFFCURVE",
"438 -57 CURVE",
"516 306 LINE",
"543 433 OFFCURVE",
"503 530 OFFCURVE",
"351 530 CURVE SMOOTH",
"275 530 OFFCURVE",
"216 497 OFFCURVE",
"175 451 CURVE",
"185 498 LINE",
"188 511 OFFCURVE",
"181 520 OFFCURVE",
"168 520 CURVE",
"151 520 LINE",
"138 520 OFFCURVE",
"127 511 OFFCURVE",
"124 498 CURVE",
"23 22 LINE SMOOTH",
"20 9 OFFCURVE",
"28 0 OFFCURVE",
"41 0 CURVE SMOOTH",
"58 0 LINE",
"71 0 OFFCURVE",
"81 9 OFFCURVE",
"84 22 CURVE",
"143 301 LINE",
"166 408 OFFCURVE",
"246 472 OFFCURVE",
"351 472 CURVE SMOOTH",
"460 472 OFFCURVE",
"477 414 OFFCURVE",
"453 301 CURVE",
"377 -57 LINE",
"364 -118 OFFCURVE",
"342 -167 OFFCURVE",
"264 -167 CURVE",
"260 -167 LINE",
"247 -167 OFFCURVE",
"236 -176 OFFCURVE",
"233 -189 CURVE",
"230 -203 LINE",
"227 -216 OFFCURVE",
"235 -225 OFFCURVE",
"248 -225 CURVE"
);
}
);
width = 590;
},
{
color = 6;
layerId = "A0D8A2CD-35BA-4362-A7DB-C0E331BFD9A3";
paths = (
{
closed = 1;
nodes = (
"212 -225 LINE SMOOTH",
"404 -225 OFFCURVE",
"541 -142 OFFCURVE",
"582 48 CURVE SMOOTH",
"636 303 LINE SMOOTH",
"669 461 OFFCURVE",
"591 530 OFFCURVE",
"480 530 CURVE SMOOTH",
"409 530 OFFCURVE",
"351 499 OFFCURVE",
"309 460 CURVE",
"316 493 LINE SMOOTH",
"319 508 OFFCURVE",
"310 520 OFFCURVE",
"295 520 CURVE SMOOTH",
"120 520 LINE SMOOTH",
"105 520 OFFCURVE",
"90 508 OFFCURVE",
"87 493 CURVE SMOOTH",
"-12 27 LINE SMOOTH",
"-15 12 OFFCURVE",
"-5 0 OFFCURVE",
"10 0 CURVE SMOOTH",
"200 0 LINE SMOOTH",
"215 0 OFFCURVE",
"229 12 OFFCURVE",
"232 27 CURVE SMOOTH",
"289 296 LINE SMOOTH",
"297 332 OFFCURVE",
"319 351 OFFCURVE",
"351 351 CURVE SMOOTH",
"383 351 OFFCURVE",
"397 332 OFFCURVE",
"389 296 CURVE SMOOTH",
"339 59 LINE SMOOTH",
"326 -2 OFFCURVE",
"298 -22 OFFCURVE",
"255 -22 CURVE SMOOTH",
"216 -22 LINE SMOOTH",
"201 -22 OFFCURVE",
"186 -34 OFFCURVE",
"183 -49 CURVE",
"151 -198 LINE SMOOTH",
"148 -213 OFFCURVE",
"158 -225 OFFCURVE",
"173 -225 CURVE SMOOTH"
);
}
);
width = 674;
}
);
leftKerningGroup = n;
rightKerningGroup = n;
unicode = 014B;
userData = {
com.typemytype.robofont.guides = (
{
angle = 0;
isGlobal = 0;
magnetic = 5;
x = 0;
y = "-300";
},
{
angle = 90;
isGlobal = 0;
magnetic = 5;
x = 225;
y = 0;
}
);
};
},
{
glyphname = o;
layers = (
{
anchors = (
{
name = bottom;
position = "{223, 0}";
},
{
name = center;
position = "{278, 260}";
},
{
name = ogonek;
position = "{447, 10}";
},
{
name = top;
position = "{327, 520}";
},
{
name = topright;
position = "{591, 520}";
}
);
color = 6;
layerId = UUID0;
paths = (
{
closed = 1;
nodes = (
"363 -10 OFFCURVE",
"451 89 OFFCURVE",
"483 218 CURVE SMOOTH",
"488 238 OFFCURVE",
"497 282 OFFCURVE",
"501 302 CURVE SMOOTH",
"524 431 OFFCURVE",
"464 530 OFFCURVE",
"321 530 CURVE SMOOTH",
"176 530 OFFCURVE",
"88 431 OFFCURVE",
"57 302 CURVE",
"51 282 OFFCURVE",
"42 238 OFFCURVE",
"39 218 CURVE",
"15 89 OFFCURVE",
"79 -10 OFFCURVE",
"218 -10 CURVE SMOOTH"
);
},
{
closed = 1;
nodes = (
"122 48 OFFCURVE",
"81 109 OFFCURVE",
"101 223 CURVE SMOOTH",
"104 243 OFFCURVE",
"111 277 OFFCURVE",
"117 297 CURVE",
"145 411 OFFCURVE",
"227 472 OFFCURVE",
"321 472 CURVE SMOOTH",
"416 472 OFFCURVE",
"459 411 OFFCURVE",
"439 297 CURVE SMOOTH",
"435 277 OFFCURVE",
"428 243 OFFCURVE",
"423 223 CURVE SMOOTH",
"395 109 OFFCURVE",
"312 48 OFFCURVE",
"218 48 CURVE SMOOTH"
);
}
);
width = 556;
},
{
anchors = (
{
name = bottom;
position = "{266, 0}";
},
{
name = center;
position = "{321, 260}";
},
{
name = ogonek;
position = "{524, 10}";
},
{
name = top;
position = "{362, 520}";
},
{
name = topright;
position = "{676, 520}";
}
);
color = 6;
layerId = "A0D8A2CD-35BA-4362-A7DB-C0E331BFD9A3";
paths = (
{
closed = 1;
nodes = (
"459 -10 OFFCURVE",
"552 66 OFFCURVE",
"593 213 CURVE SMOOTH",
"601 243 OFFCURVE",
"608 277 OFFCURVE",
"613 307 CURVE SMOOTH",
"634 454 OFFCURVE",
"523 530 OFFCURVE",
"360 530 CURVE SMOOTH",
"177 530 OFFCURVE",
"74 454 OFFCURVE",
"33 307 CURVE SMOOTH",
"24 277 OFFCURVE",
"17 243 OFFCURVE",
"13 213 CURVE SMOOTH",
"-8 66 OFFCURVE",
"91 -10 OFFCURVE",
"265 -10 CURVE SMOOTH"
);
},
{
closed = 1;
nodes = (
"251 150 OFFCURVE",
"252 171 OFFCURVE",
"259 218 CURVE SMOOTH",
"262 238 OFFCURVE",
"271 282 OFFCURVE",
"277 302 CURVE SMOOTH",
"289 346 OFFCURVE",
"298 370 OFFCURVE",
"336 370 CURVE SMOOTH",
"374 370 OFFCURVE",
"374 346 OFFCURVE",
"367 302 CURVE SMOOTH",
"364 282 OFFCURVE",
"354 238 OFFCURVE",
"349 218 CURVE SMOOTH",
"336 171 OFFCURVE",
"327 150 OFFCURVE",
"289 150 CURVE SMOOTH"
);
}
);
width = 641;
}
);
leftKerningGroup = o;
rightKerningGroup = o;
unicode = 006F;
userData = {
com.typemytype.robofont.guides = (
{
angle = 0;
isGlobal = 0;
magnetic = 5;
x = 0;
y = 302;
},
{
angle = 0;
isGlobal = 0;
magnetic = 5;
x = 0;
y = 218;
},
{
angle = 0;
isGlobal = 0;
magnetic = 5;
x = 0;
y = 411;
},
{
angle = 0;
isGlobal = 0;
magnetic = 5;
x = 0;
y = 109;
},
{
angle = 90;
isGlobal = 0;
magnetic = 5;
x = 278;
y = 0;
},
{
angle = 90;
isGlobal = 0;
magnetic = 5;
x = 56;
y = 0;
},
{
angle = 90;
isGlobal = 0;
magnetic = 5;
x = 500;
y = 0;
}
);
};
},
{
glyphname = oe;
layers = (
{
anchors = (
{
name = bottom;
position = "{411, 0}";
},
{
name = top;
position = "{521, 520}";
}
);
color = 6;
layerId = UUID0;
paths = (
{
closed = 1;
nodes = (
"325 -10 OFFCURVE",
"398 33 OFFCURVE",
"447 101 CURVE",
"468 32 OFFCURVE",
"524 -10 OFFCURVE",
"611 -10 CURVE SMOOTH",
"732 -10 OFFCURVE",
"828 73 OFFCURVE",
"838 111 CURVE SMOOTH",
"841 123 OFFCURVE",
"833 131 OFFCURVE",
"821 131 CURVE SMOOTH",
"805 131 LINE SMOOTH",
"790 131 OFFCURVE",
"787 130 OFFCURVE",
"771 113 CURVE SMOOTH",
"757 97 OFFCURVE",
"703 48 OFFCURVE",
"623 48 CURVE SMOOTH",
"526 48 OFFCURVE",
"488 134 OFFCURVE",
"503 225 CURVE SMOOTH",
"505 235 LINE",
"861 235 LINE SMOOTH",
"874 235 OFFCURVE",
"886 244 OFFCURVE",
"889 257 CURVE SMOOTH",
"892 272 LINE SMOOTH",
"926 432 OFFCURVE",
"865 530 OFFCURVE",
"726 530 CURVE SMOOTH",
"638 530 OFFCURVE",
"565 487 OFFCURVE",
"514 418 CURVE",
"495 486 OFFCURVE",
"440 530 OFFCURVE",
"344 530 CURVE SMOOTH",
"200 530 OFFCURVE",
"105 431 OFFCURVE",
"73 302 CURVE SMOOTH",
"68 282 OFFCURVE",
"59 238 OFFCURVE",
"56 218 CURVE SMOOTH",
"32 89 OFFCURVE",
"85 -10 OFFCURVE",
"229 -10 CURVE SMOOTH"
);
},
{
closed = 1;
nodes = (
"148 48 OFFCURVE",
"97 109 OFFCURVE",
"118 223 CURVE SMOOTH",
"121 243 OFFCURVE",
"128 277 OFFCURVE",
"133 297 CURVE SMOOTH",
"162 411 OFFCURVE",
"239 472 OFFCURVE",
"332 472 CURVE SMOOTH",
"425 472 OFFCURVE",
"476 411 OFFCURVE",
"455 297 CURVE SMOOTH",
"452 277 OFFCURVE",
"445 243 OFFCURVE",
"440 223 CURVE SMOOTH",
"411 109 OFFCURVE",
"334 48 OFFCURVE",
"241 48 CURVE SMOOTH"
);
},
{
closed = 1;
nodes = (
"518 295 LINE SMOOTH",
"539 395 OFFCURVE",
"614 472 OFFCURVE",
"714 472 CURVE SMOOTH",
"814 472 OFFCURVE",
"857 395 OFFCURVE",
"836 295 CURVE SMOOTH",
"835 291 LINE",
"517 291 LINE"
);
}
);
width = 931;
},
{
anchors = (
{
name = bottom;
position = "{427, 0}";
},
{
name = top;
position = "{537, 520}";
}
);
color = 6;
hints = (
{
horizontal = 1;
place = "{0, 0}";
type = Tag;
},
{
horizontal = 1;
place = "{0, 0}";
type = Tag;
},
{
horizontal = 1;
place = "{0, 0}";
type = Tag;
},
{
horizontal = 1;
place = "{0, 0}";
type = Tag;
}
);
layerId = "A0D8A2CD-35BA-4362-A7DB-C0E331BFD9A3";
paths = (
{
closed = 1;
nodes = (
"340 -10 OFFCURVE",
"399 1 OFFCURVE",
"448 22 CURVE",
"487 0 OFFCURVE",
"540 -10 OFFCURVE",
"603 -10 CURVE SMOOTH",
"788 -10 OFFCURVE",
"893 94 OFFCURVE",
"907 145 CURVE SMOOTH",
"911 158 OFFCURVE",
"903 167 OFFCURVE",
"890 167 CURVE",
"701 167 LINE",
"685 167 OFFCURVE",
"679 165 OFFCURVE",
"665 153 CURVE SMOOTH",
"651 142 OFFCURVE",
"644 135 OFFCURVE",
"632 135 CURVE SMOOTH",
"603 135 OFFCURVE",
"597 156 OFFCURVE",
"606 196 CURVE",
"607 201 LINE",
"905 201 LINE",
"920 201 OFFCURVE",
"934 213 OFFCURVE",
"938 228 CURVE",
"944 258 LINE",
"975 405 OFFCURVE",
"913 530 OFFCURVE",
"717 530 CURVE SMOOTH",
"655 530 OFFCURVE",
"599 518 OFFCURVE",
"550 494 CURVE",
"509 518 OFFCURVE",
"453 530 OFFCURVE",
"385 530 CURVE SMOOTH",
"212 530 OFFCURVE",
"89 454 OFFCURVE",
"47 307 CURVE SMOOTH",
"39 277 OFFCURVE",
"32 243 OFFCURVE",
"27 213 CURVE SMOOTH",
"6 66 OFFCURVE",
"86 -10 OFFCURVE",
"270 -10 CURVE SMOOTH"
);
},
{
closed = 1;
nodes = (
"266 150 OFFCURVE",
"267 171 OFFCURVE",
"274 218 CURVE SMOOTH",
"277 238 OFFCURVE",
"286 282 OFFCURVE",
"291 302 CURVE SMOOTH",
"304 346 OFFCURVE",
"313 370 OFFCURVE",
"351 370 CURVE SMOOTH",
"389 370 OFFCURVE",
"388 346 OFFCURVE",
"381 302 CURVE SMOOTH",
"378 282 OFFCURVE",
"369 238 OFFCURVE",
"364 218 CURVE SMOOTH",
"351 171 OFFCURVE",
"342 150 OFFCURVE",
"304 150 CURVE SMOOTH"
);
},
{
closed = 1;
nodes = (
"634 327 LINE",
"643 371 OFFCURVE",
"661 390 OFFCURVE",
"687 390 CURVE SMOOTH",
"713 390 OFFCURVE",
"723 371 OFFCURVE",
"714 327 CURVE",
"714 326 LINE",
"634 326 LINE"
);
}
);
width = 963;
}
);
leftKerningGroup = o;
rightKerningGroup = e;
unicode = 0153;
userData = {
com.typemytype.robofont.guides = (
{
angle = 90;
isGlobal = 0;
magnetic = 5;
x = 51;
y = 0;
},
{
angle = 90;
isGlobal = 0;
magnetic = 5;
x = 495;
y = 0;
}
);
};
},
{
glyphname = p;
layers = (
{
anchors = (
{
name = bottom;
position = "{235, 0}";
},
{
name = top;
position = "{345, 520}";
}
);
color = 6;
layerId = UUID0;
paths = (
{
closed = 1;
nodes = (
"18 -190 LINE SMOOTH",
"31 -190 OFFCURVE",
"41 -181 OFFCURVE",
"44 -168 CURVE SMOOTH",
"95 69 LINE",
"118 25 OFFCURVE",
"161 -10 OFFCURVE",
"249 -10 CURVE",
"410 -10 OFFCURVE",
"481 116 OFFCURVE",
"511 232 CURVE SMOOTH",
"516 252 OFFCURVE",
"520 268 OFFCURVE",
"523 288 CURVE SMOOTH",
"541 405 OFFCURVE",
"507 530 OFFCURVE",
"352 530 CURVE SMOOTH",
"264 530 OFFCURVE",
"218 496 OFFCURVE",
"176 451 CURVE",
"186 498 LINE SMOOTH",
"189 511 OFFCURVE",
"181 520 OFFCURVE",
"168 520 CURVE SMOOTH",
"151 520 LINE SMOOTH",
"138 520 OFFCURVE",
"128 511 OFFCURVE",
"125 498 CURVE SMOOTH",
"-17 -168 LINE SMOOTH",
"-20 -181 OFFCURVE",
"-12 -190 OFFCURVE",
"1 -190 CURVE SMOOTH"
);
},
{
closed = 1;
nodes = (
"138 48 OFFCURVE",
"111 138 OFFCURVE",
"126 218 CURVE SMOOTH",
"130 238 OFFCURVE",
"138 276 OFFCURVE",
"143 296 CURVE SMOOTH",
"163 378 OFFCURVE",
"238 472 OFFCURVE",
"352 472 CURVE SMOOTH",
"461 472 OFFCURVE",
"476 384 OFFCURVE",
"461 288 CURVE SMOOTH",
"458 268 OFFCURVE",
"455 252 OFFCURVE",
"449 232 CURVE SMOOTH",
"421 137 OFFCURVE",
"358 48 OFFCURVE",
"249 48 CURVE SMOOTH"
);
}
);
width = 579;
},
{
anchors = (
{
name = bottom;
position = "{276, 0}";
},
{
name = top;
position = "{386, 520}";
}
);
color = 6;
layerId = "A0D8A2CD-35BA-4362-A7DB-C0E331BFD9A3";
paths = (
{
closed = 1;
nodes = (
"154 -190 LINE SMOOTH",
"169 -190 OFFCURVE",
"184 -178 OFFCURVE",
"187 -163 CURVE SMOOTH",
"232 50 LINE",
"253 7 OFFCURVE",
"306 -10 OFFCURVE",
"362 -10 CURVE SMOOTH",
"478 -10 OFFCURVE",
"574 63 OFFCURVE",
"613 220 CURVE SMOOTH",
"621 250 OFFCURVE",
"625 269 OFFCURVE",
"630 299 CURVE SMOOTH",
"659 466 OFFCURVE",
"573 530 OFFCURVE",
"457 530 CURVE SMOOTH",
"388 530 OFFCURVE",
"343 502 OFFCURVE",
"305 463 CURVE",
"311 493 LINE SMOOTH",
"314 508 OFFCURVE",
"305 520 OFFCURVE",
"290 520 CURVE SMOOTH",
"120 520 LINE SMOOTH",
"105 520 OFFCURVE",
"90 508 OFFCURVE",
"87 493 CURVE SMOOTH",
"-52 -163 LINE SMOOTH",
"-55 -178 OFFCURVE",
"-46 -190 OFFCURVE",
"-31 -190 CURVE SMOOTH"
);
},
{
closed = 1;
nodes = (
"273 169 OFFCURVE",
"263 187 OFFCURVE",
"268 219 CURVE SMOOTH",
"272 249 OFFCURVE",
"275 263 OFFCURVE",
"284 293 CURVE SMOOTH",
"293 329 OFFCURVE",
"309 351 OFFCURVE",
"346 351 CURVE SMOOTH",
"383 351 OFFCURVE",
"387 329 OFFCURVE",
"384 293 CURVE SMOOTH",
"382 273 OFFCURVE",
"376 247 OFFCURVE",
"370 227 CURVE SMOOTH",
"358 191 OFFCURVE",
"344 169 OFFCURVE",
"307 169 CURVE SMOOTH"
);
}
);
width = 661;
}
);
leftKerningGroup = n;
rightKerningGroup = b;
unicode = 0070;
userData = {
com.typemytype.robofont.guides = (
{
angle = 0;
isGlobal = 0;
magnetic = 5;
x = 0;
y = 530;
},
{
angle = 0;
isGlobal = 0;
magnetic = 5;
x = 0;
y = "-10";
},
{
angle = 0;
isGlobal = 0;
magnetic = 5;
x = 0;
y = 422;
},
{
angle = 0;
isGlobal = 0;
magnetic = 5;
x = 0;
y = "-190";
},
{
angle = 90;
isGlobal = 0;
magnetic = 5;
x = 419;
y = 0;
},
{
angle = 90;
isGlobal = 0;
magnetic = 5;
x = "-609";
y = 0;
},
{
angle = 90;
isGlobal = 0;
magnetic = 5;
x = 79;
y = 0;
},
{
angle = 90;
isGlobal = 0;
magnetic = 5;
x = 122;
y = 0;
},
{
angle = 90;
isGlobal = 0;
magnetic = 5;
x = 291;
y = 0;
}
);
};
},
{
glyphname = thorn;
layers = (
{
anchors = (
{
name = bottom;
position = "{235, 0}";
},
{
name = top;
position = "{345, 520}";
}
);
color = 6;
layerId = UUID0;
paths = (
{
closed = 1;
nodes = (
"18 -190 LINE",
"31 -190 OFFCURVE",
"41 -181 OFFCURVE",
"44 -168 CURVE SMOOTH",
"95 69 LINE",
"118 25 OFFCURVE",
"161 -10 OFFCURVE",
"249 -10 CURVE SMOOTH",
"410 -10 OFFCURVE",
"481 116 OFFCURVE",
"511 232 CURVE SMOOTH",
"516 252 OFFCURVE",
"520 268 OFFCURVE",
"523 288 CURVE SMOOTH",
"541 405 OFFCURVE",
"507 530 OFFCURVE",
"352 530 CURVE SMOOTH",
"264 530 OFFCURVE",
"214 494 OFFCURVE",
"176 451 CURVE",
"227 688 LINE",
"230 702 OFFCURVE",
"222 710 OFFCURVE",
"209 710 CURVE",
"192 710 LINE",
"179 710 OFFCURVE",
"169 701 OFFCURVE",
"166 688 CURVE",
"-17 -168 LINE",
"-20 -181 OFFCURVE",
"-12 -190 OFFCURVE",
"1 -190 CURVE"
);
},
{
closed = 1;
nodes = (
"138 48 OFFCURVE",
"111 138 OFFCURVE",
"126 218 CURVE SMOOTH",
"130 238 OFFCURVE",
"138 276 OFFCURVE",
"143 296 CURVE SMOOTH",
"163 378 OFFCURVE",
"238 472 OFFCURVE",
"352 472 CURVE SMOOTH",
"461 472 OFFCURVE",
"476 384 OFFCURVE",
"461 288 CURVE SMOOTH",
"458 268 OFFCURVE",
"455 252 OFFCURVE",
"449 232 CURVE SMOOTH",
"421 137 OFFCURVE",
"358 48 OFFCURVE",
"249 48 CURVE SMOOTH"
);
}
);
width = 579;
},
{
anchors = (
{
name = bottom;
position = "{276, 0}";
},
{
name = top;
position = "{386, 520}";
}
);
color = 6;
layerId = "A0D8A2CD-35BA-4362-A7DB-C0E331BFD9A3";
paths = (
{
closed = 1;
nodes = (
"154 -190 LINE SMOOTH",
"169 -190 OFFCURVE",
"184 -178 OFFCURVE",
"187 -163 CURVE SMOOTH",
"232 50 LINE",
"253 10 OFFCURVE",
"306 -10 OFFCURVE",
"362 -10 CURVE SMOOTH",
"478 -10 OFFCURVE",
"574 63 OFFCURVE",
"613 220 CURVE SMOOTH",
"621 250 OFFCURVE",
"625 269 OFFCURVE",
"630 299 CURVE SMOOTH",
"659 466 OFFCURVE",
"573 530 OFFCURVE",
"457 530 CURVE SMOOTH",
"388 530 OFFCURVE",
"351 504 OFFCURVE",
"322 473 CURVE",
"367 683 LINE SMOOTH",
"370 698 OFFCURVE",
"360 710 OFFCURVE",
"345 710 CURVE SMOOTH",
"160 710 LINE SMOOTH",
"145 710 OFFCURVE",
"131 698 OFFCURVE",
"128 683 CURVE SMOOTH",
"-52 -163 LINE SMOOTH",
"-55 -178 OFFCURVE",
"-46 -190 OFFCURVE",
"-31 -190 CURVE SMOOTH"
);
},
{
closed = 1;
nodes = (
"273 169 OFFCURVE",
"263 187 OFFCURVE",
"268 219 CURVE SMOOTH",
"272 249 OFFCURVE",
"275 263 OFFCURVE",
"284 293 CURVE SMOOTH",
"293 329 OFFCURVE",
"309 351 OFFCURVE",
"346 351 CURVE SMOOTH",
"383 351 OFFCURVE",
"387 329 OFFCURVE",
"384 293 CURVE SMOOTH",
"382 273 OFFCURVE",
"376 247 OFFCURVE",
"370 227 CURVE SMOOTH",
"358 191 OFFCURVE",
"344 169 OFFCURVE",
"307 169 CURVE SMOOTH"
);
}
);
width = 661;
}
);
leftKerningGroup = h;
rightKerningGroup = b;
unicode = 00FE;
userData = {
com.typemytype.robofont.guides = (
{
angle = 0;
isGlobal = 0;
magnetic = 5;
x = 0;
y = 710;
}
);
};
},
{
glyphname = q;
layers = (
{
anchors = (
{
name = bottom;
position = "{235, 0}";
},
{
name = top;
position = "{345, 520}";
}
);
color = 6;
layerId = UUID0;
paths = (
{
closed = 1;
nodes = (
"372 -190 LINE SMOOTH",
"385 -190 OFFCURVE",
"396 -181 OFFCURVE",
"399 -168 CURVE SMOOTH",
"540 498 LINE SMOOTH",
"543 511 OFFCURVE",
"536 520 OFFCURVE",
"523 520 CURVE SMOOTH",
"506 520 LINE SMOOTH",
"493 520 OFFCURVE",
"482 511 OFFCURVE",
"479 498 CURVE SMOOTH",
"469 451 LINE",
"446 496 OFFCURVE",
"398 530 OFFCURVE",
"315 530 CURVE SMOOTH",
"159 530 OFFCURVE",
"83 410 OFFCURVE",
"54 293 CURVE SMOOTH",
"49 273 OFFCURVE",
"43 247 OFFCURVE",
"40 227 CURVE SMOOTH",
"22 110 OFFCURVE",
"57 -10 OFFCURVE",
"213 -10 CURVE SMOOTH",
"296 -10 OFFCURVE",
"346 25 OFFCURVE",
"388 69 CURVE",
"338 -168 LINE SMOOTH",
"335 -181 OFFCURVE",
"342 -190 OFFCURVE",
"355 -190 CURVE SMOOTH"
);
},
{
closed = 1;
nodes = (
"96 48 OFFCURVE",
"87 136 OFFCURVE",
"102 232 CURVE SMOOTH",
"105 252 OFFCURVE",
"108 268 OFFCURVE",
"114 288 CURVE SMOOTH",
"142 383 OFFCURVE",
"204 472 OFFCURVE",
"315 472 CURVE SMOOTH",
"429 472 OFFCURVE",
"451 378 OFFCURVE",
"436 296 CURVE SMOOTH",
"433 276 OFFCURVE",
"425 238 OFFCURVE",
"420 218 CURVE SMOOTH",
"401 138 OFFCURVE",
"324 48 OFFCURVE",
"213 48 CURVE SMOOTH"
);
}
);
width = 580;
},
{
anchors = (
{
name = bottom;
position = "{276, 0}";
},
{
name = top;
position = "{386, 520}";
}
);
color = 6;
layerId = "A0D8A2CD-35BA-4362-A7DB-C0E331BFD9A3";
paths = (
{
closed = 1;
nodes = (
"486 -190 LINE SMOOTH",
"501 -190 OFFCURVE",
"516 -178 OFFCURVE",
"519 -163 CURVE SMOOTH",
"658 493 LINE SMOOTH",
"661 508 OFFCURVE",
"652 520 OFFCURVE",
"637 520 CURVE SMOOTH",
"467 520 LINE SMOOTH",
"452 520 OFFCURVE",
"437 508 OFFCURVE",
"434 493 CURVE SMOOTH",
"428 463 LINE",
"406 502 OFFCURVE",
"353 530 OFFCURVE",
"284 530 CURVE SMOOTH",
"168 530 OFFCURVE",
"76 466 OFFCURVE",
"33 299 CURVE SMOOTH",
"26 269 OFFCURVE",
"22 250 OFFCURVE",
"16 220 CURVE",
"-11 63 OFFCURVE",
"73 -10 OFFCURVE",
"189 -10 CURVE SMOOTH",
"245 -10 OFFCURVE",
"286 7 OFFCURVE",
"325 50 CURVE",
"280 -163 LINE SMOOTH",
"277 -178 OFFCURVE",
"286 -190 OFFCURVE",
"301 -190 CURVE SMOOTH"
);
},
{
closed = 1;
nodes = (
"263 169 OFFCURVE",
"259 191 OFFCURVE",
"263 227 CURVE SMOOTH",
"265 247 OFFCURVE",
"271 273 OFFCURVE",
"277 293 CURVE SMOOTH",
"288 329 OFFCURVE",
"302 351 OFFCURVE",
"339 351 CURVE SMOOTH",
"376 351 OFFCURVE",
"382 329 OFFCURVE",
"377 293 CURVE SMOOTH",
"372 263 OFFCURVE",
"369 249 OFFCURVE",
"361 219 CURVE SMOOTH",
"352 187 OFFCURVE",
"334 169 OFFCURVE",
"300 169 CURVE SMOOTH"
);
}
);
width = 661;
}
);
leftKerningGroup = d;
rightKerningGroup = u;
unicode = 0071;
userData = {
com.typemytype.robofont.guides = (
{
angle = 0;
isGlobal = 0;
magnetic = 5;
x = 0;
y = 530;
},
{
angle = 0;
isGlobal = 0;
magnetic = 5;
x = 0;
y = "-10";
},
{
angle = 0;
isGlobal = 0;
magnetic = 5;
x = 0;
y = "-190";
}
);
};
},
{
glyphname = r;
layers = (
{
anchors = (
{
name = bottom;
position = "{47, 0}";
},
{
name = top;
position = "{245, 520}";
}
);
color = 6;
layerId = UUID0;
paths = (
{
closed = 1;
nodes = (
"57 0 LINE SMOOTH",
"70 0 OFFCURVE",
"81 9 OFFCURVE",
"84 22 CURVE SMOOTH",
"150 332 LINE SMOOTH",
"167 412 OFFCURVE",
"228 462 OFFCURVE",
"308 462 CURVE SMOOTH",
"351 462 LINE SMOOTH",
"364 462 OFFCURVE",
"374 471 OFFCURVE",
"377 484 CURVE SMOOTH",
"380 498 LINE SMOOTH",
"383 511 OFFCURVE",
"376 520 OFFCURVE",
"363 520 CURVE SMOOTH",
"326 520 LINE SMOOTH",
"259 520 OFFCURVE",
"206 497 OFFCURVE",
"175 451 CURVE",
"185 497 LINE SMOOTH",
"188 510 OFFCURVE",
"180 520 OFFCURVE",
"167 520 CURVE SMOOTH",
"151 520 LINE SMOOTH",
"138 520 OFFCURVE",
"127 510 OFFCURVE",
"124 497 CURVE SMOOTH",
"23 22 LINE SMOOTH",
"20 9 OFFCURVE",
"28 0 OFFCURVE",
"41 0 CURVE SMOOTH"
);
}
);
width = 350;
},
{
anchors = (
{
name = bottom;
position = "{114, 0}";
},
{
name = top;
position = "{317, 520}";
}
);
color = 6;
layerId = "A0D8A2CD-35BA-4362-A7DB-C0E331BFD9A3";
paths = (
{
closed = 1;
nodes = (
"200 0 LINE SMOOTH",
"215 0 OFFCURVE",
"229 12 OFFCURVE",
"232 27 CURVE SMOOTH",
"280 250 LINE SMOOTH",
"289 290 OFFCURVE",
"312 310 OFFCURVE",
"352 310 CURVE SMOOTH",
"481 310 LINE SMOOTH",
"496 310 OFFCURVE",
"511 322 OFFCURVE",
"514 337 CURVE SMOOTH",
"547 493 LINE SMOOTH",
"550 508 OFFCURVE",
"541 520 OFFCURVE",
"526 520 CURVE SMOOTH",
"458 520 LINE SMOOTH",
"383 520 OFFCURVE",
"342 494 OFFCURVE",
"309 458 CURVE",
"316 493 LINE SMOOTH",
"319 508 OFFCURVE",
"310 520 OFFCURVE",
"295 520 CURVE SMOOTH",
"120 520 LINE SMOOTH",
"105 520 OFFCURVE",
"90 508 OFFCURVE",
"87 493 CURVE SMOOTH",
"-12 27 LINE SMOOTH",
"-15 12 OFFCURVE",
"-5 0 OFFCURVE",
"10 0 CURVE SMOOTH"
);
}
);
width = 519;
}
);
leftKerningGroup = n;
rightKerningGroup = r;
unicode = 0072;
userData = {
com.typemytype.robofont.guides = (
{
angle = 0;
isGlobal = 0;
magnetic = 5;
x = 0;
y = 462;
}
);
};
},
{
glyphname = s;
layers = (
{
anchors = (
{
name = bottom;
position = "{211, 0}";
},
{
name = top;
position = "{290, 520}";
}
);
color = 6;
layerId = UUID0;
paths = (
{
closed = 1;
nodes = (
"325 -10 OFFCURVE",
"409 59 OFFCURVE",
"426 139 CURVE SMOOTH",
"442 214 OFFCURVE",
"410 259 OFFCURVE",
"288 288 CURVE SMOOTH",
"168 317 OFFCURVE",
"146 340 OFFCURVE",
"156 385 CURVE SMOOTH",
"167 435 OFFCURVE",
"213 472 OFFCURVE",
"293 472 CURVE SMOOTH",
"373 472 OFFCURVE",
"390 443 OFFCURVE",
"405 411 CURVE SMOOTH",
"408 403 OFFCURVE",
"413 398 OFFCURVE",
"424 398 CURVE SMOOTH",
"439 398 LINE SMOOTH",
"451 398 OFFCURVE",
"464 407 OFFCURVE",
"465 420 CURVE SMOOTH",
"470 449 OFFCURVE",
"435 530 OFFCURVE",
"305 530 CURVE SMOOTH",
"185 530 OFFCURVE",
"110 455 OFFCURVE",
"95 385 CURVE SMOOTH",
"81 320 OFFCURVE",
"98 270 OFFCURVE",
"218 241 CURVE SMOOTH",
"338 212 OFFCURVE",
"376 194 OFFCURVE",
"365 139 CURVE SMOOTH",
"352 79 OFFCURVE",
"287 48 OFFCURVE",
"207 48 CURVE SMOOTH",
"127 48 OFFCURVE",
"99 79 OFFCURVE",
"81 114 CURVE SMOOTH",
"75 126 OFFCURVE",
"70 127 OFFCURVE",
"62 127 CURVE SMOOTH",
"47 127 LINE SMOOTH",
"38 127 OFFCURVE",
"23 120 OFFCURVE",
"21 105 CURVE SMOOTH",
"17 78 OFFCURVE",
"55 -10 OFFCURVE",
"195 -10 CURVE SMOOTH"
);
}
);
width = 492;
},
{
anchors = (
{
name = bottom;
position = "{240, 0}";
},
{
name = top;
position = "{330, 520}";
}
);
color = 6;
hints = (
{
horizontal = 1;
place = "{0, 0}";
type = Tag;
},
{
horizontal = 1;
place = "{0, 0}";
type = Tag;
}
);
layerId = "A0D8A2CD-35BA-4362-A7DB-C0E331BFD9A3";
paths = (
{
closed = 1;
nodes = (
"418 -10 OFFCURVE",
"532 55 OFFCURVE",
"555 162 CURVE SMOOTH",
"569 230 OFFCURVE",
"535 309 OFFCURVE",
"395 330 CURVE SMOOTH",
"295 345 OFFCURVE",
"291 357 OFFCURVE",
"295 374 CURVE SMOOTH",
"297 383 OFFCURVE",
"308 390 OFFCURVE",
"318 390 CURVE SMOOTH",
"347 390 OFFCURVE",
"356 360 OFFCURVE",
"385 360 CURVE SMOOTH",
"388 360 OFFCURVE",
"392 360 OFFCURVE",
"395 360 CURVE",
"553 360 LINE SMOOTH",
"565 360 OFFCURVE",
"578 372 OFFCURVE",
"580 387 CURVE SMOOTH",
"590 444 OFFCURVE",
"514 530 OFFCURVE",
"349 530 CURVE SMOOTH",
"184 530 OFFCURVE",
"78 445 OFFCURVE",
"60 359 CURVE SMOOTH",
"37 254 OFFCURVE",
"118 209 OFFCURVE",
"207 192 CURVE SMOOTH",
"302 174 OFFCURVE",
"305 162 OFFCURVE",
"301 145 CURVE SMOOTH",
"299 135 OFFCURVE",
"286 130 OFFCURVE",
"275 130 CURVE SMOOTH",
"244 130 OFFCURVE",
"235 157 OFFCURVE",
"209 160 CURVE SMOOTH",
"208 160 OFFCURVE",
"206 160 OFFCURVE",
"205 160 CURVE SMOOTH",
"31 160 LINE SMOOTH",
"17 160 OFFCURVE",
"4 148 OFFCURVE",
"1 133 CURVE SMOOTH",
"-7 80 OFFCURVE",
"46 -10 OFFCURVE",
"238 -10 CURVE SMOOTH"
);
}
);
width = 590;
}
);
leftKerningGroup = s;
rightKerningGroup = s;
unicode = 0073;
userData = {
com.typemytype.robofont.guides = (
{
angle = 0;
isGlobal = 0;
magnetic = 5;
x = 0;
y = 265;
},
{
angle = 0;
isGlobal = 0;
magnetic = 5;
x = 0;
y = 139;
},
{
angle = 90;
isGlobal = 0;
magnetic = 5;
x = 250;
y = 0;
}
);
};
},
